<?xml version="1.0" standalone="no"?>
<!DOCTYPE svg PUBLIC "-//W3C//DTD SVG 1.1//EN" "http://www.w3.org/Graphics/SVG/1.1/DTD/svg11.dtd" >
<svg xmlns="http://www.w3.org/2000/svg">
<metadata></metadata>
<defs>
<font id="bariol_serifthin" horiz-adv-x="1335" >
<font-face units-per-em="2048" ascent="1612" descent="-436" />
<missing-glyph horiz-adv-x="548" />
<glyph unicode="&#x2e;&#x2e;&#x2e;" horiz-adv-x="1552" d="M133 23q0 40 37 40t37 -40q0 -39 -37 -39t-37 39zM739 23q0 40 37 40t37 -40q0 -39 -37 -39t-37 39zM1346 23q0 40 36 40q37 0 37 -40q0 -39 -37 -39q-36 0 -36 39z" />
<glyph unicode="&#xfb01;" horiz-adv-x="1013" d="M80 16q0 6 5 11.5t11 5.5h137v864h-129q-6 0 -11 5t-5 11t5 11.5t11 5.5h129v186q0 154 82.5 248t239.5 94q59 0 117.5 -14t93.5 -33q12 -6 12 -16q0 -5 -4.5 -11t-11.5 -6q-3 0 -23 8q-89 39 -184 39q-140 0 -212.5 -81.5t-72.5 -227.5v-186h492q7 0 12.5 -5.5 t5.5 -13.5v-878h146q6 0 11 -5.5t5 -11.5t-5 -11t-11 -5h-312q-6 0 -11 5t-5 11t5 11.5t11 5.5h129v864h-473v-864h185q6 0 11 -5.5t5 -11.5t-5 -11t-11 -5h-359q-6 0 -11 5t-5 11z" />
<glyph unicode="&#xfb02;" horiz-adv-x="1007" d="M80 16q0 6 5 11.5t11 5.5h137v864h-129q-6 0 -11 5t-5 11t5 11.5t11 5.5h129v186q0 156 82.5 249t245.5 93q55 0 114.5 -14.5t90.5 -32.5q14 -8 14 -25v-1181q0 -95 27 -142t106 -47q7 0 12 -5t5 -11t-5 -11t-12 -5q-97 0 -133.5 56.5t-36.5 164.5v692h-473v-864h185 q6 0 11 -5.5t5 -11.5t-5 -11t-11 -5h-359q-6 0 -11 5t-5 11zM270 930h473v454q-30 14 -83 27.5t-99 13.5q-145 0 -218 -80t-73 -229v-186z" />
<glyph unicode="&#xfb03;" horiz-adv-x="1536" d="M80 16q0 6 5 11.5t11 5.5h137v864h-129q-6 0 -11 5t-5 11t5 11.5t11 5.5h129v186q0 156 82.5 249t245.5 93h51q6 0 11.5 -5t5.5 -11t-5.5 -11.5t-11.5 -5.5h-51q-145 0 -218 -80t-73 -229v-186h486v186q0 155 81 248.5t240 93.5q59 0 117.5 -14t93.5 -33q12 -6 12 -16 q0 -5 -4.5 -11t-11.5 -6q-2 0 -22 8q-89 39 -179 39q-145 0 -217.5 -80t-72.5 -229v-186h491q8 0 13.5 -6t5.5 -13v-878h145q6 0 11 -5.5t5 -11.5t-5 -11t-11 -5h-162h-2h-147q-6 0 -11.5 5t-5.5 11t5.5 11.5t11.5 5.5h129v864h-473v-864h184q6 0 11 -5.5t5 -11.5t-5 -11 t-11 -5h-359q-6 0 -11 5t-5 11t5 11.5t11 5.5h138v864h-486v-864h185q6 0 11 -5.5t5 -11.5t-5 -11t-11 -5h-359q-6 0 -11 5t-5 11z" />
<glyph unicode="&#xfb04;" horiz-adv-x="1529" d="M80 16q0 6 5 11.5t11 5.5h137v864h-129q-6 0 -11 5t-5 11t5 11.5t11 5.5h129v186q0 155 81 248.5t239 93.5h59q6 0 11.5 -5t5.5 -11t-5.5 -11.5t-11.5 -5.5h-59q-140 0 -211.5 -81.5t-71.5 -227.5v-186h486v186q0 156 82 249t245 93q55 0 114.5 -14.5t90.5 -32.5 q15 -9 15 -25v-1181q0 -95 27 -142t106 -47q16 0 16 -16t-16 -16q-97 0 -133.5 56.5t-36.5 164.5v692h-473v-864h184q6 0 11 -5.5t5 -11.5t-5 -11t-11 -5h-359q-6 0 -11 5t-5 11t5 11.5t11 5.5h138v864h-486v-864h185q6 0 11 -5.5t5 -11.5t-5 -11t-11 -5h-359q-6 0 -11 5 t-5 11zM793 930h473v454q-30 14 -83.5 27.5t-99.5 13.5q-145 0 -217.5 -80t-72.5 -229v-186z" />
<glyph horiz-adv-x="0" />
<glyph horiz-adv-x="682" />
<glyph unicode=" "  horiz-adv-x="548" />
<glyph unicode="&#x09;" horiz-adv-x="548" />
<glyph unicode="&#xa0;" horiz-adv-x="548" />
<glyph unicode="!" horiz-adv-x="491" d="M211 23q0 40 35 40t35 -40q0 -39 -35 -39t-35 39zM219 1370q0 25 27 25q26 0 26 -25l-10 -1102q0 -7 -5 -12.5t-11 -5.5t-11.5 5.5t-5.5 12.5z" />
<glyph unicode="&#x22;" horiz-adv-x="536" d="M154 1368q0 27 24 27q25 0 25 -27l-10 -362q0 -13 -15 -13q-14 0 -14 13zM334 1368q0 27 24 27q25 0 25 -27l-10 -362q0 -13 -15 -13q-14 0 -14 13z" />
<glyph unicode="#" horiz-adv-x="1062" d="M92 483q0 6 5 11.5t12 5.5h182l53 344h-180q-7 0 -12 5t-5 11t5 11.5t12 5.5h186l70 442q3 16 18 16q6 0 11.5 -4.5t5.5 -11.5t-2 -19l-68 -423h360l70 442q3 16 19 16t16 -16q0 -7 -2 -19l-68 -423h174q7 0 12 -5.5t5 -11.5t-5 -11t-12 -5h-178l-53 -344h176 q7 0 11.5 -5.5t4.5 -11.5q0 -16 -16 -16h-182l-72 -467q-3 -16 -18 -16q-6 0 -11.5 4.5t-5.5 11.5q0 6 2 18l70 449h-360l-72 -467q-3 -16 -19 -16t-16 16q0 6 2 18l70 449h-178q-7 0 -12 5t-5 11zM328 500h358l53 344h-358z" />
<glyph unicode="$" horiz-adv-x="1103" d="M82 225q0 8 5.5 13.5t12.5 5.5q11 0 21 -17q60 -100 165 -161.5t251 -61.5q211 0 318.5 90.5t107.5 257.5q0 90 -45 156.5t-116.5 106t-158.5 71.5t-173.5 64t-158 70.5t-116.5 103.5t-45 153q0 141 92.5 232.5t289.5 97.5v190q0 6 5 11.5t12 5.5t11.5 -5.5t4.5 -11.5 v-190q137 -3 234.5 -53t167.5 -146q4 -6 4 -12q0 -7 -5.5 -11.5t-11.5 -4.5q-11 0 -16 8q-124 186 -385 186q-101 0 -175 -25.5t-114.5 -69.5t-59 -94t-18.5 -108q0 -64 28 -114.5t75 -84.5t108 -61.5t128.5 -51t134.5 -47.5t128 -56.5t108 -72.5t75 -100.5t28 -136.5 q0 -176 -109.5 -275.5t-324.5 -105.5v-188q0 -16 -16 -16q-7 0 -12 5t-5 11v188q-157 1 -267.5 66t-176.5 170q-6 9 -6 18z" />
<glyph unicode="%" horiz-adv-x="1486" d="M90 1073q0 334 275 334q274 0 274 -334t-274 -334q-275 0 -275 334zM123 1073q0 -142 55.5 -222.5t186.5 -80.5t186 80t55 223t-55 223t-186 80t-186.5 -80.5t-55.5 -222.5zM377 0q0 6 4 14l690 1364q7 17 21 17q7 0 11.5 -5.5t4.5 -11.5t-4 -14l-690 -1364 q-6 -16 -21 -16q-16 0 -16 16zM848 307q0 334 274 334q275 0 275 -334t-275 -334q-274 0 -274 334zM881 307q0 -143 55 -223t186 -80t186.5 80.5t55.5 222.5t-55.5 222.5t-186.5 80.5t-186 -80t-55 -223z" />
<glyph unicode="&#x26;" d="M172 348q0 80 35 151.5t86 122.5t131 109q-119 205 -119 385q0 126 68.5 208.5t195.5 82.5q111 0 178.5 -64t67.5 -184q0 -112 -82 -211t-260 -227q155 -272 494 -522q112 132 139 280h-133q-6 0 -11.5 5.5t-5.5 11.5t5.5 11t11.5 5h305q6 0 11 -5t5 -11t-5 -11.5 t-11 -5.5h-139q-32 -151 -144 -301q158 -110 287 -162q14 -6 14 -16q0 -16 -16 -16q-4 0 -16 4q-155 67 -291 164q-172 -181 -391 -181q-183 0 -296.5 101.5t-113.5 275.5zM209 348q0 -108 52.5 -187.5t135.5 -118t185 -38.5q113 0 207.5 50t156.5 118q-180 139 -297.5 259 t-204.5 269q-48 -33 -84.5 -66t-73.5 -77t-57 -97.5t-20 -111.5zM342 1116q0 -174 113 -364q71 51 122.5 93.5t100.5 95t74.5 107.5t25.5 111q0 101 -57 158t-152 57q-106 0 -166.5 -73t-60.5 -185z" />
<glyph unicode="'" horiz-adv-x="356" d="M154 1368q0 27 24 27q25 0 25 -27l-10 -362q0 -13 -15 -13q-14 0 -14 13z" />
<glyph unicode="(" horiz-adv-x="540" d="M141 606q0 85 1.5 144.5t8.5 146.5t19.5 151.5t37 139.5t58 130.5t85 106t116.5 82.5q8 4 14 4t11.5 -4t5.5 -10q0 -11 -15 -20q-62 -31 -111 -82.5t-80.5 -107t-54 -132.5t-33.5 -138.5t-17.5 -147t-7.5 -136.5t-1 -127t1 -127t7.5 -136t17.5 -146.5t33.5 -138.5 t54 -132.5t80.5 -107t111 -82.5q15 -9 15 -21q0 -6 -5.5 -10t-11.5 -4t-14 4q-65 32 -116.5 82.5t-85 106t-58 130.5t-37 139.5t-19.5 151.5t-8.5 146.5t-1.5 144.5z" />
<glyph unicode=")" horiz-adv-x="540" d="M43 -285q0 13 14 21q62 31 111 82.5t80.5 107t54 132.5t33.5 138.5t17.5 146.5t7.5 136t1 127t-1 127t-7.5 136.5t-17.5 147t-33.5 138.5t-54 132.5t-80.5 107t-111 82.5q-14 8 -14 20q0 6 5 10t11 4q7 0 15 -4q65 -32 116.5 -82.5t85 -105.5t57.5 -131t36.5 -139.5 t19.5 -151t8.5 -147t1.5 -144.5t-1.5 -144.5t-8.5 -147t-19.5 -151t-36.5 -139.5t-57.5 -131t-85 -105.5t-116.5 -82.5q-8 -4 -15 -4q-6 0 -11 4t-5 10z" />
<glyph unicode="*" horiz-adv-x="827" d="M123 1204q0 19 16 19q5 0 21 -4l243 -70l-6 262q0 21 17 21q16 0 16 -21l-6 -262l244 70q16 4 20 4q17 0 17 -19q0 -13 -17 -16l-258 -58l164 -219q6 -9 6 -16q0 -6 -5.5 -11t-12.5 -5q-8 0 -17 12l-151 227l-152 -227q-9 -12 -16 -12t-13 5t-6 11q0 7 6 16l164 219 l-258 58q-16 3 -16 16z" />
<glyph unicode="+" horiz-adv-x="1069" d="M98 446q0 6 5 11.5t12 5.5h403v432q0 7 5.5 11.5t11.5 4.5q16 0 16 -16v-432h403q7 0 12 -5.5t5 -11.5t-5 -11t-12 -5h-403v-430q0 -16 -16 -16q-6 0 -11.5 4.5t-5.5 11.5v430h-403q-7 0 -12 5t-5 11z" />
<glyph unicode="," horiz-adv-x="339" d="M133 20q0 43 37 43t37 -47q0 -46 -13.5 -94.5t-33.5 -77.5q-5 -8 -15 -8q-5 0 -8.5 4t-3.5 8q0 5 4 13q26 54 29 121q-33 4 -33 38z" />
<glyph unicode="-" horiz-adv-x="731" d="M162 516q0 16 16 16h375q16 0 16 -16t-16 -16h-375q-16 0 -16 16z" />
<glyph unicode="." horiz-adv-x="339" d="M133 23q0 40 37 40t37 -40q0 -39 -37 -39t-37 39z" />
<glyph unicode="/" horiz-adv-x="772" d="M84 -182q0 4 4 16l561 1690q5 14 19 14q8 0 13 -5t5 -13q0 -5 -4 -17l-561 -1689q-5 -15 -19 -15q-7 0 -12.5 5.5t-5.5 13.5z" />
<glyph unicode="0" horiz-adv-x="1265" d="M150 690q0 381 112 549t371 168t371 -168t112 -549q0 -382 -112 -550.5t-371 -168.5t-371 168.5t-112 550.5zM186 690q0 -366 103 -526t344 -160t343.5 160t102.5 526q0 365 -102.5 524.5t-343.5 159.5t-344 -159.5t-103 -524.5z" />
<glyph unicode="1" horiz-adv-x="776" d="M80 1163q0 10 10 17l352 209q9 6 17 6q7 0 12.5 -5.5t5.5 -13.5v-1343h246q6 0 11 -5.5t5 -11.5t-5 -11t-11 -5h-557q-6 0 -11 5t-5 11t5 11.5t11 5.5h274v1308l-327 -190q-9 -6 -15 -6q-8 0 -13 5.5t-5 12.5z" />
<glyph unicode="2" horiz-adv-x="1105" d="M98 18q0 80 28 149t75 121.5t108.5 100t129.5 89.5t135.5 84.5t129 91t108.5 102t75 124.5t28 152q0 148 -103 247t-271 99q-151 0 -233 -58.5t-126 -174.5q-5 -15 -20 -15q-6 0 -11.5 5t-5.5 12q0 4 2 10q46 127 140 190.5t254 63.5q185 0 298 -107t113 -272 q0 -84 -28 -157.5t-75 -129.5t-108 -107t-129 -94t-135.5 -85.5t-128.5 -87.5t-108 -93.5t-75 -110t-28 -130.5h803v178q0 6 5 11t11 5t11.5 -5t5.5 -11v-197q0 -8 -6 -13t-13 -5h-837q-8 0 -13.5 5.5t-5.5 12.5z" />
<glyph unicode="3" horiz-adv-x="1107" d="M92 205q0 14 17 14q12 0 20 -16q45 -97 150 -148t249 -51q206 0 309 102t103 293q0 75 -20 136.5t-66 115t-132 83.5t-206 30h-59q-8 0 -13.5 5.5t-5.5 12.5q0 10 11 21l421 538h-655v-149q0 -6 -5 -11t-11 -5t-11.5 5t-5.5 11v168q0 7 5.5 12.5t13.5 5.5h708 q8 0 13.5 -5.5t5.5 -12.5q0 -8 -6 -14l-428 -547h45q222 0 331 -110t109 -290q0 -203 -114.5 -315.5t-336.5 -112.5q-163 0 -273 59t-159 160q-4 8 -4 15z" />
<glyph unicode="4" horiz-adv-x="1095" d="M49 354q0 8 6 17l715 1011q9 13 18 13q8 0 13.5 -5.5t5.5 -13.5v-1005h178q8 0 13.5 -5t5.5 -12t-5.5 -12.5t-13.5 -5.5h-178v-303h143q6 0 11.5 -5.5t5.5 -11.5t-5.5 -11t-11.5 -5h-430q-6 0 -11 5t-5 11t5 11.5t11 5.5h250v303h-702q-8 0 -13.5 5.5t-5.5 12.5zM102 371 h668v948z" />
<glyph unicode="5" horiz-adv-x="1140" d="M117 238q0 16 16 16q11 0 17 -12q121 -238 413 -238q183 0 296.5 109t113.5 319q0 204 -113.5 310t-296.5 106q-118 0 -201.5 -34t-164.5 -118q-8 -8 -19 -8q-9 0 -15.5 6t-6.5 17q0 6 2 16l104 629q4 22 27 22h655q7 0 12 -5t5 -11v-170q0 -6 -5.5 -11t-11.5 -5t-11 5 t-5 11v154h-633l-100 -609q131 144 368 144q206 0 327.5 -118t121.5 -331q0 -228 -122.5 -344.5t-326.5 -116.5q-313 0 -444 256q-2 4 -2 11z" />
<glyph unicode="6" horiz-adv-x="1173" d="M145 655q0 392 122 572t370 180q109 0 193.5 -32t127.5 -75q9 -9 9 -16t-5.5 -11.5t-11.5 -4.5q-8 0 -16 8q-110 98 -297 98q-457 0 -457 -684v-94q59 119 165 192.5t259 73.5q209 0 332 -114.5t123 -327.5q0 -229 -120.5 -339t-334.5 -110q-119 0 -208 48t-143.5 139 t-81 215t-26.5 282zM188 553q0 -91 14.5 -170.5t46.5 -150t79.5 -120.5t118 -79t157.5 -29q93 0 167 22.5t131.5 70t88.5 129.5t31 194q0 204 -113 306.5t-305 102.5q-276 0 -416 -276z" />
<glyph unicode="7" horiz-adv-x="976" d="M76 1163v199q0 16 16 16h813q7 0 12 -5t5 -11q0 -91 -32 -177t-83 -159t-112.5 -149t-123 -164.5t-112.5 -187t-83 -234t-32 -289.5q0 -8 -5 -13t-13 -5t-13.5 5.5t-5.5 12.5q0 155 32 292.5t83 238t112.5 190.5t123 166t112.5 146.5t83 150t32 160.5h-776v-183 q0 -6 -5.5 -11t-11.5 -5t-11 5t-5 11z" />
<glyph unicode="8" horiz-adv-x="1179" d="M133 367q0 160 84 259t236 126q-112 24 -183 107t-71 210q0 163 106 250.5t285 87.5t285 -87.5t106 -250.5q0 -127 -71 -210t-183 -107q152 -27 236 -126t84 -259q0 -195 -121 -295.5t-336 -100.5t-336 100.5t-121 295.5zM170 367q0 -178 114 -270.5t306 -92.5t306 92.5 t114 270.5q0 182 -109.5 274t-310.5 92t-310.5 -92t-109.5 -274zM236 1069q0 -145 97 -224t257 -79t257 79t97 224q0 149 -95 227t-259 78t-259 -78t-95 -227z" />
<glyph unicode="9" horiz-adv-x="1173" d="M115 958q0 229 120.5 339t333.5 110q119 0 208 -48t143.5 -139t81 -215t26.5 -282q0 -392 -121.5 -572t-369.5 -180q-109 0 -194 32t-128 75q-8 8 -8 16q0 7 5 12t11 5q8 0 17 -9q110 -98 297 -98q456 0 456 684v94q-59 -119 -165 -192.5t-259 -73.5q-209 0 -331.5 114 t-122.5 328zM152 958q0 -138 54 -231t146 -135.5t217 -42.5q276 0 416 276q0 91 -14.5 170.5t-46.5 150t-79.5 120.5t-118 79t-157.5 29q-193 0 -305 -99t-112 -317z" />
<glyph unicode=":" horiz-adv-x="393" d="M162 23q0 40 35 40q34 0 34 -40q0 -39 -34 -39q-35 0 -35 39zM162 893q0 41 35 41q34 0 34 -41q0 -39 -34 -39q-35 0 -35 39z" />
<glyph unicode=";" horiz-adv-x="397" d="M162 20q0 43 37 43t37 -47q0 -45 -13.5 -93.5t-34.5 -78.5q-5 -8 -14 -8q-4 0 -8 4t-4 8q0 5 4 13q26 54 29 121q-33 4 -33 38zM162 893q0 41 37 41t37 -41q0 -39 -37 -39t-37 39z" />
<glyph unicode="&#x3c;" horiz-adv-x="837" d="M84 481q0 10 10 17l619 491q6 4 12 4q16 0 16 -16q0 -9 -8 -14l-602 -482l602 -481q8 -5 8 -14q0 -6 -4.5 -11.5t-11.5 -5.5q-6 0 -12 4l-619 492q-10 7 -10 16z" />
<glyph unicode="=" horiz-adv-x="1212" d="M170 291q0 16 16 16h840q16 0 16 -16q0 -6 -4.5 -11.5t-11.5 -5.5h-840q-7 0 -11.5 5.5t-4.5 11.5zM170 604q0 6 4.5 11.5t11.5 5.5h840q7 0 11.5 -5.5t4.5 -11.5q0 -16 -16 -16h-840q-16 0 -16 16z" />
<glyph unicode="&#x3e;" horiz-adv-x="837" d="M96 -14q0 9 8 14l603 481l-603 482q-8 5 -8 14q0 6 5 11t12 5q6 0 12 -4l618 -491q11 -7 11 -17q0 -9 -11 -16l-618 -492q-6 -4 -12 -4q-7 0 -12 5.5t-5 11.5z" />
<glyph unicode="?" horiz-adv-x="927" d="M82 1051q0 168 91 262t278 94q182 0 283.5 -95t101.5 -257q0 -82 -25.5 -150t-66 -113.5t-89.5 -84t-97.5 -71.5t-89 -66t-66 -77t-25.5 -96q0 -78 51 -129q8 -8 8 -18q0 -8 -5.5 -13.5t-12.5 -5.5q-8 0 -19 11q-59 59 -59 155q0 57 25.5 105t66 83t89.5 68.5t97.5 71.5 t89 81t66 107t25.5 142q0 145 -90 232t-258 87t-250 -83.5t-82 -239.5q0 -7 -5.5 -13t-13.5 -6q-7 0 -12.5 5.5t-5.5 13.5zM367 23q0 40 34 40q35 0 35 -40q0 -39 -35 -39q-34 0 -34 39z" />
<glyph unicode="@" horiz-adv-x="1732" d="M135 352q0 369 188 556.5t539 187.5q162 0 294.5 -43.5t230 -128.5t151 -219t53.5 -306q0 -58 -8 -112t-30.5 -112.5t-57.5 -101.5t-94.5 -70.5t-136.5 -27.5q-72 0 -126 32.5t-67 92.5q-70 -125 -256 -125q-137 0 -206.5 60.5t-69.5 154.5q0 106 78.5 161t226.5 55h219 v106q0 89 -61 139.5t-162 50.5q-131 0 -199 -92q-7 -10 -18 -10q-15 0 -15 14q0 8 6 17q70 104 226 104q52 0 96.5 -13t82 -40t58.5 -74t21 -110v-353q0 -71 47.5 -104t118.5 -33t124.5 25.5t84.5 65t50.5 93.5t26 103.5t6.5 103.5q0 167 -50 295t-142 208t-218.5 120.5 t-283.5 40.5q-338 0 -514 -180t-176 -531q0 -182 48 -318t138.5 -221t216.5 -127t287 -42q311 0 490 133q11 8 20 8q6 0 11.5 -4.5t5.5 -11.5q0 -12 -17 -23q-106 -76 -222.5 -105.5t-287.5 -29.5q-346 0 -536.5 185t-190.5 556zM575 190q0 -79 58 -130.5t182 -51.5 q127 0 187.5 52.5t60.5 134.5v176h-219q-133 0 -201 -47t-68 -134z" />
<glyph unicode="A" d="M8 16q0 6 5.5 11.5t11.5 5.5h104l514 1313h-115q-6 0 -11 5t-5 11t5 11t11 5h138q16 0 22 -16l520 -1329h107q6 0 11 -5.5t5 -11.5t-5 -11t-11 -5h-305q-6 0 -11.5 5t-5.5 11t5.5 11.5t11.5 5.5h159l-163 422h-672l-166 -422h162q6 0 11 -5.5t5 -11.5t-5 -11t-11 -5h-305 q-6 0 -11.5 5t-5.5 11zM346 487h647l-323 840z" />
<glyph unicode="B" horiz-adv-x="1234" d="M131 16q0 6 5 11.5t11 5.5h129v1313h-129q-6 0 -11 5t-5 11t5 11t11 5h504q203 0 296 -85.5t93 -248.5q0 -73 -24 -131.5t-63.5 -94.5t-83.5 -57t-91 -28q139 -6 233.5 -100t94.5 -260q0 -178 -96 -275.5t-289 -97.5h-574q-6 0 -11 5t-5 11zM313 33h408q180 0 266 88.5 t86 251.5q0 161 -95 249.5t-261 88.5h-404v-678zM313 743h338q162 0 257.5 79t95.5 222q0 302 -353 302h-338v-603z" />
<glyph unicode="C" horiz-adv-x="1306" d="M137 688q0 359 158.5 539t458.5 180q145 0 264.5 -55.5t189.5 -153.5q4 -6 4 -12q0 -8 -5.5 -13.5t-12.5 -5.5q-10 0 -16 9q-59 87 -175.5 142.5t-248.5 55.5q-285 0 -432.5 -173t-147.5 -513q0 -339 147.5 -511.5t432.5 -172.5q133 0 254 55.5t180 143.5q5 8 16 8 q8 0 13.5 -5.5t5.5 -12.5t-4 -13q-69 -97 -194 -153t-271 -56q-300 0 -458.5 179.5t-158.5 537.5z" />
<glyph unicode="D" horiz-adv-x="1355" d="M131 16q0 6 5 11.5t11 5.5h129v1313h-129q-6 0 -11 5t-5 11t5 11t11 5h449q150 0 262.5 -37t194 -117.5t123 -214.5t41.5 -321t-41.5 -320.5t-123 -213.5t-193.5 -117t-263 -37h-449q-6 0 -11 5t-5 11zM313 33h283q141 0 246.5 35t182.5 111.5t116 203.5t39 305 q0 176 -39 303.5t-116 205t-182.5 113.5t-246.5 36h-283v-1313z" />
<glyph unicode="E" horiz-adv-x="1140" d="M131 16q0 6 5 11.5t11 5.5h129v1313h-129q-6 0 -11 5t-5 11t5 11t11 5h844q8 0 13.5 -5.5t5.5 -12.5v-139q0 -6 -5 -11.5t-12 -5.5q-6 0 -11 5.5t-5 11.5v125h-664v-635h535q7 0 11.5 -5.5t4.5 -11.5q0 -16 -16 -16h-535v-645h688v125q0 6 5 11t12 5q16 0 16 -16v-142 q0 -16 -16 -16h-871q-6 0 -11 5t-5 11z" />
<glyph unicode="F" horiz-adv-x="1089" d="M131 16q0 6 5 11.5t11 5.5h129v1313h-129q-6 0 -11 5t-5 11t5 11t11 5h846q7 0 12 -5t5 -11v-141q0 -6 -5.5 -11.5t-11.5 -5.5t-11 5.5t-5 11.5v125h-664v-656h535q16 0 16 -16q0 -6 -4.5 -11.5t-11.5 -5.5h-535v-624h176q6 0 11.5 -5.5t5.5 -11.5t-5.5 -11t-11.5 -5 h-342q-6 0 -11 5t-5 11z" />
<glyph unicode="G" horiz-adv-x="1382" d="M137 688q0 359 158.5 539t458.5 180q145 0 264.5 -55.5t189.5 -153.5q4 -6 4 -12q0 -8 -5.5 -13.5t-12.5 -5.5q-10 0 -16 9q-59 87 -175.5 142.5t-248.5 55.5q-285 0 -432.5 -173t-147.5 -513q0 -339 147.5 -511.5t432.5 -172.5q143 0 268 63t186 160v375h-401 q-16 0 -16 16q0 6 4.5 11.5t11.5 5.5h410q11 0 19.5 -8.5t8.5 -18.5v-368q0 -21 -16 -43q-75 -102 -201.5 -164t-273.5 -62q-300 0 -458.5 179.5t-158.5 537.5z" />
<glyph unicode="H" horiz-adv-x="1474" d="M131 16q0 6 5 11.5t11 5.5h129v1313h-129q-6 0 -11 5t-5 11t5 11t11 5h295q6 0 11.5 -5t5.5 -11t-5.5 -11t-11.5 -5h-129v-619h848v619h-129q-6 0 -11 5t-5 11t5 11t11 5h295q6 0 11 -5t5 -11t-5 -11t-11 -5h-129v-1313h129q6 0 11 -5.5t5 -11.5t-5 -11t-11 -5h-295 q-6 0 -11 5t-5 11t5 11.5t11 5.5h129v661h-848v-661h129q6 0 11.5 -5.5t5.5 -11.5t-5.5 -11t-11.5 -5h-295q-6 0 -11 5t-5 11z" />
<glyph unicode="I" horiz-adv-x="589" d="M131 16q0 6 5 11.5t11 5.5h129v1313h-129q-6 0 -11 5t-5 11t5 11t11 5h295q6 0 11.5 -5t5.5 -11t-5.5 -11t-11.5 -5h-129v-1313h129q6 0 11.5 -5.5t5.5 -11.5t-5.5 -11t-11.5 -5h-295q-6 0 -11 5t-5 11z" />
<glyph unicode="J" horiz-adv-x="870" d="M57 33q0 6 5 11t12 5q6 0 22 -8q71 -35 183 -35q89 0 150.5 27t95 80t47.5 119t14 155v959h-174q-6 0 -11.5 5t-5.5 11t5.5 11t11.5 5h340q6 0 11 -5t5 -11t-5 -11t-11 -5h-129v-959q0 -76 -9.5 -136.5t-34 -114t-63 -89t-98.5 -56t-139 -20.5q-129 0 -211 45 q-11 6 -11 17z" />
<glyph unicode="K" horiz-adv-x="1263" d="M131 16q0 6 5 11.5t11 5.5h129v1313h-129q-6 0 -11 5t-5 11t5 11t11 5h295q6 0 11.5 -5t5.5 -11t-5.5 -11t-11.5 -5h-129v-801l693 801h-113q-6 0 -11 5t-5 11t5 11t11 5h315q6 0 11.5 -5t5.5 -11t-5.5 -11t-11.5 -5h-151l-473 -541l549 -772h133q6 0 11 -5.5t5 -11.5 t-5 -11t-11 -5h-142q-13 0 -18 8l-547 768l-246 -284v-459h129q6 0 11.5 -5.5t5.5 -11.5t-5.5 -11t-11.5 -5h-295q-6 0 -11 5t-5 11z" />
<glyph unicode="L" horiz-adv-x="1054" d="M131 16q0 6 5 11.5t11 5.5h129v1313h-129q-6 0 -11 5t-5 11t5 11t11 5h295q6 0 11.5 -5t5.5 -11t-5.5 -11t-11.5 -5h-129v-1313h637v125q0 7 5.5 11.5t11.5 4.5q16 0 16 -16v-142q0 -16 -16 -16h-820q-6 0 -11 5t-5 11z" />
<glyph unicode="M" horiz-adv-x="1744" d="M131 16q0 6 5 11.5t11 5.5h129v1313h-129q-6 0 -11 5t-5 11t5 11t11 5h156q10 0 14 -8l553 -1016l555 1012q4 12 17 12h153q6 0 11.5 -5t5.5 -11t-5.5 -11t-11.5 -5h-127v-1313h129q6 0 11.5 -5.5t5.5 -11.5t-5.5 -11t-11.5 -5h-294q-6 0 -11.5 5t-5.5 11t5.5 11.5 t11.5 5.5h129v1263l-541 -979q-6 -12 -21 -12q-12 0 -18 12l-539 979v-1263h129q6 0 11.5 -5.5t5.5 -11.5t-5.5 -11t-11.5 -5h-295q-6 0 -11 5t-5 11z" />
<glyph unicode="N" horiz-adv-x="1460" d="M131 16q0 6 5 11.5t11 5.5h129v1313h-129q-6 0 -11 5t-5 11t5 11t11 5h156q11 0 16 -8l840 -1304v1280h-129q-6 0 -11 5t-5 11t5 11t11 5h295q6 0 11 -5t5 -11t-5 -11t-11 -5h-129v-1344q0 -8 -5 -13t-13 -5q-12 0 -19 10l-846 1319v-1280h129q6 0 11.5 -5.5t5.5 -11.5 t-5.5 -11t-11.5 -5h-295q-6 0 -11 5t-5 11z" />
<glyph unicode="O" horiz-adv-x="1507" d="M137 688q0 359 158.5 539t458.5 180t458 -180t158 -539q0 -358 -158 -537.5t-458 -179.5t-458.5 179.5t-158.5 537.5zM174 688q0 -339 147.5 -511.5t432.5 -172.5t432 172.5t147 511.5q0 340 -147 513t-432 173t-432.5 -173t-147.5 -513z" />
<glyph unicode="P" horiz-adv-x="1173" d="M131 16q0 6 5 11.5t11 5.5h129v1313h-129q-6 0 -11 5t-5 11t5 11t11 5h562q168 0 267 -98t99 -287q0 -187 -99 -286t-267 -99h-396v-575h142q6 0 11 -5.5t5 -11.5t-5 -11t-11 -5h-308q-6 0 -11 5t-5 11zM313 641h396q154 0 241.5 95t87.5 257q0 165 -86.5 259t-242.5 94 h-396v-705z" />
<glyph unicode="Q" horiz-adv-x="1507" d="M137 688q0 359 158.5 539t458.5 180t458 -180t158 -539q0 -303 -113 -477.5t-329 -220.5q70 -15 141 -60.5t127 -107.5q8 -8 8 -15q0 -6 -5 -11t-11 -5t-14 8q-161 172 -359 172h-61q-300 0 -458.5 179.5t-158.5 537.5zM174 688q0 -339 147.5 -511.5t432.5 -172.5 t432 172.5t147 511.5q0 340 -147 513t-432 173t-432.5 -173t-147.5 -513z" />
<glyph unicode="R" horiz-adv-x="1241" d="M131 16q0 6 5 11.5t11 5.5h129v1313h-129q-6 0 -11 5t-5 11t5 11t11 5h568q162 0 268.5 -107t106.5 -265t-106.5 -265.5t-268.5 -107.5h-43l375 -600h120q6 0 11.5 -5.5t5.5 -11.5t-5.5 -11t-11.5 -5h-131q-15 0 -22 10l-383 623h-318v-600h129q6 0 11.5 -5.5t5.5 -11.5 t-5.5 -11t-11.5 -5h-295q-6 0 -11 5t-5 11zM313 666h402q151 0 244.5 99.5t93.5 240.5t-93.5 240.5t-244.5 99.5h-402v-680z" />
<glyph unicode="S" horiz-adv-x="1136" d="M96 225q0 7 6 13t13 6q10 0 20 -17q60 -100 165 -161.5t251 -61.5q211 0 318.5 90.5t107.5 257.5q0 90 -45 156.5t-116.5 106t-158.5 71.5t-173.5 64t-158 70.5t-116.5 103.5t-45 153q0 69 22.5 126.5t68.5 104t126 73t186 26.5q143 0 242.5 -50t171.5 -149q4 -6 4 -12 q0 -16 -16 -16q-12 0 -17 8q-124 186 -385 186q-101 0 -175 -25.5t-114 -69.5t-58.5 -94t-18.5 -108q0 -64 28 -114.5t75 -84.5t108 -61.5t128.5 -51t134.5 -47.5t128 -56.5t108 -72.5t75 -100.5t28 -136.5q0 -182 -117 -281.5t-346 -99.5q-158 0 -269.5 65t-179.5 171 q-6 9 -6 18z" />
<glyph unicode="T" horiz-adv-x="1122" d="M88 1143v219q0 16 16 16h914q16 0 16 -16v-219q0 -6 -5 -11.5t-11 -5.5t-11.5 5.5t-5.5 11.5v203h-421v-1313h141q6 0 11 -5.5t5 -11.5t-5 -11t-11 -5h-320q-6 0 -11 5t-5 11t5 11.5t11 5.5h142v1313h-422v-203q0 -6 -5.5 -11.5t-11.5 -5.5t-11 5.5t-5 11.5z" />
<glyph unicode="U" horiz-adv-x="1406" d="M102 1362q0 6 5.5 11t11.5 5h305q6 0 11 -5t5 -11t-5 -11t-11 -5h-139v-965q0 -66 10 -118.5t38.5 -102.5t74.5 -83t122 -53t177 -20t176.5 20t120.5 53t72 83.5t36.5 102t9.5 118.5v965h-139q-6 0 -11 5t-5 11t5 11t11 5h305q6 0 11.5 -5t5.5 -11t-5.5 -11t-11.5 -5 h-129v-965q0 -70 -10.5 -126.5t-40.5 -111t-79 -91t-130.5 -59t-191.5 -22.5t-192.5 22.5t-132.5 59t-81 91t-42 111t-11 126.5v965h-129q-6 0 -11.5 5t-5.5 11z" />
<glyph unicode="V" horiz-adv-x="1302" d="M14 1362q0 6 5.5 11t11.5 5h305q6 0 11 -5t5 -11t-5 -11t-11 -5h-164l479 -1305l477 1305h-161q-6 0 -11.5 5t-5.5 11t5.5 11t11.5 5h305q6 0 11 -5t5 -11t-5 -11t-11 -5h-103l-499 -1348q-6 -14 -19 -14q-12 0 -18 12l-500 1350h-102q-6 0 -11.5 5t-5.5 11z" />
<glyph unicode="W" horiz-adv-x="1843" d="M33 1362q0 6 5 11t11 5h305q6 0 11.5 -5t5.5 -11t-5.5 -11t-11.5 -5h-170l353 -1297l366 1315q3 14 19 14q14 0 18 -14l367 -1315l350 1297h-146q-6 0 -11 5t-5 11t5 11t11 5h306q6 0 11 -5t5 -11t-5 -11t-11 -5h-121l-371 -1348q-3 -14 -18 -14q-13 0 -19 14l-366 1305 l-367 -1305q-6 -14 -18 -14q-16 0 -19 14l-373 1348h-96q-6 0 -11 5t-5 11z" />
<glyph unicode="X" horiz-adv-x="1177" d="M14 16q0 6 5.5 11.5t11.5 5.5h104l434 676l-409 637h-103q-6 0 -11 5t-5 11t5 11t11 5h318q6 0 11 -5t5 -11t-5 -11t-11 -5h-170l385 -603l383 603h-170q-6 0 -11.5 5t-5.5 11t5.5 11t11.5 5h317q6 0 11.5 -5t5.5 -11t-5.5 -11t-11.5 -5h-102l-408 -637l434 -676h105 q6 0 11 -5.5t5 -11.5t-5 -11t-11 -5h-318q-6 0 -11 5t-5 11t5 11.5t11 5.5h168l-409 639l-412 -639h170q6 0 11.5 -5.5t5.5 -11.5t-5.5 -11t-11.5 -5h-317q-6 0 -11.5 5t-5.5 11z" />
<glyph unicode="Y" horiz-adv-x="1191" d="M20 1362q0 6 5.5 11t11.5 5h305q6 0 11 -5t5 -11t-5 -11t-11 -5h-149l403 -641l403 641h-149q-6 0 -11 5t-5 11t5 11t11 5h305q6 0 11 -5t5 -11t-5 -11t-11 -5h-113l-428 -680v-633h150q6 0 11 -5.5t5 -11.5t-5 -11t-11 -5h-336q-6 0 -11 5t-5 11t5 11.5t11 5.5h150v633 l-431 680h-110q-6 0 -11.5 5t-5.5 11z" />
<glyph unicode="Z" horiz-adv-x="1130" d="M86 16q0 8 6 17l856 1313h-782v-203q0 -6 -5 -11.5t-11 -5.5t-11.5 5.5t-5.5 11.5v219q0 6 5 11t12 5h831q16 0 16 -16q0 -5 -6 -14l-854 -1315h860v203q0 6 5.5 11t11.5 5t11 -5t5 -11v-220q0 -16 -16 -16h-912q-16 0 -16 16z" />
<glyph unicode="[" horiz-adv-x="526" d="M225 -281v1774q0 7 5.5 12.5t13.5 5.5h172q16 0 16 -16t-16 -16h-154v-1745h154q7 0 11.5 -5.5t4.5 -11.5q0 -16 -16 -16h-172q-8 0 -13.5 5.5t-5.5 12.5z" />
<glyph unicode="\" horiz-adv-x="772" d="M86 1520q0 8 5 13t13 5q14 0 19 -14l561 -1690q4 -12 4 -16q0 -8 -5.5 -13.5t-12.5 -5.5q-14 0 -19 15l-561 1689q-4 12 -4 17z" />
<glyph unicode="]" horiz-adv-x="526" d="M94 -283q0 6 5 11.5t12 5.5h153v1745h-153q-7 0 -12 5t-5 11t5 11t12 5h172q7 0 12.5 -5.5t5.5 -12.5v-1774q0 -7 -5.5 -12.5t-12.5 -5.5h-172q-7 0 -12 5t-5 11z" />
<glyph unicode="^" horiz-adv-x="1007" d="M115 770q0 6 6 16l360 615q8 14 23 14q14 0 22 -14l361 -615q6 -10 6 -16q0 -14 -14 -14q-10 0 -15 8l-360 614l-361 -614q-5 -8 -14 -8q-14 0 -14 14z" />
<glyph unicode="_" horiz-adv-x="897" d="M0 -141q0 16 16 16h865q16 0 16 -16q0 -6 -4.5 -11.5t-11.5 -5.5h-865q-7 0 -11.5 5.5t-4.5 11.5z" />
<glyph unicode="`" horiz-adv-x="671" d="M219 1300q-18 18 0 33q17 14 31 -4l207 -244q10 -10 0 -20q-11 -8 -21 2z" />
<glyph unicode="a" horiz-adv-x="1028" d="M104 254q0 132 94 204t251 72h342v107q0 138 -81.5 213.5t-224.5 75.5q-205 0 -292 -148q-3 -12 -19 -12q-6 0 -11 5t-5 11q0 3 1 5.5t2.5 6t2.5 5.5q94 159 321 159q166 0 253 -86t87 -235v-604h138q6 0 11 -5.5t5 -11.5t-5 -11t-11 -5h-156q-16 0 -16 16v136 q-40 -87 -134 -133t-213 -46q-167 0 -253.5 77t-86.5 204zM141 254q0 -113 79 -180.5t224 -67.5q93 0 169.5 28t127 92.5t50.5 156.5v217h-342q-138 0 -223 -65.5t-85 -180.5z" />
<glyph unicode="b" horiz-adv-x="1091" d="M41 1442q0 6 5 11t11 5h152q18 0 18 -18v-686l11 22t35.5 49t64 62t97 49t132.5 22q194 0 298 -123t104 -368q0 -244 -106.5 -369t-301.5 -125q-251 0 -334 226v-197q0 -8 -5.5 -13t-12.5 -5q-8 0 -13.5 5.5t-5.5 12.5v1423h-133q-6 0 -11 5.5t-5 11.5zM227 393 q0 -185 91 -286t243 -101q180 0 275.5 119t95.5 342q0 226 -95 342.5t-270 116.5q-72 0 -133.5 -24.5t-98 -60t-62.5 -71t-36 -60.5l-10 -24v-293z" />
<glyph unicode="c" horiz-adv-x="923" d="M123 465q0 493 407 493q58 0 108.5 -11.5t86 -30.5t57 -35t37.5 -33q8 -8 8 -14t-4.5 -11.5t-11.5 -5.5q-8 0 -14 6q-103 103 -267 103q-187 0 -278.5 -113.5t-91.5 -347.5q0 -231 92 -345t278 -114q152 0 281 103q2 1 6.5 3.5t7.5 2.5q7 0 12 -5.5t5 -11.5q0 -8 -11 -16 q-24 -20 -54 -40t-101.5 -44.5t-145.5 -24.5q-407 0 -407 492z" />
<glyph unicode="d" horiz-adv-x="1126" d="M125 467q0 245 103.5 368t297.5 123q71 0 132 -21t98 -51t63 -60t37 -51l10 -21v671h-137q-6 0 -11 5.5t-5 11.5t5 11t11 5h156q7 0 12.5 -5t5.5 -13v-1407h137q6 0 11.5 -5.5t5.5 -11.5t-5.5 -11t-11.5 -5h-155q-19 0 -19 18v181q-83 -226 -334 -226q-195 0 -301 125 t-106 369zM162 467q0 -223 95 -342t275 -119q146 0 240 99t94 270v311q-3 10 -10 26t-35.5 57.5t-63.5 73t-97 57.5t-134 26q-175 0 -269.5 -116.5t-94.5 -342.5z" />
<glyph unicode="e" horiz-adv-x="1017" d="M123 467q0 491 407 491q97 0 169 -28.5t110.5 -69t61 -98t28.5 -101.5t6 -94q0 -43 -6 -80q-5 -24 -33 -24h-706q0 -457 370 -457q175 0 312 100q13 9 16 9q6 0 11 -5t5 -12q0 -6 -6 -12q-139 -113 -338 -113q-407 0 -407 494zM162 496h704q4 32 4 71q0 54 -8 101 t-30.5 96t-59 83.5t-98.5 56.5t-144 22q-183 0 -275.5 -110.5t-92.5 -319.5z" />
<glyph unicode="f" horiz-adv-x="600" d="M80 16q0 6 5 11.5t11 5.5h137v864h-129q-6 0 -11 5t-5 11t5 11.5t11 5.5h129v186q0 155 81.5 248.5t242.5 93.5h35q16 0 16 -16q0 -6 -4.5 -11.5t-11.5 -5.5h-31q-145 0 -218 -80t-73 -229v-186h254q6 0 11.5 -5.5t5.5 -11.5t-5.5 -11t-11.5 -5h-254v-864h185 q6 0 11 -5.5t5 -11.5t-5 -11t-11 -5h-359q-6 0 -11 5t-5 11z" />
<glyph unicode="g" horiz-adv-x="976" d="M90 -139q0 86 59.5 151t129.5 80q-63 6 -107.5 39t-44.5 107q0 97 100 137q-100 84 -100 252q0 155 91.5 243t260.5 88q142 0 232 -65q45 125 188 125q6 0 11 -5.5t5 -11.5t-5 -11t-11 -5q-67 0 -105.5 -26.5t-58.5 -86.5q96 -87 96 -245q0 -155 -91.5 -243.5 t-260.5 -88.5q-139 0 -225 59q-52 -18 -72 -45.5t-20 -70.5q0 -117 147 -117h264q161 0 255 -61.5t94 -190.5q0 -140 -112.5 -210.5t-305.5 -70.5q-82 0 -153.5 15t-131.5 46t-94.5 85.5t-34.5 126.5zM127 -139q0 -64 30.5 -112t85 -75t120 -40t143.5 -13q172 0 275.5 61.5 t103.5 186.5q0 112 -82.5 165.5t-229.5 53.5h-202q-113 -15 -178.5 -77.5t-65.5 -149.5zM164 627q0 -136 80 -217.5t235 -81.5t235.5 81.5t80.5 217.5t-80.5 217.5t-235.5 81.5t-235 -81.5t-80 -217.5z" />
<glyph unicode="h" horiz-adv-x="1142" d="M70 16q0 6 5 11.5t11 5.5h137v1392h-137q-6 0 -11 5.5t-5 11.5t5 11t11 5h156q18 0 18 -18v-697q12 38 37 74t64.5 68.5t99.5 52.5t131 20q84 0 147 -20t100.5 -52.5t61 -81t31.5 -98t8 -110.5v-563h137q6 0 11.5 -5.5t5.5 -11.5t-5.5 -11t-11.5 -5h-311q-6 0 -11 5 t-5 11t5 11.5t11 5.5h137v581q0 67 -14 119.5t-47 97t-96.5 69t-153.5 24.5q-80 0 -145 -28t-105 -75t-61 -104.5t-21 -118.5v-565h137q6 0 11.5 -5.5t5.5 -11.5t-5.5 -11t-11.5 -5h-311q-6 0 -11 5t-5 11z" />
<glyph unicode="i" horiz-adv-x="512" d="M90 16q0 6 5 11.5t11 5.5h138v864h-138q-6 0 -11 5t-5 11t5 11.5t11 5.5h156q8 0 13.5 -6t5.5 -13v-878h137q6 0 11 -5.5t5 -11.5t-5 -11t-11 -5h-312q-6 0 -11 5t-5 11zM238 1266q0 32 24 32q25 0 25 -32q0 -31 -25 -31q-24 0 -24 31z" />
<glyph unicode="j" horiz-adv-x="450" d="M-16 -395q0 16 16 16q102 0 162.5 72.5t60.5 187.5v1016h-137q-6 0 -11 5t-5 11t5 11.5t11 5.5h154q10 0 15 -6t5 -13v-1030q0 -127 -69.5 -210t-190.5 -83q-7 0 -11.5 5.5t-4.5 11.5zM207 1266q0 32 24 32q25 0 25 -32q0 -31 -25 -31q-24 0 -24 31z" />
<glyph unicode="k" horiz-adv-x="1034" d="M70 16q0 6 5 11.5t11 5.5h137v1392h-133q-6 0 -11 5.5t-5 11.5t5 11t11 5h152q8 0 13 -5t5 -13v-1012l557 494q8 8 19 8h145q6 0 11 -5.5t5 -11.5t-5 -11t-11 -5h-135l-361 -317l402 -547h125q6 0 11 -5.5t5 -11.5t-5 -11t-11 -5h-129q-18 0 -27 12l-399 543l-197 -174 v-348h137q6 0 11.5 -5.5t5.5 -11.5t-5.5 -11t-11.5 -5h-311q-6 0 -11 5t-5 11z" />
<glyph unicode="l" horiz-adv-x="460" d="M39 1442q0 6 5 11t11 5h156q18 0 18 -18v-1235q0 -95 27 -142t106 -47h37q6 0 11.5 -5t5.5 -11t-5.5 -11t-11.5 -5h-39q-96 1 -131.5 57.5t-35.5 163.5v1220h-138q-6 0 -11 5.5t-5 11.5z" />
<glyph unicode="m" horiz-adv-x="1792" d="M82 16q0 6 5 11.5t11 5.5h138v864h-138q-6 0 -11 5t-5 11t5 11.5t11 5.5h156q7 0 12.5 -5.5t5.5 -13.5v-168q12 39 34 74t58.5 68t93.5 53t128 20q156 0 237 -65.5t97 -173.5q10 46 33 86.5t61 76t97.5 56t133.5 20.5q84 0 146.5 -20t99.5 -52.5t59.5 -81.5t30.5 -98 t8 -110v-563h137q6 0 11.5 -5.5t5.5 -11.5t-5.5 -11t-11.5 -5h-311q-6 0 -11 5t-5 11t5 11.5t11 5.5h137v581q0 67 -13.5 119t-46 97.5t-95 69.5t-152.5 24q-79 0 -141 -27.5t-99 -73.5t-56 -101.5t-19 -115.5v-573h137q6 0 11 -5.5t5 -11.5t-5 -11t-11 -5h-311 q-6 0 -11.5 5t-5.5 11t5.5 11.5t11.5 5.5h137v606q0 58 -15 106.5t-48.5 90t-95.5 65t-148 23.5q-79 0 -141 -28.5t-98.5 -76t-55.5 -105t-19 -120.5v-561h138q6 0 11 -5.5t5 -11.5t-5 -11t-11 -5h-312q-6 0 -11 5t-5 11z" />
<glyph unicode="n" horiz-adv-x="1155" d="M82 16q0 6 5 11.5t11 5.5h138v864h-138q-6 0 -11 5t-5 11t5 11.5t11 5.5h156q7 0 12.5 -5.5t5.5 -13.5v-168q12 38 37 74t64.5 68.5t99.5 52.5t131 20q84 0 147 -20t100.5 -52.5t61 -81t31.5 -98t8 -110.5v-563h138q6 0 11 -5.5t5 -11.5t-5 -11t-11 -5h-312q-6 0 -11 5 t-5 11t5 11.5t11 5.5h137v581q0 67 -14 119.5t-47 97t-96.5 69t-153.5 24.5q-80 0 -145 -28t-105 -75t-61 -104.5t-21 -118.5v-565h138q6 0 11 -5.5t5 -11.5t-5 -11t-11 -5h-312q-6 0 -11 5t-5 11z" />
<glyph unicode="o" horiz-adv-x="1060" d="M123 465q0 493 407 493q408 0 408 -493q0 -492 -408 -492q-407 0 -407 492zM160 465q0 -232 92.5 -345.5t277.5 -113.5q371 0 371 459q0 461 -371 461q-185 0 -277.5 -113.5t-92.5 -347.5z" />
<glyph unicode="p" horiz-adv-x="1126" d="M70 -395q0 6 5 11t11 5h137v1276h-137q-6 0 -11 5t-5 11t5 11.5t11 5.5h156q7 0 12.5 -5.5t5.5 -13.5v-196q73 243 348 243q198 0 295.5 -121t97.5 -372t-97.5 -371.5t-295.5 -120.5q-78 0 -142 24t-99.5 54t-61.5 70t-33.5 59t-11.5 35v-594h158q6 0 11 -5t5 -11 t-5 -11.5t-11 -5.5h-332q-6 0 -11 5.5t-5 11.5zM256 467q0 -228 90 -344.5t262 -116.5q177 0 267 116t90 343q0 461 -357 461q-172 0 -262 -115t-90 -344z" />
<glyph unicode="q" horiz-adv-x="1126" d="M125 465q0 243 102.5 368t298.5 125q257 0 340 -219v172q0 7 6 13t13 6h155q6 0 11.5 -5.5t5.5 -11.5t-5.5 -11t-11.5 -5h-137v-1276h127q6 0 11.5 -5t5.5 -11t-5.5 -11.5t-11.5 -5.5h-330q-6 0 -11 5.5t-5 11.5t5 11t11 5h166v557q-4 -8 -11.5 -22t-36.5 -49.5 t-64.5 -62.5t-98.5 -49t-135 -22q-395 0 -395 492zM162 465q0 -223 92 -341t266 -118q54 0 102 13t82 34.5t62.5 47t46.5 51t30.5 47t17.5 34.5l5 13v319q0 161 -92 261t-248 100q-175 0 -269.5 -119.5t-94.5 -341.5z" />
<glyph unicode="r" horiz-adv-x="677" d="M82 16q0 6 5 11.5t11 5.5h138v864h-138q-6 0 -11 5t-5 11t5 11.5t11 5.5h156q7 0 12.5 -5.5t5.5 -13.5v-196q10 43 35 84.5t65 77.5t100.5 58.5t131.5 22.5q7 0 12 -5t5 -11t-5 -11t-12 -5q-84 0 -150.5 -33t-104.5 -86t-57.5 -113.5t-19.5 -122.5v-538h234q6 0 11 -5.5 t5 -11.5t-5 -11t-11 -5h-408q-6 0 -11 5t-5 11z" />
<glyph unicode="s" horiz-adv-x="874" d="M96 125q0 5 5 10.5t12 5.5q6 0 14 -8q131 -127 311 -127q135 0 213 54.5t78 166.5q0 61 -32.5 106t-84.5 71.5t-115 48.5l-126 44t-115 49.5t-84.5 73.5t-32.5 109q0 113 81.5 171t213.5 58q99 0 178.5 -37.5t118.5 -97.5q1 -2 2 -5l1.5 -4.5t0.5 -2.5q0 -6 -5 -11 t-11 -5q-11 0 -14 8q-38 58 -109.5 90.5t-161.5 32.5q-120 0 -189 -49.5t-69 -147.5q0 -57 32.5 -98.5t84.5 -66.5t115 -46t126 -44t115 -52t84.5 -78.5t32.5 -116.5q0 -129 -89 -191.5t-239 -62.5q-114 0 -198.5 42t-137.5 98q-6 6 -6 12z" />
<glyph unicode="t" horiz-adv-x="528" d="M70 913q0 6 5 11.5t11 5.5h127v262q0 8 5.5 13t12.5 5q8 0 13.5 -5.5t5.5 -12.5v-262h184q6 0 11.5 -5.5t5.5 -11.5t-5.5 -11t-11.5 -5h-184v-672q0 -209 184 -209q7 0 12 -5t5 -11t-5 -11t-12 -5q-115 0 -168 64.5t-53 176.5v672h-127q-6 0 -11 5t-5 11z" />
<glyph unicode="u" horiz-adv-x="1142" d="M49 913q0 6 5.5 11.5t11.5 5.5h155q7 0 13 -6t6 -13v-594q0 -309 317 -309q74 0 131.5 17.5t93.5 47t59 71t32.5 86t9.5 96.5v571h-138q-6 0 -11 5t-5 11t5 11.5t11 5.5h156q7 0 13 -6t6 -13v-878h137q6 0 11 -5.5t5 -11.5t-5 -11t-11 -5h-158q-16 0 -16 16v144 q-40 -91 -117.5 -139t-208.5 -48q-354 0 -354 363v561h-137q-6 0 -11.5 5t-5.5 11z" />
<glyph unicode="v" horiz-adv-x="1036" d="M35 913q0 6 5 11.5t11 5.5h238q6 0 11 -5.5t5 -11.5t-5 -11t-11 -5h-109l338 -856l338 856h-108q-6 0 -11.5 5t-5.5 11t5.5 11.5t11.5 5.5h239q6 0 11.5 -5.5t5.5 -11.5t-5.5 -11t-11.5 -5h-90l-360 -899q-6 -14 -19 -14q-12 0 -18 14l-361 899h-88q-6 0 -11 5t-5 11z " />
<glyph unicode="w" horiz-adv-x="1503" d="M35 913q0 6 5 11.5t11 5.5h238q6 0 11 -5.5t5 -11.5t-5 -11t-11 -5h-111l297 -850l258 868q4 15 19 15q14 0 18 -15l258 -868l297 850h-108q-6 0 -11.5 5t-5.5 11t5.5 11.5t11.5 5.5h237q6 0 11 -5.5t5 -11.5t-5 -11t-11 -5h-90l-317 -897q-4 -16 -19 -16q-16 0 -20 16 l-256 864l-256 -864q-4 -16 -21 -16q-14 0 -18 16l-320 897h-86q-6 0 -11 5t-5 11z" />
<glyph unicode="x" horiz-adv-x="944" d="M47 16q0 6 5 11.5t11 5.5h78l308 440l-302 424h-79q-6 0 -11.5 5t-5.5 11t5.5 11.5t11.5 5.5h241q6 0 11.5 -5.5t5.5 -11.5t-5.5 -11t-11.5 -5h-116l280 -397l277 397h-111q-6 0 -11 5t-5 11t5 11.5t11 5.5h244q6 0 11 -5.5t5 -11.5t-5 -11t-11 -5h-88l-299 -428 l309 -436h82q6 0 11 -5.5t5 -11.5t-5 -11t-11 -5h-244q-6 0 -11 5t-5 11t5 11.5t11 5.5h115l-287 407l-287 -407h121q6 0 11.5 -5.5t5.5 -11.5t-5.5 -11t-11.5 -5h-242q-6 0 -11 5t-5 11z" />
<glyph unicode="y" horiz-adv-x="1036" d="M35 913q0 6 5 11.5t11 5.5h238q6 0 11 -5.5t5 -11.5t-5 -11t-11 -5h-109l338 -856l338 856h-108q-6 0 -11.5 5t-5.5 11t5.5 11.5t11.5 5.5h239q6 0 11.5 -5.5t5.5 -11.5t-5.5 -11t-11.5 -5h-90l-418 -1040q-62 -154 -135 -211.5t-213 -57.5q-7 0 -11.5 5.5t-4.5 11.5 q0 16 16 16q37 0 66.5 4t54.5 10t47 21t38.5 28t34.5 40t31 49t31 63.5t31 73t35 88.5l-361 899h-88q-6 0 -11 5t-5 11z" />
<glyph unicode="z" horiz-adv-x="860" d="M80 16q0 6 6 15l614 866h-544v-131q0 -6 -5.5 -11t-11.5 -5t-11 5t-5 11v147q0 6 4.5 11.5t11.5 5.5h592q7 0 12 -5.5t5 -11.5q0 -4 -7 -14l-612 -866h598v137q0 6 5 11t11 5t11.5 -5t5.5 -11v-154q0 -6 -5 -11t-12 -5h-647q-16 0 -16 16z" />
<glyph unicode="{" horiz-adv-x="555" d="M39 606q0 6 4.5 11.5t11.5 5.5h27q107 0 155 55t48 176q0 81 -13.5 240t-13.5 245q0 81 47 126.5t129 45.5q7 0 12 -5t5 -11t-5 -11t-12 -5q-64 0 -101.5 -35t-37.5 -105q0 -80 11 -244t11 -243q0 -112 -48 -179t-140 -67q92 0 140 -67t48 -179q0 -79 -11 -243t-11 -244 q0 -70 37.5 -104.5t101.5 -34.5q7 0 12 -5.5t5 -11.5t-5 -11t-12 -5q-82 0 -129 45.5t-47 126.5q0 86 13.5 245t13.5 240q0 121 -48 176.5t-155 55.5h-27q-16 0 -16 16z" />
<glyph unicode="|" horiz-adv-x="487" d="M225 -309v1945q0 8 5.5 13.5t13.5 5.5q7 0 12.5 -5.5t5.5 -13.5v-1945q0 -8 -5.5 -13.5t-12.5 -5.5q-8 0 -13.5 6t-5.5 13z" />
<glyph unicode="}" horiz-adv-x="555" d="M104 -283q0 6 5 11.5t12 5.5q64 0 101.5 34.5t37.5 104.5q0 80 -11 244t-11 243q0 112 48 179t140 67q-92 0 -140 67t-48 179q0 79 11 243t11 244q0 70 -37.5 105t-101.5 35q-7 0 -12 5t-5 11t5 11t12 5q82 0 129 -45.5t47 -126.5q0 -86 -13.5 -245t-13.5 -240 q0 -121 48 -176t155 -55h27q7 0 11.5 -5.5t4.5 -11.5q0 -16 -16 -16h-27q-107 0 -155 -55.5t-48 -176.5q0 -81 13.5 -240t13.5 -245q0 -81 -47 -126.5t-129 -45.5q-7 0 -12 5t-5 11z" />
<glyph unicode="~" horiz-adv-x="1142" d="M180 569q0 7 4 15q25 50 80 92.5t135 42.5q52 0 103.5 -22.5t86 -49.5t80 -49.5t87.5 -22.5q68 0 115 35.5t71 85.5q6 13 19 13q14 0 14 -17q0 -6 -4 -14q-25 -50 -80 -92.5t-135 -42.5q-47 0 -95.5 22.5t-83.5 49t-83.5 49t-94.5 22.5q-68 0 -115 -35.5t-71 -85.5 q-6 -12 -18 -12q-15 0 -15 16z" />
<glyph unicode="&#xa1;" horiz-adv-x="458" d="M195 920q0 38 34 38q35 0 35 -38q0 -41 -35 -41q-34 0 -34 41zM203 -428l10 1102q0 7 5 12.5t11 5.5t11.5 -5.5t5.5 -12.5l10 -1102q0 -25 -27 -25q-26 0 -26 25z" />
<glyph unicode="&#xa2;" horiz-adv-x="976" d="M133 465q0 481 389 493v148q0 7 5.5 12.5t13.5 5.5q7 0 12.5 -5t5.5 -13v-148q173 -7 270 -110q9 -9 9 -14q0 -6 -5 -11.5t-12 -5.5q-8 0 -14 6q-103 103 -266 103q-371 0 -371 -461q0 -459 371 -459q151 0 280 103q9 6 15 6q7 0 11.5 -5.5t4.5 -11.5q0 -8 -10 -16 q-130 -103 -283 -109v-174q0 -7 -5.5 -12.5t-12.5 -5.5q-8 0 -13.5 5.5t-5.5 12.5v174q-389 12 -389 492z" />
<glyph unicode="&#xa3;" horiz-adv-x="1196" d="M135 637q0 6 5 11t12 5h120q-4 8 -27 53.5t-29.5 59.5t-23 54.5t-22.5 65.5t-12 63t-6 75q0 169 113.5 276t307.5 107q317 0 420 -272q4 -12 4 -19q0 -16 -16 -16q-13 0 -18 16q-41 115 -137 186.5t-253 71.5q-177 0 -281 -97.5t-104 -252.5q0 -37 6 -74.5t12.5 -63.5 t22.5 -64.5t24 -54.5t30 -59.5t28 -54.5h406q16 0 16 -16t-16 -16h-389q63 -129 63 -252q0 -79 -42 -163t-99 -138q85 49 184 49q55 0 112.5 -18t98.5 -39.5t92 -39.5t94 -18q85 0 144.5 34.5t97.5 119.5q7 14 19 14q7 0 12.5 -5t5.5 -11q0 -9 -4 -17q-47 -92 -111 -131 t-164 -39q-51 0 -105.5 18.5t-95 40t-94 40t-102.5 18.5q-58 0 -106.5 -15t-72 -30.5t-62.5 -46.5q-12 -8 -19 -8q-8 0 -13 5t-5 13t10 18q190 186 190 349q0 114 -67 252h-137q-7 0 -12 5t-5 11z" />
<glyph unicode="&#xa4;" horiz-adv-x="1185" d="M178 242q0 8 8 16l133 135q-88 106 -88 246t93 248l-138 139q-8 8 -8 16t6 13.5t13 5.5q10 0 16 -8l135 -140q107 99 248 99q142 0 242 -94l133 135q6 8 16 8q7 0 13 -5.5t6 -13.5q0 -7 -9 -16l-133 -135q97 -109 97 -252q0 -137 -95 -250l131 -131q9 -9 9 -16 q0 -8 -6 -13.5t-13 -5.5q-10 0 -16 8l-129 131q-104 -96 -246 -96q-149 0 -250 101l-133 -136q-6 -8 -16 -8q-7 0 -13 5.5t-6 13.5zM268 639q0 -142 94 -240t234 -98t234 98t94 240t-94 240t-234 98t-234 -98t-94 -240z" />
<glyph unicode="&#xa5;" horiz-adv-x="1273" d="M61 1362q0 6 5.5 11t11.5 5h305q6 0 11 -5t5 -11t-5 -11t-11 -5h-150l404 -641l403 641h-149q-6 0 -11.5 5t-5.5 11t5.5 11t11.5 5h305q6 0 11 -5t5 -11t-5 -11t-11 -5h-113l-419 -668h286q7 0 12 -5t5 -11t-5 -11.5t-12 -5.5h-295v-178h295q7 0 12 -5t5 -11t-5 -11.5 t-12 -5.5h-295v-401h150q6 0 11 -5.5t5 -11.5t-5 -11t-11 -5h-336q-6 0 -11 5t-5 11t5 11.5t11 5.5h149v401h-294q-7 0 -12 5.5t-5 11.5t5 11t12 5h294v178h-294q-7 0 -12 5.5t-5 11.5t5 11t12 5h286l-422 668h-110q-6 0 -11.5 5t-5.5 11z" />
<glyph unicode="&#xa6;" horiz-adv-x="487" d="M225 -309v889q0 7 5.5 12.5t13.5 5.5t13 -5t5 -13v-889q0 -8 -5.5 -13.5t-12.5 -5.5q-8 0 -13.5 6t-5.5 13zM225 748v888q0 8 5.5 13.5t13.5 5.5q7 0 12.5 -5.5t5.5 -13.5v-888q0 -8 -5.5 -13.5t-12.5 -5.5q-8 0 -13.5 5.5t-5.5 13.5z" />
<glyph unicode="&#xa7;" horiz-adv-x="1095" d="M131 580q0 156 143 284q-110 89 -110 232q0 132 101 221.5t298 89.5q125 0 224.5 -49.5t154.5 -128.5q6 -9 6 -17q0 -6 -4.5 -10t-9.5 -4q-8 0 -16 10q-127 166 -355 166q-97 0 -169.5 -23.5t-113 -64.5t-60 -88.5t-19.5 -101.5q0 -66 26 -117.5t70.5 -84t101.5 -58 t120.5 -45.5l127 -40t120.5 -48t101.5 -63.5t70.5 -91.5t26 -128q0 -160 -144 -289q111 -90 111 -231q0 -132 -101.5 -222t-298.5 -90q-125 0 -223.5 50t-154.5 129q-7 11 -7 16q0 6 5 10t10 4q8 0 16 -10q127 -166 354 -166q97 0 170 24t113.5 64.5t60 88.5t19.5 102 q0 66 -26 117.5t-70.5 84t-101.5 58t-120.5 45.5t-127 40.5t-120.5 48.5t-101.5 64t-70.5 92.5t-26 129.5zM168 580q0 -72 31 -126.5t79.5 -86.5t116.5 -61t132.5 -47.5t139 -47t124.5 -59.5q137 116 137 268q0 71 -31 125t-79.5 85.5t-116.5 60t-133 47t-139 47t-124 59.5 q-137 -116 -137 -264z" />
<glyph unicode="&#xa8;" horiz-adv-x="552" d="M121 1161q0 33 31 33q30 0 30 -33t-30 -33q-31 0 -31 33zM371 1161q0 18 6.5 25.5t23.5 7.5q31 0 31 -33t-31 -33q-17 0 -23.5 7.5t-6.5 25.5z" />
<glyph unicode="&#xa9;" horiz-adv-x="1638" d="M137 688q0 358 177.5 538.5t504.5 180.5t504.5 -180.5t177.5 -538.5q0 -356 -177.5 -536.5t-504.5 -180.5t-504.5 180.5t-177.5 536.5zM174 688q0 -342 167 -513t478 -171t478 171t167 513q0 343 -166.5 514.5t-478.5 171.5t-478.5 -171.5t-166.5 -514.5zM508 688 q0 188 79 281.5t230 93.5q83 0 138 -25.5t83 -58.5q6 -8 6 -16q0 -6 -4.5 -10.5t-9.5 -4.5q-8 0 -14 6q-72 76 -199 76q-272 0 -272 -342q0 -173 67.5 -256.5t204.5 -83.5q135 0 211 76q6 6 14 6q5 0 10 -4t5 -10q0 -7 -6 -15q-30 -32 -91 -59t-143 -27q-309 0 -309 373z " />
<glyph unicode="&#xaa;" horiz-adv-x="903" d="M152 584q0 16 16 16h551q16 0 16 -16q0 -6 -4.5 -11.5t-11.5 -5.5h-551q-7 0 -11.5 5.5t-4.5 11.5zM195 928q0 87 62 137.5t181 50.5h213v68q0 86 -56 139t-151 53q-115 0 -180 -88q-5 -8 -16 -8q-5 0 -10 4t-5 10t7 17q28 41 80 68.5t124 27.5q117 0 178.5 -63.5 t61.5 -159.5v-398h45q16 0 16 -14q0 -16 -16 -16h-61q-17 0 -17 16v80q-30 -53 -87.5 -83t-135.5 -30q-112 0 -172.5 50.5t-60.5 138.5zM229 928q0 -75 52.5 -116.5t146.5 -41.5q96 0 159.5 51.5t63.5 157.5v104h-213q-100 0 -154.5 -41t-54.5 -114z" />
<glyph unicode="&#xab;" horiz-adv-x="888" d="M98 434q0 8 13 21l362 419q7 7 12 7q7 0 12 -5.5t5 -11.5q0 -8 -8 -16l-359 -414l359 -414q8 -8 8 -16q0 -6 -5 -11t-12 -5q-6 0 -12 6l-362 420q-13 13 -13 20zM385 434q0 9 12 21l363 419q7 7 12 7q7 0 11.5 -5.5t4.5 -11.5q0 -8 -8 -16l-358 -414l358 -414q8 -8 8 -16 q0 -16 -16 -16q-6 0 -12 6l-363 420q-12 12 -12 20z" />
<glyph unicode="&#xac;" horiz-adv-x="1261" d="M174 602q0 16 16 16h885q7 0 12 -5t5 -11v-487q0 -7 -5.5 -12t-11.5 -5t-11 5t-5 12v471h-869q-16 0 -16 16z" />
<glyph unicode="&#xad;" horiz-adv-x="731" d="M162 516q0 16 16 16h375q16 0 16 -16t-16 -16h-375q-16 0 -16 16z" />
<glyph unicode="&#xae;" horiz-adv-x="882" d="M141 1096q0 156 78 233.5t221 77.5q146 0 223.5 -77t77.5 -234t-78 -235.5t-223 -78.5q-143 0 -221 78.5t-78 235.5zM172 1096q0 -285 268 -285q271 0 271 285q0 282 -271 282q-268 0 -268 -282zM334 950v283q0 9 6.5 15.5t15.5 6.5h109q45 0 69.5 -26.5t24.5 -67.5 q0 -38 -23.5 -64.5t-60.5 -29.5l72 -102q6 -9 6 -15t-5 -11t-11 -5q-10 0 -15 8l-84 125h-71v-117q0 -6 -5 -11t-12 -5q-16 0 -16 16zM367 1098h98q27 0 43 18.5t16 44.5q0 28 -16 46t-43 18h-98v-127z" />
<glyph unicode="&#xaf;" horiz-adv-x="667" d="M102 1147q0 6 5 11t12 5h430q16 0 16 -16q0 -6 -4.5 -11.5t-11.5 -5.5h-430q-7 0 -12 5.5t-5 11.5z" />
<glyph unicode="&#xb0;" horiz-adv-x="798" d="M119 1126q0 117 81.5 199t198.5 82t199 -82t82 -199t-82 -198.5t-199 -81.5t-198.5 81.5t-81.5 198.5zM152 1124q0 -103 70 -175t175 -72t177.5 72.5t72.5 174.5t-72.5 177t-177.5 75q-104 0 -174.5 -74.5t-70.5 -177.5z" />
<glyph unicode="&#xb1;" horiz-adv-x="1155" d="M141 16q0 6 5 11.5t12 5.5h839q7 0 12 -5.5t5 -11.5t-5 -11t-12 -5h-839q-7 0 -12 5t-5 11zM141 627q0 6 5 11t12 5h403v432q0 7 5.5 12t11.5 5t11 -5t5 -12v-432h403q7 0 12 -5t5 -11t-5 -11.5t-12 -5.5h-403v-430q0 -16 -16 -16q-6 0 -11.5 4.5t-5.5 11.5v430h-403 q-7 0 -12 5.5t-5 11.5z" />
<glyph unicode="&#xb2;" horiz-adv-x="542" d="M61 885q0 49 20.5 88.5t53 66.5t71.5 51t78.5 47t72 47.5t53 59.5t20.5 78q0 61 -40.5 102t-125.5 41q-61 0 -96.5 -23.5t-52.5 -74.5q-4 -12 -17 -12q-14 0 -14 14q0 4 2 10q40 115 178 115q97 0 148 -47.5t51 -124.5q0 -46 -20.5 -84t-53 -65.5t-71.5 -52t-78.5 -47.5 t-72 -47t-53 -57t-20.5 -71h338v92q0 15 14 15q6 0 10.5 -4.5t4.5 -10.5v-106q0 -6 -4.5 -10.5t-10.5 -4.5h-370q-6 0 -10.5 4.5t-4.5 10.5z" />
<glyph unicode="&#xb3;" horiz-adv-x="544" d="M63 971q0 14 15 14q7 0 14 -10q56 -88 166 -88q188 0 188 160q0 75 -42 118t-130 43h-47q-14 0 -14 15q0 6 6 12l189 219h-283v-92q0 -14 -14 -14q-15 0 -15 14v106q0 6 4.5 10.5t10.5 4.5h325q6 0 10.5 -4.5t4.5 -10.5q0 -7 -7 -14l-188 -217h23q104 0 152 -54.5 t48 -135.5q0 -91 -51.5 -140t-169.5 -49q-69 0 -117 28.5t-73 69.5q-5 10 -5 15z" />
<glyph unicode="&#xb4;" horiz-adv-x="671" d="M215 1065q-10 10 0 20l207 244q14 18 31 4q18 -15 0 -33l-217 -233q-10 -10 -21 -2z" />
<glyph unicode="&#xb5;" horiz-adv-x="1218" d="M96 913q0 6 5.5 11.5t11.5 5.5h155q8 0 13.5 -6t5.5 -13v-594q0 -309 321 -309q322 0 322 309v580h-137q-6 0 -11.5 5t-5.5 11t5.5 11.5t11.5 5.5h155q7 0 13 -6.5t6 -12.5v-878h137q6 0 11 -5.5t5 -11.5t-5 -11t-11 -5h-156q-7 0 -12.5 5t-5.5 11v121 q-80 -164 -322 -164q-128 0 -209 47.5t-112 124.5v-546q0 -7 -5.5 -13t-13.5 -6q-7 0 -12.5 5.5t-5.5 13.5v1298h-137q-6 0 -11.5 5t-5.5 11z" />
<glyph unicode="&#xb6;" horiz-adv-x="974" d="M70 608q0 132 93.5 227t225.5 95h422q7 0 11.5 -5.5t4.5 -11.5q0 -16 -16 -16h-66v-1282q0 -7 -5.5 -12.5t-12.5 -5.5t-12.5 5.5t-5.5 12.5v1282h-160v-1282q0 -7 -5.5 -12.5t-13.5 -5.5t-13 5.5t-5 12.5v672h-123q-132 0 -225.5 94t-93.5 227z" />
<glyph unicode="&#xb7;" horiz-adv-x="397" d="M164 614q0 41 35 41q34 0 34 -41q0 -39 -34 -39q-35 0 -35 39z" />
<glyph unicode="&#xb8;" horiz-adv-x="645" d="M150 -311q0 16 14 16q5 0 14 -6q41 -29 98 -29q148 0 148 113q0 50 -38.5 73t-92.5 23q-23 0 -46 -6t-26 -6q-16 0 -16 18l6 115h29l-7 -98q29 10 62 10q78 0 122 -34t44 -95q0 -67 -47 -106t-138 -39q-36 0 -71.5 12.5t-48.5 23.5q-6 6 -6 15z" />
<glyph unicode="&#xb9;" horiz-adv-x="403" d="M59 1366q0 8 9 14l151 103q9 6 14 6q6 0 11.5 -5t5.5 -11v-580h104q6 0 11.5 -4t5.5 -10t-5.5 -10.5t-11.5 -4.5h-262q-6 0 -11 4.5t-5 10.5t5 10t11 4h125v551l-129 -86q-9 -6 -14 -6q-6 0 -10.5 4.5t-4.5 9.5z" />
<glyph unicode="&#xba;" horiz-adv-x="921" d="M174 584q0 16 16 16h541q7 0 12 -5t5 -11t-5 -11.5t-12 -5.5h-541q-7 0 -11.5 5.5t-4.5 11.5zM184 1073q0 334 277 334q276 0 276 -334t-276 -334q-277 0 -277 334zM219 1073q0 -303 242 -303q241 0 241 303t-241 303q-242 0 -242 -303z" />
<glyph unicode="&#xbb;" horiz-adv-x="888" d="M100 4q0 7 9 16l358 414l-358 414q-9 9 -9 16q0 6 5 11.5t12 5.5q5 0 12 -7l363 -419q12 -12 12 -21q0 -8 -12 -20l-363 -420q-6 -6 -12 -6q-7 0 -12 5t-5 11zM387 4q0 8 8 16l359 414l-359 414q-8 8 -8 16q0 6 4.5 11.5t11.5 5.5q6 0 13 -7l362 -419q13 -13 13 -21 q0 -7 -13 -20l-362 -420q-6 -6 -13 -6q-16 0 -16 16z" />
<glyph unicode="&#xbc;" horiz-adv-x="1028" d="M106 1278q0 8 9 14l151 103q9 6 15 6t11 -5.5t5 -11.5v-579h104q6 0 11.5 -4t5.5 -10t-5.5 -10.5t-11.5 -4.5h-262q-6 0 -11 4.5t-5 10.5t5 10t11 4h125v551l-129 -86q-9 -6 -14 -6q-6 0 -10.5 4.5t-4.5 9.5zM227 2q0 4 4 16l529 1362q6 15 18 15q8 0 13.5 -5.5 t5.5 -13.5q0 -4 -4 -16l-529 -1362q-6 -14 -18 -14q-8 0 -13.5 5.5t-5.5 12.5zM502 152q0 4 8 16l305 426q8 12 16 12q7 0 12 -5t5 -11v-424h63q15 0 15 -14q0 -6 -4.5 -10.5t-10.5 -4.5h-63v-127h51q6 0 11 -4t5 -10t-5 -10t-11 -4h-168q-6 0 -11 4t-5 10t5 10t11 4h84v127 h-299q-14 0 -14 15zM545 166h270v377z" />
<glyph unicode="&#xbd;" horiz-adv-x="1107" d="M111 1278q0 9 8 14l151 103q9 6 15 6t11 -5.5t5 -11.5v-579h105q6 0 11 -4t5 -10t-5 -10.5t-11 -4.5h-263q-6 0 -11 4.5t-5 10.5t5 10t11 4h125v551l-129 -86q-9 -6 -14 -6q-6 0 -10 4.5t-4 9.5zM227 2q0 4 4 16l529 1362q6 15 18 15q8 0 13.5 -5.5t5.5 -13.5 q0 -4 -4 -16l-529 -1362q-6 -14 -18 -14q-8 0 -13.5 5.5t-5.5 12.5zM598 14q0 49 20.5 88.5t53 67t71.5 51.5t78.5 46.5t72 47.5t53 60t20.5 78q0 61 -40.5 102t-125.5 41q-61 0 -97 -23.5t-53 -74.5q-4 -13 -16 -13q-14 0 -14 15q0 4 2 10q40 115 178 115q97 0 147.5 -47.5 t50.5 -124.5q0 -46 -20.5 -84t-53 -65.5t-71.5 -52t-78 -47.5t-71.5 -47t-53 -57t-20.5 -71h338v92q0 14 14 14t14 -14v-107q0 -14 -14 -14h-371q-14 0 -14 14z" />
<glyph unicode="&#xbe;" horiz-adv-x="1134" d="M90 883q0 14 14 14q8 0 15 -10q56 -88 166 -88q188 0 188 159q0 75 -42 118.5t-130 43.5h-47q-14 0 -14 15q0 6 6 12l188 219h-282v-92q0 -14 -15 -14q-14 0 -14 14v106q0 15 14 15h326q14 0 14 -15q0 -8 -6 -14l-188 -217h22q104 0 152.5 -55t48.5 -136 q0 -91 -51.5 -139.5t-169.5 -48.5q-69 0 -117.5 28.5t-73.5 69.5q-4 8 -4 15zM330 2q0 4 4 16l528 1362q6 15 19 15q7 0 12.5 -5.5t5.5 -13.5q0 -4 -4 -16l-528 -1362q-6 -14 -19 -14q-8 0 -13 5t-5 13zM608 152q0 4 8 16l306 426q8 12 16 12q16 0 16 -16v-424h64 q14 0 14 -14q0 -15 -14 -15h-64v-127h52q6 0 11 -4t5 -10t-5 -10t-11 -4h-168q-6 0 -11.5 4t-5.5 10t5.5 10t11.5 4h84v127h-299q-6 0 -10.5 4.5t-4.5 10.5zM651 166h271v377z" />
<glyph unicode="&#xbf;" horiz-adv-x="905" d="M80 -113q0 82 25.5 150t66 113.5t89.5 84t97.5 71.5t89 66t66 77t25.5 96q0 77 -52 129q-8 8 -8 18q0 8 5.5 13.5t13.5 5.5q7 0 18 -11q59 -59 59 -155q0 -57 -25.5 -105t-65.5 -83t-89 -68.5t-98 -71.5t-89 -81t-65.5 -107t-25.5 -142q0 -145 90 -232t258 -87t250 83.5 t82 239.5q0 8 5.5 13.5t12.5 5.5t13 -6t6 -13q0 -168 -91 -262t-278 -94q-182 0 -283.5 95t-101.5 257zM479 920q0 38 35 38t35 -38q0 -41 -35 -41t-35 41z" />
<glyph unicode="&#xc0;" d="M8 16q0 6 5.5 11.5t11.5 5.5h104l514 1313h-115q-6 0 -11 5t-5 11t5 11t11 5h138q16 0 22 -16l520 -1329h107q6 0 11 -5.5t5 -11.5t-5 -11t-11 -5h-305q-6 0 -11.5 5t-5.5 11t5.5 11.5t11.5 5.5h159l-163 422h-672l-166 -422h162q6 0 11 -5.5t5 -11.5t-5 -11t-11 -5h-305 q-6 0 -11.5 5t-5.5 11zM346 487h647l-323 840zM502 1718q-18 18 0 33q16 13 30 -4l207 -244q10 -10 0 -20q-10 -8 -20 2z" />
<glyph unicode="&#xc1;" d="M8 16q0 6 5.5 11.5t11.5 5.5h104l514 1313h-115q-6 0 -11 5t-5 11t5 11t11 5h138q16 0 22 -16l520 -1329h107q6 0 11 -5.5t5 -11.5t-5 -11t-11 -5h-305q-6 0 -11.5 5t-5.5 11t5.5 11.5t11.5 5.5h159l-163 422h-672l-166 -422h162q6 0 11 -5.5t5 -11.5t-5 -11t-11 -5h-305 q-6 0 -11.5 5t-5.5 11zM346 487h647l-323 840zM582 1483q-10 10 0 20l206 244q14 18 31 4q18 -15 0 -33l-217 -233q-10 -10 -20 -2z" />
<glyph unicode="&#xc2;" d="M8 16q0 6 5.5 11.5t11.5 5.5h104l514 1313h-115q-6 0 -11 5t-5 11t5 11t11 5h138q16 0 22 -16l520 -1329h107q6 0 11 -5.5t5 -11.5t-5 -11t-11 -5h-305q-6 0 -11.5 5t-5.5 11t5.5 11.5t11.5 5.5h159l-163 422h-672l-166 -422h162q6 0 11 -5.5t5 -11.5t-5 -11t-11 -5h-305 q-6 0 -11.5 5t-5.5 11zM346 487h647l-323 840zM434 1499q0 9 10 17l207 163q12 9 19 9q6 0 18 -9l207 -163q10 -8 10 -17q0 -6 -5 -11t-11 -5q-9 0 -15 6l-204 164l-205 -164q-6 -6 -14 -6q-6 0 -11.5 5t-5.5 11z" />
<glyph unicode="&#xc3;" d="M8 16q0 6 5.5 11.5t11.5 5.5h104l514 1313h-115q-6 0 -11 5t-5 11t5 11t11 5h138q16 0 22 -16l520 -1329h107q6 0 11 -5.5t5 -11.5t-5 -11t-11 -5h-305q-6 0 -11.5 5t-5.5 11t5.5 11.5t11.5 5.5h159l-163 422h-672l-166 -422h162q6 0 11 -5.5t5 -11.5t-5 -11t-11 -5h-305 q-6 0 -11.5 5t-5.5 11zM346 487h647l-323 840zM395 1524q0 6 4 14q41 88 140 88q47 0 92 -21.5t87 -43t83 -21.5t64 17t42 53q8 16 21 16q16 0 16 -16q0 -7 -4 -15q-41 -88 -139 -88q-47 0 -92 21.5t-87.5 43t-82.5 21.5q-41 0 -65 -16.5t-42 -52.5q-8 -17 -20 -17 q-7 0 -12 5.5t-5 11.5z" />
<glyph unicode="&#xc4;" d="M8 16q0 6 5.5 11.5t11.5 5.5h104l514 1313h-115q-6 0 -11 5t-5 11t5 11t11 5h138q16 0 22 -16l520 -1329h107q6 0 11 -5.5t5 -11.5t-5 -11t-11 -5h-305q-6 0 -11.5 5t-5.5 11t5.5 11.5t11.5 5.5h159l-163 422h-672l-166 -422h162q6 0 11 -5.5t5 -11.5t-5 -11t-11 -5h-305 q-6 0 -11.5 5t-5.5 11zM346 487h647l-323 840zM514 1583q0 33 31 33q30 0 30 -33t-30 -33q-31 0 -31 33zM764 1583q0 33 31 33q30 0 30 -33t-30 -33q-31 0 -31 33z" />
<glyph unicode="&#xc5;" d="M8 16q0 6 5.5 11.5t11.5 5.5h104l514 1313h-115q-6 0 -11 5t-5 11t5 11t11 5h138q16 0 22 -16l520 -1329h107q6 0 11 -5.5t5 -11.5t-5 -11t-11 -5h-305q-6 0 -11.5 5t-5.5 11t5.5 11.5t11.5 5.5h159l-163 422h-672l-166 -422h162q6 0 11 -5.5t5 -11.5t-5 -11t-11 -5h-305 q-6 0 -11.5 5t-5.5 11zM346 487h647l-323 840zM465 1645q0 93 51 143.5t154 50.5t153.5 -50.5t50.5 -143.5t-50.5 -144t-153.5 -51t-154 51t-51 144zM498 1645q0 -164 172 -164t172 164q0 80 -40.5 121.5t-131.5 41.5t-131.5 -41.5t-40.5 -121.5z" />
<glyph unicode="&#xc6;" horiz-adv-x="1828" d="M4 16q0 6 5 11.5t11 5.5h125l809 1313h-108q-6 0 -11.5 5t-5.5 11t5.5 11t11.5 5h835q6 0 11.5 -4.5t5.5 -11.5v-141q0 -6 -5.5 -11.5t-11.5 -5.5t-11 5.5t-5 11.5v125h-664v-635h535q7 0 11.5 -5.5t4.5 -11.5q0 -16 -16 -16h-535v-645h689v125q0 6 5 11t11 5t11 -5 t5 -11v-142q0 -16 -16 -16h-723q-7 0 -12.5 5t-5.5 13v437h-516l-261 -422h138q6 0 11 -5.5t5 -11.5t-5 -11t-11 -5h-306q-6 0 -11 5t-5 11zM467 487h498v809z" />
<glyph unicode="&#xc7;" horiz-adv-x="1306" d="M137 688q0 359 158.5 539t458.5 180q145 0 264.5 -55.5t189.5 -153.5q4 -6 4 -12q0 -8 -5.5 -13.5t-12.5 -5.5q-10 0 -16 9q-59 87 -175.5 142.5t-248.5 55.5q-285 0 -432.5 -173t-147.5 -513q0 -339 147.5 -511.5t432.5 -172.5q133 0 254 55.5t180 143.5q5 8 16 8 q8 0 13.5 -5.5t5.5 -12.5t-4 -13q-69 -97 -194 -153t-271 -56h-27l-4 -69q28 10 61 10q78 0 122 -34t44 -95q0 -67 -46.5 -106t-137.5 -39q-36 0 -72 12.5t-49 23.5q-6 6 -6 15q0 16 14 16q6 0 15 -6q41 -29 98 -29q147 0 147 113q0 50 -38.5 73t-92.5 23q-23 0 -45.5 -6 t-25.5 -6q-17 0 -17 18l4 88q-273 15 -417 194t-144 521z" />
<glyph unicode="&#xc8;" horiz-adv-x="1140" d="M131 16q0 6 5 11.5t11 5.5h129v1313h-129q-6 0 -11 5t-5 11t5 11t11 5h844q8 0 13.5 -5.5t5.5 -12.5v-139q0 -6 -5 -11.5t-12 -5.5q-6 0 -11 5.5t-5 11.5v125h-664v-635h535q7 0 11.5 -5.5t4.5 -11.5q0 -16 -16 -16h-535v-645h688v125q0 6 5 11t12 5q16 0 16 -16v-142 q0 -16 -16 -16h-871q-6 0 -11 5t-5 11zM530 1718q-18 18 0 33q17 14 31 -4l207 -244q10 -10 0 -20q-10 -8 -20 2z" />
<glyph unicode="&#xc9;" horiz-adv-x="1140" d="M131 16q0 6 5 11.5t11 5.5h129v1313h-129q-6 0 -11 5t-5 11t5 11t11 5h844q8 0 13.5 -5.5t5.5 -12.5v-139q0 -6 -5 -11.5t-12 -5.5q-6 0 -11 5.5t-5 11.5v125h-664v-635h535q7 0 11.5 -5.5t4.5 -11.5q0 -16 -16 -16h-535v-645h688v125q0 6 5 11t12 5q16 0 16 -16v-142 q0 -16 -16 -16h-871q-6 0 -11 5t-5 11zM547 1483q-10 10 0 20l207 244q14 17 30 4q18 -15 0 -33l-217 -233q-10 -10 -20 -2z" />
<glyph unicode="&#xca;" horiz-adv-x="1140" d="M131 16q0 6 5 11.5t11 5.5h129v1313h-129q-6 0 -11 5t-5 11t5 11t11 5h844q8 0 13.5 -5.5t5.5 -12.5v-139q0 -6 -5 -11.5t-12 -5.5q-6 0 -11 5.5t-5 11.5v125h-664v-635h535q7 0 11.5 -5.5t4.5 -11.5q0 -16 -16 -16h-535v-645h688v125q0 6 5 11t12 5q16 0 16 -16v-142 q0 -16 -16 -16h-871q-6 0 -11 5t-5 11zM422 1499q0 9 10 17l207 163q12 9 18 9q7 0 19 -9l207 -163q10 -8 10 -17q0 -6 -5 -11t-11 -5q-9 0 -15 6l-205 164l-204 -164q-6 -6 -15 -6q-6 0 -11 5t-5 11z" />
<glyph unicode="&#xcb;" horiz-adv-x="1140" d="M131 16q0 6 5 11.5t11 5.5h129v1313h-129q-6 0 -11 5t-5 11t5 11t11 5h844q8 0 13.5 -5.5t5.5 -12.5v-139q0 -6 -5 -11.5t-12 -5.5q-6 0 -11 5.5t-5 11.5v125h-664v-635h535q7 0 11.5 -5.5t4.5 -11.5q0 -16 -16 -16h-535v-645h688v125q0 6 5 11t12 5q16 0 16 -16v-142 q0 -16 -16 -16h-871q-6 0 -11 5t-5 11zM502 1583q0 18 6.5 25.5t23.5 7.5q31 0 31 -33t-31 -33q-17 0 -23.5 7.5t-6.5 25.5zM752 1583q0 18 6.5 25.5t23.5 7.5q31 0 31 -33t-31 -33q-17 0 -23.5 7.5t-6.5 25.5z" />
<glyph unicode="&#xcc;" horiz-adv-x="589" d="M131 16q0 6 5 11.5t11 5.5h129v1313h-129q-6 0 -11 5t-5 11t5 11t11 5h295q6 0 11.5 -5t5.5 -11t-5.5 -11t-11.5 -5h-129v-1313h129q6 0 11.5 -5.5t5.5 -11.5t-5.5 -11t-11.5 -5h-295q-6 0 -11 5t-5 11zM131 1718q-18 18 0 33q17 14 31 -4l207 -244q10 -10 0 -20 q-11 -8 -21 2z" />
<glyph unicode="&#xcd;" horiz-adv-x="589" d="M131 16q0 6 5 11.5t11 5.5h129v1313h-129q-6 0 -11 5t-5 11t5 11t11 5h295q6 0 11.5 -5t5.5 -11t-5.5 -11t-11.5 -5h-129v-1313h129q6 0 11.5 -5.5t5.5 -11.5t-5.5 -11t-11.5 -5h-295q-6 0 -11 5t-5 11zM238 1483q-10 10 0 20l206 244q14 18 31 4q18 -15 0 -33l-217 -233 q-10 -10 -20 -2z" />
<glyph unicode="&#xce;" horiz-adv-x="589" d="M59 1497q0 8 11 16l206 164q12 9 19 9q6 0 18 -9l207 -164q10 -8 10 -16q0 -6 -5 -11t-11 -5q-8 0 -14 6l-205 164l-205 -164q-6 -6 -14 -6q-6 0 -11.5 5t-5.5 11zM131 16q0 6 5 11.5t11 5.5h129v1313h-129q-6 0 -11 5t-5 11t5 11t11 5h295q6 0 11.5 -5t5.5 -11t-5.5 -11 t-11.5 -5h-129v-1313h129q6 0 11.5 -5.5t5.5 -11.5t-5.5 -11t-11.5 -5h-295q-6 0 -11 5t-5 11z" />
<glyph unicode="&#xcf;" horiz-adv-x="589" d="M131 16q0 6 5 11.5t11 5.5h129v1313h-129q-6 0 -11 5t-5 11t5 11t11 5h295q6 0 11.5 -5t5.5 -11t-5.5 -11t-11.5 -5h-129v-1313h129q6 0 11.5 -5.5t5.5 -11.5t-5.5 -11t-11.5 -5h-295q-6 0 -11 5t-5 11zM135 1583q0 33 31 33t31 -33t-31 -33t-31 33zM385 1583q0 33 31 33 q30 0 30 -33t-30 -33q-31 0 -31 33z" />
<glyph unicode="&#xd0;" horiz-adv-x="1355" d="M121 717q0 16 16 16h139v613h-129q-6 0 -11 5t-5 11t5 11t11 5h449q150 0 262.5 -37t194 -117.5t123 -214.5t41.5 -321t-41.5 -320.5t-123 -213.5t-193.5 -117t-263 -37h-449q-6 0 -11 5t-5 11t5 11.5t11 5.5h129v667h-139q-7 0 -11.5 5.5t-4.5 11.5zM313 33h283 q141 0 246.5 35t182.5 111.5t116 203.5t39 305q0 176 -39 303.5t-116 205t-182.5 113.5t-246.5 36h-283v-613h410q16 0 16 -16q0 -6 -4.5 -11.5t-11.5 -5.5h-410v-667z" />
<glyph unicode="&#xd1;" horiz-adv-x="1460" d="M131 16q0 6 5 11.5t11 5.5h129v1313h-129q-6 0 -11 5t-5 11t5 11t11 5h156q11 0 16 -8l840 -1304v1280h-129q-6 0 -11 5t-5 11t5 11t11 5h295q6 0 11 -5t5 -11t-5 -11t-11 -5h-129v-1344q0 -8 -5 -13t-13 -5q-12 0 -19 10l-846 1319v-1280h129q6 0 11.5 -5.5t5.5 -11.5 t-5.5 -11t-11.5 -5h-295q-6 0 -11 5t-5 11zM485 1524q0 6 4 14q41 88 140 88q47 0 92 -21.5t87 -43t83 -21.5t64 17t42 53q8 16 21 16q16 0 16 -16q0 -7 -4 -15q-41 -88 -139 -88q-47 0 -92 21.5t-87.5 43t-82.5 21.5q-41 0 -65 -16.5t-42 -52.5q-8 -17 -20 -17 q-7 0 -12 5.5t-5 11.5z" />
<glyph unicode="&#xd2;" horiz-adv-x="1507" d="M137 688q0 359 158.5 539t458.5 180t458 -180t158 -539q0 -358 -158 -537.5t-458 -179.5t-458.5 179.5t-158.5 537.5zM174 688q0 -339 147.5 -511.5t432.5 -172.5t432 172.5t147 511.5q0 340 -147 513t-432 173t-432.5 -173t-147.5 -513zM612 1718q-18 18 0 33 q17 14 31 -4l207 -244q10 -10 0 -20q-11 -8 -21 2z" />
<glyph unicode="&#xd3;" horiz-adv-x="1507" d="M137 688q0 359 158.5 539t458.5 180t458 -180t158 -539q0 -358 -158 -537.5t-458 -179.5t-458.5 179.5t-158.5 537.5zM174 688q0 -339 147.5 -511.5t432.5 -172.5t432 172.5t147 511.5q0 340 -147 513t-432 173t-432.5 -173t-147.5 -513zM686 1483q-10 10 0 20l207 244 q14 18 31 4q18 -15 0 -33l-217 -233q-10 -10 -21 -2z" />
<glyph unicode="&#xd4;" horiz-adv-x="1507" d="M137 688q0 359 158.5 539t458.5 180t458 -180t158 -539q0 -358 -158 -537.5t-458 -179.5t-458.5 179.5t-158.5 537.5zM174 688q0 -339 147.5 -511.5t432.5 -172.5t432 172.5t147 511.5q0 340 -147 513t-432 173t-432.5 -173t-147.5 -513zM518 1497q0 9 10 16l207 164 q12 9 19 9q6 0 18 -9l207 -164q10 -8 10 -16q0 -6 -5 -11t-11 -5q-9 0 -15 6l-204 164l-205 -164q-6 -6 -14 -6q-6 0 -11.5 5t-5.5 11z" />
<glyph unicode="&#xd5;" horiz-adv-x="1507" d="M137 688q0 359 158.5 539t458.5 180t458 -180t158 -539q0 -358 -158 -537.5t-458 -179.5t-458.5 179.5t-158.5 537.5zM174 688q0 -339 147.5 -511.5t432.5 -172.5t432 172.5t147 511.5q0 340 -147 513t-432 173t-432.5 -173t-147.5 -513zM479 1524q0 6 4 14q41 88 140 88 q47 0 92 -21.5t87 -43t83 -21.5t64 17t42 53q8 16 21 16q16 0 16 -16q0 -7 -4 -15q-41 -88 -139 -88q-47 0 -92 21.5t-87.5 43t-82.5 21.5q-41 0 -65 -16.5t-42 -52.5q-8 -17 -20 -17q-7 0 -12 5.5t-5 11.5z" />
<glyph unicode="&#xd6;" horiz-adv-x="1507" d="M137 688q0 359 158.5 539t458.5 180t458 -180t158 -539q0 -358 -158 -537.5t-458 -179.5t-458.5 179.5t-158.5 537.5zM174 688q0 -339 147.5 -511.5t432.5 -172.5t432 172.5t147 511.5q0 340 -147 513t-432 173t-432.5 -173t-147.5 -513zM604 1583q0 33 31 33t31 -33 t-31 -33t-31 33zM854 1583q0 33 31 33q30 0 30 -33t-30 -33q-31 0 -31 33z" />
<glyph unicode="&#xd7;" horiz-adv-x="1009" d="M154 119q0 9 8 14l317 313l-317 314q-8 5 -8 14q0 8 5.5 13.5t12.5 5.5t14 -7l318 -315l319 315q7 7 15 7q7 0 12.5 -5.5t5.5 -13.5q0 -9 -8 -14l-318 -314l318 -313q8 -5 8 -14q0 -8 -5.5 -13.5t-12.5 -5.5q-9 0 -15 6l-319 314l-318 -314q-6 -6 -14 -6q-7 0 -12.5 5.5 t-5.5 13.5z" />
<glyph unicode="&#xd8;" horiz-adv-x="1517" d="M147 -31q0 8 5 13l143 182q-148 183 -148 524q0 359 158.5 539t458.5 180q251 0 405 -127l107 135q9 12 18 12q19 0 19 -16q0 -8 -8 -18l-109 -138q184 -181 184 -567q0 -358 -158 -537.5t-458 -179.5q-291 0 -445 164l-137 -174q-10 -10 -16 -10q-8 0 -13.5 5.5 t-5.5 12.5zM184 688q0 -321 133 -495l830 1058q-144 123 -383 123q-285 0 -432.5 -173t-147.5 -513zM342 164q145 -160 422 -160q285 0 432 172.5t147 511.5q0 365 -169 537z" />
<glyph unicode="&#xd9;" horiz-adv-x="1406" d="M102 1362q0 6 5.5 11t11.5 5h305q6 0 11 -5t5 -11t-5 -11t-11 -5h-139v-965q0 -66 10 -118.5t38.5 -102.5t74.5 -83t122 -53t177 -20t176.5 20t120.5 53t72 83.5t36.5 102t9.5 118.5v965h-139q-6 0 -11 5t-5 11t5 11t11 5h305q6 0 11.5 -5t5.5 -11t-5.5 -11t-11.5 -5 h-129v-965q0 -70 -10.5 -126.5t-40.5 -111t-79 -91t-130.5 -59t-191.5 -22.5t-192.5 22.5t-132.5 59t-81 91t-42 111t-11 126.5v965h-129q-6 0 -11.5 5t-5.5 11zM590 1718q-18 18 0 33q17 14 31 -4l206 -244q10 -10 0 -20q-10 -8 -20 2z" />
<glyph unicode="&#xda;" horiz-adv-x="1406" d="M102 1362q0 6 5.5 11t11.5 5h305q6 0 11 -5t5 -11t-5 -11t-11 -5h-139v-965q0 -66 10 -118.5t38.5 -102.5t74.5 -83t122 -53t177 -20t176.5 20t120.5 53t72 83.5t36.5 102t9.5 118.5v965h-139q-6 0 -11 5t-5 11t5 11t11 5h305q6 0 11.5 -5t5.5 -11t-5.5 -11t-11.5 -5 h-129v-965q0 -70 -10.5 -126.5t-40.5 -111t-79 -91t-130.5 -59t-191.5 -22.5t-192.5 22.5t-132.5 59t-81 91t-42 111t-11 126.5v965h-129q-6 0 -11.5 5t-5.5 11zM614 1483q-10 10 0 20l207 244q14 18 31 4q18 -15 0 -33l-217 -233q-10 -10 -21 -2z" />
<glyph unicode="&#xdb;" horiz-adv-x="1406" d="M102 1362q0 6 5.5 11t11.5 5h305q6 0 11 -5t5 -11t-5 -11t-11 -5h-139v-965q0 -66 10 -118.5t38.5 -102.5t74.5 -83t122 -53t177 -20t176.5 20t120.5 53t72 83.5t36.5 102t9.5 118.5v965h-139q-6 0 -11 5t-5 11t5 11t11 5h305q6 0 11.5 -5t5.5 -11t-5.5 -11t-11.5 -5 h-129v-965q0 -70 -10.5 -126.5t-40.5 -111t-79 -91t-130.5 -59t-191.5 -22.5t-192.5 22.5t-132.5 59t-81 91t-42 111t-11 126.5v965h-129q-6 0 -11.5 5t-5.5 11zM475 1497q0 9 10 16l207 164q12 9 19 9q6 0 18 -9l207 -164q10 -8 10 -16q0 -6 -5 -11t-11 -5q-9 0 -15 6 l-204 164l-205 -164q-6 -6 -14 -6q-6 0 -11.5 5t-5.5 11z" />
<glyph unicode="&#xdc;" horiz-adv-x="1406" d="M102 1362q0 6 5.5 11t11.5 5h305q6 0 11 -5t5 -11t-5 -11t-11 -5h-139v-965q0 -66 10 -118.5t38.5 -102.5t74.5 -83t122 -53t177 -20t176.5 20t120.5 53t72 83.5t36.5 102t9.5 118.5v965h-139q-6 0 -11 5t-5 11t5 11t11 5h305q6 0 11.5 -5t5.5 -11t-5.5 -11t-11.5 -5 h-129v-965q0 -70 -10.5 -126.5t-40.5 -111t-79 -91t-130.5 -59t-191.5 -22.5t-192.5 22.5t-132.5 59t-81 91t-42 111t-11 126.5v965h-129q-6 0 -11.5 5t-5.5 11zM549 1583q0 33 31 33q30 0 30 -33t-30 -33q-31 0 -31 33zM799 1583q0 18 6.5 25.5t23.5 7.5q31 0 31 -33 t-31 -33q-17 0 -23.5 7.5t-6.5 25.5z" />
<glyph unicode="&#xdd;" horiz-adv-x="1191" d="M20 1362q0 6 5.5 11t11.5 5h305q6 0 11 -5t5 -11t-5 -11t-11 -5h-149l403 -641l403 641h-149q-6 0 -11 5t-5 11t5 11t11 5h305q6 0 11 -5t5 -11t-5 -11t-11 -5h-113l-428 -680v-633h150q6 0 11 -5.5t5 -11.5t-5 -11t-11 -5h-336q-6 0 -11 5t-5 11t5 11.5t11 5.5h150v633 l-431 680h-110q-6 0 -11.5 5t-5.5 11zM520 1483q-10 10 0 20l207 244q14 18 31 4q18 -15 0 -33l-217 -233q-10 -10 -21 -2z" />
<glyph unicode="&#xde;" horiz-adv-x="1173" d="M131 16q0 6 5 11.5t11 5.5h129v1313h-129q-6 0 -11 5t-5 11t5 11t11 5h295q6 0 11.5 -5t5.5 -11t-5.5 -11t-11.5 -5h-129v-256h396q168 0 267 -98t99 -287q0 -187 -99 -286.5t-267 -99.5h-396v-286h129q6 0 11.5 -5.5t5.5 -11.5t-5.5 -11t-11.5 -5h-295q-6 0 -11 5t-5 11 zM313 352h396q154 0 241.5 95t87.5 258q0 165 -86.5 258.5t-242.5 93.5h-396v-705z" />
<glyph unicode="&#xdf;" horiz-adv-x="1124" d="M70 16q0 6 5 11.5t11 5.5h137v1085q0 157 73.5 249.5t225.5 92.5q113 0 185.5 -65.5t72.5 -161.5q0 -54 -17.5 -99t-45 -76t-60.5 -58t-66.5 -52t-61 -51t-45 -61.5t-17.5 -77.5q0 -47 19.5 -84.5t53 -62.5t76 -45t90.5 -37t95.5 -35t90 -41t76 -52.5t53 -73.5t19.5 -100 q0 -125 -89.5 -189.5t-237.5 -64.5q-196 0 -330 144q-6 6 -6 12q0 16 16 16q7 0 15 -8q127 -131 305 -131q134 0 212.5 56t78.5 165q0 64 -31.5 111.5t-82.5 75.5t-112 51t-122 46.5t-112 52.5t-82.5 78.5t-31.5 115.5q0 47 17.5 86t45 66.5t60.5 53t66.5 51.5t61 55 t45 70.5t17.5 92.5q0 88 -63.5 141t-157.5 53q-130 0 -196 -80t-66 -229v-1102q0 -16 -16 -16h-158q-6 0 -11 5t-5 11z" />
<glyph unicode="&#xe0;" horiz-adv-x="1028" d="M104 254q0 132 94 204t251 72h342v107q0 138 -81.5 213.5t-224.5 75.5q-205 0 -292 -148q-3 -12 -19 -12q-6 0 -11 5t-5 11q0 3 1 5.5t2.5 6t2.5 5.5q94 159 321 159q166 0 253 -86t87 -235v-604h138q6 0 11 -5.5t5 -11.5t-5 -11t-11 -5h-156q-16 0 -16 16v136 q-40 -87 -134 -133t-213 -46q-167 0 -253.5 77t-86.5 204zM141 254q0 -113 79 -180.5t224 -67.5q93 0 169.5 28t127 92.5t50.5 156.5v217h-342q-138 0 -223 -65.5t-85 -180.5zM373 1300q-18 18 0 33q16 13 30 -4l207 -244q10 -10 0 -20q-10 -8 -20 2z" />
<glyph unicode="&#xe1;" horiz-adv-x="1028" d="M104 254q0 132 94 204t251 72h342v107q0 138 -81.5 213.5t-224.5 75.5q-205 0 -292 -148q-3 -12 -19 -12q-6 0 -11 5t-5 11q0 3 1 5.5t2.5 6t2.5 5.5q94 159 321 159q166 0 253 -86t87 -235v-604h138q6 0 11 -5.5t5 -11.5t-5 -11t-11 -5h-156q-16 0 -16 16v136 q-40 -87 -134 -133t-213 -46q-167 0 -253.5 77t-86.5 204zM141 254q0 -113 79 -180.5t224 -67.5q93 0 169.5 28t127 92.5t50.5 156.5v217h-342q-138 0 -223 -65.5t-85 -180.5zM430 1067q-10 10 0 20l207 244q14 18 31 4q17 -15 0 -32l-217 -234q-10 -10 -21 -2z" />
<glyph unicode="&#xe2;" horiz-adv-x="1028" d="M104 254q0 132 94 204t251 72h342v107q0 138 -81.5 213.5t-224.5 75.5q-205 0 -292 -148q-3 -12 -19 -12q-6 0 -11 5t-5 11q0 3 1 5.5t2.5 6t2.5 5.5q94 159 321 159q166 0 253 -86t87 -235v-604h138q6 0 11 -5.5t5 -11.5t-5 -11t-11 -5h-156q-16 0 -16 16v136 q-40 -87 -134 -133t-213 -46q-167 0 -253.5 77t-86.5 204zM141 254q0 -113 79 -180.5t224 -67.5q93 0 169.5 28t127 92.5t50.5 156.5v217h-342q-138 0 -223 -65.5t-85 -180.5zM254 1096q0 8 10 16l207 164q11 8 18 8q8 0 19 -8l207 -164q10 -8 10 -16q0 -6 -5 -11.5 t-11 -5.5q-9 0 -15 6l-205 164l-204 -164q-6 -6 -15 -6q-6 0 -11 5.5t-5 11.5z" />
<glyph unicode="&#xe3;" horiz-adv-x="1028" d="M104 254q0 132 94 204t251 72h342v107q0 138 -81.5 213.5t-224.5 75.5q-205 0 -292 -148q-3 -12 -19 -12q-6 0 -11 5t-5 11q0 3 1 5.5t2.5 6t2.5 5.5q94 159 321 159q166 0 253 -86t87 -235v-604h138q6 0 11 -5.5t5 -11.5t-5 -11t-11 -5h-156q-16 0 -16 16v136 q-40 -87 -134 -133t-213 -46q-167 0 -253.5 77t-86.5 204zM141 254q0 -113 79 -180.5t224 -67.5q93 0 169.5 28t127 92.5t50.5 156.5v217h-342q-138 0 -223 -65.5t-85 -180.5zM219 1110q0 6 4 14q41 88 139 88q47 0 92 -21.5t87.5 -43t83.5 -21.5t64 17t42 53q8 16 21 16 q16 0 16 -16q0 -6 -4 -14q-41 -88 -139 -88q-47 0 -92.5 21.5t-88 43t-82.5 21.5q-41 0 -64 -17t-42 -53q-8 -16 -20 -16q-7 0 -12 5t-5 11z" />
<glyph unicode="&#xe4;" horiz-adv-x="1028" d="M104 254q0 132 94 204t251 72h342v107q0 138 -81.5 213.5t-224.5 75.5q-205 0 -292 -148q-3 -12 -19 -12q-6 0 -11 5t-5 11q0 3 1 5.5t2.5 6t2.5 5.5q94 159 321 159q166 0 253 -86t87 -235v-604h138q6 0 11 -5.5t5 -11.5t-5 -11t-11 -5h-156q-16 0 -16 16v136 q-40 -87 -134 -133t-213 -46q-167 0 -253.5 77t-86.5 204zM141 254q0 -113 79 -180.5t224 -67.5q93 0 169.5 28t127 92.5t50.5 156.5v217h-342q-138 0 -223 -65.5t-85 -180.5zM346 1161q0 33 31 33t31 -33t-31 -33t-31 33zM596 1161q0 33 31 33q30 0 30 -33t-30 -33 q-31 0 -31 33z" />
<glyph unicode="&#xe5;" horiz-adv-x="1028" d="M104 254q0 132 94 204t251 72h342v107q0 138 -81.5 213.5t-224.5 75.5q-205 0 -292 -148q-3 -12 -19 -12q-6 0 -11 5t-5 11q0 3 1 5.5t2.5 6t2.5 5.5q94 159 321 159q166 0 253 -86t87 -235v-604h138q6 0 11 -5.5t5 -11.5t-5 -11t-11 -5h-156q-16 0 -16 16v136 q-40 -87 -134 -133t-213 -46q-167 0 -253.5 77t-86.5 204zM141 254q0 -113 79 -180.5t224 -67.5q93 0 169.5 28t127 92.5t50.5 156.5v217h-342q-138 0 -223 -65.5t-85 -180.5zM301 1233q0 93 51 143.5t154 50.5t154 -50.5t51 -143.5t-51 -144t-154 -51t-154 51t-51 144z M334 1233q0 -164 172 -164t172 164t-172 164t-172 -164z" />
<glyph unicode="&#xe6;" horiz-adv-x="1683" d="M104 248q0 130 93.5 200t251.5 70h342v119q0 138 -81.5 213.5t-224.5 75.5q-116 0 -182.5 -33t-109.5 -94q-10 -13 -19 -13q-6 0 -11 5.5t-5 11.5q0 7 6 16q99 139 321 139q146 0 230.5 -67t103.5 -186q40 129 133 191t246 62q97 0 169 -29t110.5 -70.5t61 -99.5 t28.5 -103t6 -95q0 -76 -39 -76h-707q0 -479 371 -479q174 0 311 100q13 9 17 9q6 0 11 -5t5 -12q0 -6 -6 -12q-139 -113 -338 -113q-160 0 -256.5 81t-122.5 216q-20 -131 -113 -213t-262 -82q-166 0 -253 74.5t-87 198.5zM141 248q0 -112 78 -176t225 -64q69 0 129.5 18.5 t110 56t78.5 101t29 146.5v157h-342q-139 0 -223.5 -62.5t-84.5 -176.5zM829 518h707q2 33 2 49q0 54 -8 101t-30.5 96t-59 83.5t-98.5 56.5t-144 22q-185 0 -277 -101t-92 -307z" />
<glyph unicode="&#xe7;" horiz-adv-x="923" d="M123 465q0 493 407 493q58 0 108.5 -11.5t86 -30.5t57 -35t37.5 -33q8 -8 8 -14t-4.5 -11.5t-11.5 -5.5q-8 0 -14 6q-103 103 -267 103q-187 0 -278.5 -113.5t-91.5 -347.5q0 -231 92 -345t278 -114q152 0 281 103q2 1 6.5 3.5t7.5 2.5q7 0 12 -5.5t5 -11.5q0 -8 -11 -16 q-24 -20 -54 -40t-101.5 -44.5t-145.5 -24.5q-18 0 -34 2l-4 -73q28 10 61 10q78 0 122 -34t44 -95q0 -67 -46.5 -106t-137.5 -39q-36 0 -72 12.5t-49 23.5q-6 6 -6 15q0 16 14 16q5 0 14 -6q41 -29 99 -29q147 0 147 113q0 50 -38.5 73t-92.5 23q-23 0 -46 -6t-26 -6 q-16 0 -16 18l4 92q-344 35 -344 488z" />
<glyph unicode="&#xe8;" horiz-adv-x="1017" d="M123 467q0 491 407 491q97 0 169 -28.5t110.5 -69t61 -98t28.5 -101.5t6 -94q0 -43 -6 -80q-5 -24 -33 -24h-706q0 -457 370 -457q175 0 312 100q13 9 16 9q6 0 11 -5t5 -12q0 -6 -6 -12q-139 -113 -338 -113q-407 0 -407 494zM162 496h704q4 32 4 71q0 54 -8 101 t-30.5 96t-59 83.5t-98.5 56.5t-144 22q-183 0 -275.5 -110.5t-92.5 -319.5zM391 1300q-18 18 0 33q17 14 31 -4l207 -244q10 -10 0 -20q-11 -8 -21 2z" />
<glyph unicode="&#xe9;" horiz-adv-x="1017" d="M123 467q0 491 407 491q97 0 169 -28.5t110.5 -69t61 -98t28.5 -101.5t6 -94q0 -43 -6 -80q-5 -24 -33 -24h-706q0 -457 370 -457q175 0 312 100q13 9 16 9q6 0 11 -5t5 -12q0 -6 -6 -12q-139 -113 -338 -113q-407 0 -407 494zM162 496h704q4 32 4 71q0 54 -8 101 t-30.5 96t-59 83.5t-98.5 56.5t-144 22q-183 0 -275.5 -110.5t-92.5 -319.5zM463 1065q-10 10 0 20l207 244q14 17 30 4q18 -15 0 -33l-217 -233q-10 -10 -20 -2z" />
<glyph unicode="&#xea;" horiz-adv-x="1017" d="M123 467q0 491 407 491q97 0 169 -28.5t110.5 -69t61 -98t28.5 -101.5t6 -94q0 -43 -6 -80q-5 -24 -33 -24h-706q0 -457 370 -457q175 0 312 100q13 9 16 9q6 0 11 -5t5 -12q0 -6 -6 -12q-139 -113 -338 -113q-407 0 -407 494zM162 496h704q4 32 4 71q0 54 -8 101 t-30.5 96t-59 83.5t-98.5 56.5t-144 22q-183 0 -275.5 -110.5t-92.5 -319.5zM305 1096q0 8 10 16l207 164q11 8 19 8q7 0 18 -8l207 -164q10 -8 10 -16q0 -6 -5 -11.5t-11 -5.5q-9 0 -15 6l-204 164l-205 -164q-6 -6 -14 -6q-6 0 -11.5 5.5t-5.5 11.5z" />
<glyph unicode="&#xeb;" horiz-adv-x="1017" d="M123 467q0 491 407 491q97 0 169 -28.5t110.5 -69t61 -98t28.5 -101.5t6 -94q0 -43 -6 -80q-5 -24 -33 -24h-706q0 -457 370 -457q175 0 312 100q13 9 16 9q6 0 11 -5t5 -12q0 -6 -6 -12q-139 -113 -338 -113q-407 0 -407 494zM162 496h704q4 32 4 71q0 54 -8 101 t-30.5 96t-59 83.5t-98.5 56.5t-144 22q-183 0 -275.5 -110.5t-92.5 -319.5zM377 1161q0 33 31 33q30 0 30 -33t-30 -33q-31 0 -31 33zM627 1161q0 18 6.5 25.5t23.5 7.5q31 0 31 -33t-31 -33q-17 0 -23.5 7.5t-6.5 25.5z" />
<glyph unicode="&#xec;" horiz-adv-x="512" d="M82 1300q-18 18 0 33q17 14 31 -4l206 -244q10 -10 0 -20q-10 -8 -20 2zM90 16q0 6 5 11.5t11 5.5h138v864h-138q-6 0 -11 5t-5 11t5 11.5t11 5.5h156q8 0 13.5 -6t5.5 -13v-878h137q6 0 11 -5.5t5 -11.5t-5 -11t-11 -5h-312q-6 0 -11 5t-5 11z" />
<glyph unicode="&#xed;" horiz-adv-x="512" d="M90 16q0 6 5 11.5t11 5.5h138v864h-138q-6 0 -11 5t-5 11t5 11.5t11 5.5h156q8 0 13.5 -6t5.5 -13v-878h137q6 0 11 -5.5t5 -11.5t-5 -11t-11 -5h-312q-6 0 -11 5t-5 11zM213 1065q-10 10 0 20l207 244q14 18 31 4q18 -15 0 -33l-218 -233q-10 -10 -20 -2z" />
<glyph unicode="&#xee;" horiz-adv-x="512" d="M25 1096q0 8 10 16l207 164q11 8 18 8q8 0 19 -8l206 -164q11 -8 11 -16q0 -6 -5.5 -11.5t-11.5 -5.5q-8 0 -14 6l-205 164l-205 -164q-6 -6 -14 -6q-6 0 -11 5.5t-5 11.5zM90 16q0 6 5 11.5t11 5.5h138v864h-138q-6 0 -11 5t-5 11t5 11.5t11 5.5h156q8 0 13.5 -6 t5.5 -13v-878h137q6 0 11 -5.5t5 -11.5t-5 -11t-11 -5h-312q-6 0 -11 5t-5 11z" />
<glyph unicode="&#xef;" horiz-adv-x="512" d="M90 16q0 6 5 11.5t11 5.5h138v864h-138q-6 0 -11 5t-5 11t5 11.5t11 5.5h156q8 0 13.5 -6t5.5 -13v-878h137q6 0 11 -5.5t5 -11.5t-5 -11t-11 -5h-312q-6 0 -11 5t-5 11zM102 1161q0 33 31 33t31 -33t-31 -33t-31 33zM352 1161q0 33 31 33t31 -33t-31 -33t-31 33z" />
<glyph unicode="&#xf0;" horiz-adv-x="1091" d="M123 465q0 493 407 493q258 0 351 -196q-29 132 -94 262t-138 207l-157 -103l-11 -4q-7 0 -11.5 5.5t-4.5 11.5q0 10 12 18l150 96q-95 102 -230 170q-12 6 -12 19q0 14 14 14q9 0 17 -4q129 -64 239 -178l127 82q6 4 13 4t10.5 -5t3.5 -9q0 -12 -10 -19l-121 -78 q129 -151 194.5 -335.5t65.5 -450.5q0 -492 -408 -492q-407 0 -407 492zM160 465q0 -232 92.5 -345.5t277.5 -113.5q371 0 371 459q0 461 -371 461q-185 0 -277.5 -113.5t-92.5 -347.5z" />
<glyph unicode="&#xf1;" horiz-adv-x="1155" d="M82 16q0 6 5 11.5t11 5.5h138v864h-138q-6 0 -11 5t-5 11t5 11.5t11 5.5h156q7 0 12.5 -5.5t5.5 -13.5v-168q12 38 37 74t64.5 68.5t99.5 52.5t131 20q84 0 147 -20t100.5 -52.5t61 -81t31.5 -98t8 -110.5v-563h138q6 0 11 -5.5t5 -11.5t-5 -11t-11 -5h-312q-6 0 -11 5 t-5 11t5 11.5t11 5.5h137v581q0 67 -14 119.5t-47 97t-96.5 69t-153.5 24.5q-80 0 -145 -28t-105 -75t-61 -104.5t-21 -118.5v-565h138q6 0 11 -5.5t5 -11.5t-5 -11t-11 -5h-312q-6 0 -11 5t-5 11zM352 1110q0 6 4 14q41 88 140 88q47 0 92 -21.5t87 -43t83 -21.5t64 17 t42 53q8 16 21 16q16 0 16 -16q0 -6 -4 -14q-41 -88 -139 -88q-47 0 -92 21.5t-87.5 43t-82.5 21.5q-41 0 -65 -17t-42 -53q-8 -16 -20 -16q-7 0 -12 5t-5 11z" />
<glyph unicode="&#xf2;" horiz-adv-x="1060" d="M123 465q0 493 407 493q408 0 408 -493q0 -492 -408 -492q-407 0 -407 492zM160 465q0 -232 92.5 -345.5t277.5 -113.5q371 0 371 459q0 461 -371 461q-185 0 -277.5 -113.5t-92.5 -347.5zM401 1300q-18 18 0 33q17 14 31 -4l207 -244q10 -10 0 -20q-11 -8 -21 2z" />
<glyph unicode="&#xf3;" horiz-adv-x="1060" d="M123 465q0 493 407 493q408 0 408 -493q0 -492 -408 -492q-407 0 -407 492zM160 465q0 -232 92.5 -345.5t277.5 -113.5q371 0 371 459q0 461 -371 461q-185 0 -277.5 -113.5t-92.5 -347.5zM457 1065q-10 10 0 20l207 244q14 17 30 4q18 -15 0 -33l-217 -233 q-10 -10 -20 -2z" />
<glyph unicode="&#xf4;" horiz-adv-x="1060" d="M123 465q0 493 407 493q408 0 408 -493q0 -492 -408 -492q-407 0 -407 492zM160 465q0 -232 92.5 -345.5t277.5 -113.5q371 0 371 459q0 461 -371 461q-185 0 -277.5 -113.5t-92.5 -347.5zM301 1096q0 8 10 16l207 164q11 8 19 8q7 0 18 -8l207 -164q10 -8 10 -16 q0 -6 -5 -11.5t-11 -5.5q-9 0 -15 6l-204 164l-205 -164q-6 -6 -15 -6q-6 0 -11 5.5t-5 11.5z" />
<glyph unicode="&#xf5;" horiz-adv-x="1060" d="M123 465q0 493 407 493q408 0 408 -493q0 -492 -408 -492q-407 0 -407 492zM160 465q0 -232 92.5 -345.5t277.5 -113.5q371 0 371 459q0 461 -371 461q-185 0 -277.5 -113.5t-92.5 -347.5zM270 1110q0 6 4 14q41 88 140 88q47 0 92 -21.5t87 -43t83 -21.5t64 17t42 53 q8 16 21 16q16 0 16 -16q0 -6 -4 -14q-41 -88 -139 -88q-47 0 -92 21.5t-87.5 43t-82.5 21.5q-41 0 -65 -17t-42 -53q-8 -16 -20 -16q-7 0 -12 5t-5 11z" />
<glyph unicode="&#xf6;" horiz-adv-x="1060" d="M123 465q0 493 407 493q408 0 408 -493q0 -492 -408 -492q-407 0 -407 492zM160 465q0 -232 92.5 -345.5t277.5 -113.5q371 0 371 459q0 461 -371 461q-185 0 -277.5 -113.5t-92.5 -347.5zM373 1161q0 18 6.5 25.5t23.5 7.5q31 0 31 -33t-31 -33q-17 0 -23.5 7.5 t-6.5 25.5zM623 1161q0 18 6.5 25.5t23.5 7.5q31 0 31 -33t-31 -33q-17 0 -23.5 7.5t-6.5 25.5z" />
<glyph unicode="&#xf7;" horiz-adv-x="1212" d="M170 446q0 6 4.5 11.5t11.5 5.5h840q7 0 11.5 -5.5t4.5 -11.5q0 -16 -16 -16h-840q-16 0 -16 16zM569 197q0 14 11 25t26 11t26 -11t11 -25q0 -17 -11 -28t-26 -11t-26 11t-11 28zM569 696q0 15 11 26t26 11t26 -11t11 -26t-11 -26t-26 -11t-26 11t-11 26z" />
<glyph unicode="&#xf8;" horiz-adv-x="1093" d="M100 8q0 9 9 15l104 112q-74 118 -74 330q0 493 408 493q208 0 311 -133l103 111q6 6 14 6q18 0 18 -16q0 -9 -8 -17l-106 -114q75 -122 75 -330q0 -492 -407 -492q-210 0 -314 131l-100 -108q-6 -6 -14 -6t-13.5 5.5t-5.5 12.5zM176 465q0 -193 64 -303l594 637 q-92 127 -287 127q-371 0 -371 -461zM258 131q91 -125 289 -125q371 0 371 459q0 187 -64 303z" />
<glyph unicode="&#xf9;" horiz-adv-x="1142" d="M49 913q0 6 5.5 11.5t11.5 5.5h155q7 0 13 -6t6 -13v-594q0 -309 317 -309q74 0 131.5 17.5t93.5 47t59 71t32.5 86t9.5 96.5v571h-138q-6 0 -11 5t-5 11t5 11.5t11 5.5h156q7 0 13 -6t6 -13v-878h137q6 0 11 -5.5t5 -11.5t-5 -11t-11 -5h-158q-16 0 -16 16v144 q-40 -91 -117.5 -139t-208.5 -48q-354 0 -354 363v561h-137q-6 0 -11.5 5t-5.5 11zM426 1300q-18 18 0 33q17 14 31 -4l207 -244q10 -10 0 -20q-11 -8 -21 2z" />
<glyph unicode="&#xfa;" horiz-adv-x="1142" d="M49 913q0 6 5.5 11.5t11.5 5.5h155q7 0 13 -6t6 -13v-594q0 -309 317 -309q74 0 131.5 17.5t93.5 47t59 71t32.5 86t9.5 96.5v571h-138q-6 0 -11 5t-5 11t5 11.5t11 5.5h156q7 0 13 -6t6 -13v-878h137q6 0 11 -5.5t5 -11.5t-5 -11t-11 -5h-158q-16 0 -16 16v144 q-40 -91 -117.5 -139t-208.5 -48q-354 0 -354 363v561h-137q-6 0 -11.5 5t-5.5 11zM492 1065q-10 10 0 20l206 244q14 18 31 4q18 -15 0 -33l-217 -233q-10 -10 -20 -2z" />
<glyph unicode="&#xfb;" horiz-adv-x="1142" d="M49 913q0 6 5.5 11.5t11.5 5.5h155q7 0 13 -6t6 -13v-594q0 -309 317 -309q74 0 131.5 17.5t93.5 47t59 71t32.5 86t9.5 96.5v571h-138q-6 0 -11 5t-5 11t5 11.5t11 5.5h156q7 0 13 -6t6 -13v-878h137q6 0 11 -5.5t5 -11.5t-5 -11t-11 -5h-158q-16 0 -16 16v144 q-40 -91 -117.5 -139t-208.5 -48q-354 0 -354 363v561h-137q-6 0 -11.5 5t-5.5 11zM338 1096q0 8 10 16l207 164q11 8 18 8q8 0 19 -8l207 -164q10 -8 10 -16q0 -6 -5 -11.5t-11 -5.5q-9 0 -15 6l-205 164l-204 -164q-6 -6 -15 -6q-6 0 -11 5.5t-5 11.5z" />
<glyph unicode="&#xfc;" horiz-adv-x="1142" d="M49 913q0 6 5.5 11.5t11.5 5.5h155q7 0 13 -6t6 -13v-594q0 -309 317 -309q74 0 131.5 17.5t93.5 47t59 71t32.5 86t9.5 96.5v571h-138q-6 0 -11 5t-5 11t5 11.5t11 5.5h156q7 0 13 -6t6 -13v-878h137q6 0 11 -5.5t5 -11.5t-5 -11t-11 -5h-158q-16 0 -16 16v144 q-40 -91 -117.5 -139t-208.5 -48q-354 0 -354 363v561h-137q-6 0 -11.5 5t-5.5 11zM410 1161q0 18 6.5 25.5t23.5 7.5q31 0 31 -33t-31 -33q-17 0 -23.5 7.5t-6.5 25.5zM659 1161q0 33 31 33t31 -33t-31 -33t-31 33z" />
<glyph unicode="&#xfd;" horiz-adv-x="1036" d="M35 913q0 6 5 11.5t11 5.5h238q6 0 11 -5.5t5 -11.5t-5 -11t-11 -5h-109l338 -856l338 856h-108q-6 0 -11.5 5t-5.5 11t5.5 11.5t11.5 5.5h239q6 0 11.5 -5.5t5.5 -11.5t-5.5 -11t-11.5 -5h-90l-418 -1040q-62 -154 -135 -211.5t-213 -57.5q-7 0 -11.5 5.5t-4.5 11.5 q0 16 16 16q37 0 66.5 4t54.5 10t47 21t38.5 28t34.5 40t31 49t31 63.5t31 73t35 88.5l-361 899h-88q-6 0 -11 5t-5 11zM459 1065q-10 10 0 20l207 244q14 17 30 4q18 -15 0 -33l-217 -233q-10 -10 -20 -2z" />
<glyph unicode="&#xfe;" horiz-adv-x="1093" d="M37 -395q0 6 5 11t11 5h137v1804h-135q-6 0 -11 5.5t-5 11.5t5 11t11 5h156q16 0 16 -16v-727q73 243 348 243q198 0 296 -121.5t98 -371.5t-98 -371t-296 -121q-78 0 -142 24t-99.5 54t-61.5 70t-33.5 59t-11.5 35v-594h158q6 0 11 -5t5 -11t-5 -11.5t-11 -5.5h-332 q-6 0 -11 5.5t-5 11.5zM223 467q0 -228 90 -344.5t262 -116.5q177 0 267 116t90 343q0 461 -357 461q-172 0 -262 -115t-90 -344z" />
<glyph unicode="&#xff;" horiz-adv-x="1036" d="M35 913q0 6 5 11.5t11 5.5h238q6 0 11 -5.5t5 -11.5t-5 -11t-11 -5h-109l338 -856l338 856h-108q-6 0 -11.5 5t-5.5 11t5.5 11.5t11.5 5.5h239q6 0 11.5 -5.5t5.5 -11.5t-5.5 -11t-11.5 -5h-90l-418 -1040q-62 -154 -135 -211.5t-213 -57.5q-7 0 -11.5 5.5t-4.5 11.5 q0 16 16 16q37 0 66.5 4t54.5 10t47 21t38.5 28t34.5 40t31 49t31 63.5t31 73t35 88.5l-361 899h-88q-6 0 -11 5t-5 11zM360 1161q0 33 31 33t31 -33t-31 -33t-31 33zM610 1161q0 33 31 33t31 -33t-31 -33t-31 33z" />
<glyph unicode="&#x152;" horiz-adv-x="1978" d="M137 688q0 359 158.5 539t458.5 180q217 0 360 -94v47q0 18 16 18h701q16 0 16 -16v-141q0 -6 -5 -11.5t-11 -5.5t-11 5.5t-5 11.5v125h-664v-635h535q7 0 11.5 -5.5t4.5 -11.5q0 -16 -16 -16h-535v-645h688v125q0 6 5 11t11 5t11.5 -5t5.5 -11v-142q0 -6 -5 -11t-12 -5 h-725q-16 0 -16 18v48q-145 -95 -360 -95q-300 0 -458.5 179.5t-158.5 537.5zM174 688q0 -339 147.5 -511.5t432.5 -172.5q226 0 360 102v1162q-139 106 -360 106q-285 0 -432.5 -173t-147.5 -513z" />
<glyph unicode="&#x153;" horiz-adv-x="1796" d="M123 465q0 493 407 493q157 0 257.5 -81t132.5 -236q27 155 128.5 236t260.5 81q97 0 169 -28.5t110 -69t60.5 -98t28.5 -101.5t6 -94q0 -43 -6 -80q-5 -24 -32 -24h-709q0 -230 97.5 -343.5t275.5 -113.5q174 0 311 100q14 9 16 9q6 0 11.5 -5t5.5 -12q0 -6 -6 -12 q-139 -113 -338 -113q-157 0 -255.5 80.5t-133.5 237.5q-35 -156 -134.5 -237t-255.5 -81q-407 0 -407 492zM160 465q0 -232 92.5 -345.5t277.5 -113.5q371 0 371 461q0 459 -371 459q-185 0 -277.5 -113.5t-92.5 -347.5zM938 496h709q2 55 2 71q0 54 -8 101t-30.5 96 t-59 83.5t-98.5 56.5t-144 22q-183 0 -277 -110.5t-94 -319.5z" />
<glyph unicode="&#x178;" horiz-adv-x="1191" d="M20 1362q0 6 5.5 11t11.5 5h305q6 0 11 -5t5 -11t-5 -11t-11 -5h-149l403 -641l403 641h-149q-6 0 -11 5t-5 11t5 11t11 5h305q6 0 11 -5t5 -11t-5 -11t-11 -5h-113l-428 -680v-633h150q6 0 11 -5.5t5 -11.5t-5 -11t-11 -5h-336q-6 0 -11 5t-5 11t5 11.5t11 5.5h150v633 l-431 680h-110q-6 0 -11.5 5t-5.5 11zM442 1583q0 33 31 33t31 -33t-31 -33t-31 33zM692 1583q0 33 31 33t31 -33t-31 -33t-31 33z" />
<glyph unicode="&#x2c6;" horiz-adv-x="692" d="M111 1096q0 8 10 16l207 164q11 8 18 8q8 0 19 -8l206 -164q11 -8 11 -16q0 -6 -5.5 -11.5t-11.5 -5.5q-8 0 -14 6l-205 164l-205 -164q-6 -6 -14 -6q-6 0 -11 5.5t-5 11.5z" />
<glyph unicode="&#x2dc;" horiz-adv-x="684" d="M76 1110q0 6 4 14q41 88 139 88q47 0 92 -21.5t87 -43t83 -21.5t65 17t42 53q8 16 20 16q7 0 12 -5t5 -11t-4 -14q-41 -88 -140 -88q-47 0 -92 21.5t-87.5 43t-82.5 21.5q-41 0 -64 -17t-42 -53q-8 -16 -21 -16q-16 0 -16 16z" />
<glyph unicode="&#x2000;" horiz-adv-x="919" />
<glyph unicode="&#x2001;" horiz-adv-x="1839" />
<glyph unicode="&#x2002;" horiz-adv-x="919" />
<glyph unicode="&#x2003;" horiz-adv-x="1839" />
<glyph unicode="&#x2004;" horiz-adv-x="613" />
<glyph unicode="&#x2005;" horiz-adv-x="459" />
<glyph unicode="&#x2006;" horiz-adv-x="306" />
<glyph unicode="&#x2007;" horiz-adv-x="306" />
<glyph unicode="&#x2008;" horiz-adv-x="229" />
<glyph unicode="&#x2009;" horiz-adv-x="367" />
<glyph unicode="&#x200a;" horiz-adv-x="102" />
<glyph unicode="&#x2010;" horiz-adv-x="731" d="M162 516q0 16 16 16h375q16 0 16 -16t-16 -16h-375q-16 0 -16 16z" />
<glyph unicode="&#x2011;" horiz-adv-x="731" d="M162 516q0 16 16 16h375q16 0 16 -16t-16 -16h-375q-16 0 -16 16z" />
<glyph unicode="&#x2012;" horiz-adv-x="731" d="M162 516q0 16 16 16h375q16 0 16 -16t-16 -16h-375q-16 0 -16 16z" />
<glyph unicode="&#x2013;" horiz-adv-x="1052" d="M150 578q0 16 16 16h721q16 0 16 -16q0 -6 -4.5 -11.5t-11.5 -5.5h-721q-7 0 -11.5 5.5t-4.5 11.5z" />
<glyph unicode="&#x2014;" horiz-adv-x="1736" d="M150 578q0 16 16 16h1405q16 0 16 -16q0 -6 -4.5 -11.5t-11.5 -5.5h-1405q-7 0 -11.5 5.5t-4.5 11.5z" />
<glyph unicode="&#x2018;" horiz-adv-x="342" d="M131 1192q0 114 53 194q6 9 15 9q12 0 12 -13q0 -4 -4 -12q-32 -66 -35 -143q33 -4 33 -39q0 -43 -37 -43t-37 47z" />
<glyph unicode="&#x2019;" horiz-adv-x="337" d="M137 1157q0 4 4 12q32 66 35 144q-33 4 -33 39q0 43 37 43t37 -47q0 -115 -53 -195q-5 -8 -14 -8q-13 0 -13 12z" />
<glyph unicode="&#x201a;" horiz-adv-x="348" d="M131 -158q0 5 4 13q32 66 35 143q-33 4 -33 39q0 43 37 43t37 -47q0 -115 -53 -195q-5 -8 -15 -8q-12 0 -12 12z" />
<glyph unicode="&#x201c;" horiz-adv-x="520" d="M131 1192q0 114 53 194q6 9 15 9q12 0 12 -13q0 -4 -4 -12q-32 -66 -35 -143q33 -4 33 -39q0 -43 -37 -43t-37 47zM309 1192q0 114 53 194q6 9 15 9q12 0 12 -13q0 -4 -4 -12q-32 -66 -35 -143q33 -4 33 -39q0 -43 -37 -43t-37 47z" />
<glyph unicode="&#x201d;" horiz-adv-x="516" d="M137 1157q0 4 4 12q32 66 35 144q-33 4 -33 39q0 43 37 43t37 -47q0 -115 -53 -195q-5 -8 -14 -8q-13 0 -13 12zM315 1157q0 4 4 12q32 66 35 144q-32 4 -32 39q0 43 36 43q37 0 37 -47q0 -115 -53 -195q-5 -8 -14 -8q-13 0 -13 12z" />
<glyph unicode="&#x201e;" horiz-adv-x="526" d="M131 -158q0 5 4 13q32 66 35 143q-33 4 -33 39q0 43 37 43t37 -47q0 -115 -53 -195q-5 -8 -15 -8q-12 0 -12 12zM309 -158q0 5 4 13q32 66 35 143q-33 4 -33 39q0 43 37 43t37 -47q0 -115 -53 -195q-5 -8 -14 -8q-13 0 -13 12z" />
<glyph unicode="&#x2022;" horiz-adv-x="913" d="M190 571q0 279 267 279q266 0 266 -279q0 -133 -68.5 -199.5t-197.5 -66.5q-130 0 -198.5 66.5t-68.5 199.5z" />
<glyph unicode="&#x202f;" horiz-adv-x="367" />
<glyph unicode="&#x2039;" horiz-adv-x="602" d="M98 434q0 8 13 21l362 419q7 7 12 7q7 0 12 -5.5t5 -11.5q0 -8 -8 -16l-359 -414l359 -414q8 -8 8 -16q0 -6 -5 -11t-12 -5q-6 0 -12 6l-362 420q-13 13 -13 20z" />
<glyph unicode="&#x203a;" horiz-adv-x="602" d="M100 4q0 7 9 16l358 414l-358 414q-9 9 -9 16q0 6 5 11.5t12 5.5q5 0 12 -7l363 -419q12 -12 12 -21q0 -8 -12 -20l-363 -420q-6 -6 -12 -6q-7 0 -12 5t-5 11z" />
<glyph unicode="&#x205f;" horiz-adv-x="459" />
<glyph unicode="&#x20ac;" horiz-adv-x="1415" d="M113 561q0 6 4.5 11.5t11.5 5.5h76q-4 35 -4 110q0 63 2 94h-74q-7 0 -11.5 5.5t-4.5 11.5q0 16 16 16h76q27 296 183 444t429 148q145 0 265 -55.5t190 -153.5q4 -6 4 -12q0 -8 -6 -13.5t-13 -5.5q-10 0 -16 9q-59 87 -175.5 142.5t-248.5 55.5q-257 0 -402 -140.5 t-171 -418.5h446q7 0 12 -5t5 -11t-5 -11.5t-12 -5.5h-450q-2 -31 -2 -94q0 -75 4 -110h448q7 0 12 -5.5t5 -11.5t-5 -11t-12 -5h-446q31 -268 175 -404.5t398 -136.5q133 0 254 55.5t180 143.5q5 8 17 8q8 0 13 -5.5t5 -12.5t-4 -13q-69 -97 -194 -153t-271 -56 q-269 0 -424.5 143.5t-185.5 430.5h-78q-16 0 -16 16z" />
<glyph unicode="&#x2122;" horiz-adv-x="974" d="M113 1321q0 14 14 14h264q15 0 15 -14t-15 -14h-117v-334q0 -17 -16 -17t-16 17v334h-115q-14 0 -14 14zM487 973v352q0 6 5 11t12 5q10 0 16 -12l121 -233l121 233q6 12 16 12q7 0 12 -5t5 -11v-352q0 -7 -5.5 -12t-11.5 -5q-14 0 -14 17v295l-102 -197q-7 -14 -21 -14 q-13 0 -20 14l-103 197v-295q0 -17 -14 -17q-6 0 -11.5 5t-5.5 12z" />
<glyph unicode="&#x25fc;" horiz-adv-x="931" d="M0 0v932h932v-932h-932z" />
</font>
</defs>
</svg>
