<?xml version="1.0" encoding="utf-8"?>
<!-- Generator: Adobe Illustrator 21.1.0, SVG Export Plug-In . SVG Version: 6.00 Build 0)  -->
<svg version="1.1" id="Layer_1" xmlns="http://www.w3.org/2000/svg" xmlns:xlink="http://www.w3.org/1999/xlink" x="0px" y="0px"
	 viewBox="0 0 145.5 231" style="enable-background:new 0 0 145.5 231;" xml:space="preserve">
<style type="text/css">
	.st0{fill:#995716;}
	.st1{fill:#F6F6F6;}
	.st2{fill:none;stroke:#C6C6C6;stroke-width:2;stroke-miterlimit:10;}
	.st3{fill:#D8D7D4;}
	.st4{fill:#EAEAE8;}
	.st5{fill:#3F3E3D;}
	.st6{fill:#605958;}
	.st7{fill:#FFBB24;}
	.st8{fill:#FFFFFF;}
</style>
<path class="st0" d="M72.9,211.9H2.6c0,0,3.9,16.7,18.9,16.7c4.9,0,27.2,0,51.4,0s46.5,0,51.4,0c14.9,0,18.9-16.7,18.9-16.7H72.9z"
	/>
<path class="st1" d="M11.7,189.9c4.3-38.8,15.2-121.3,36-185c0,0,58.7,40.5,88.6,207L11.7,189.9z"/>
<path class="st2" d="M9.4,211.9c0,0,10.3-123.3,39.1-209.7"/>
<path class="st3" d="M56.1,117.2c-0.1-0.8-0.4-1.5-0.8-2.1c-1.4-2-4.8-1.5-6.4-3.4c-0.8-0.9-1.1-2.3-2.2-2.8
	c-0.8-0.3-1.7-0.1-2.3,0.4c-0.6,0.6-1.1,1.2-1.4,2c-1.2,2.7-1.6,5.6-1.1,8.5c0.5,3.4,2.7,7,6.1,7.5"/>
<path class="st3" d="M56.3,117.2c-0.4-1.5-0.8-2.6-2.3-3.4c-2-1.1-4-1-5.4-3c-0.7-1-1-2.2-2.4-2.3c-1.1-0.1-2,0.6-2.6,1.4
	c-3.8,5-2.9,16.2,4.3,17.7c0.3,0.1,0.4-0.3,0.1-0.4c-6.7-1.4-7.1-10.6-4.9-15.6c0.6-1.5,1.8-4.1,4.6-1.3c0.2,0.3,0.4,0.7,0.6,1.1
	c0.4,0.5,0.8,1,1.4,1.3c2.5,1.6,5.3,1,6.1,4.7C56,117.6,56.4,117.5,56.3,117.2L56.3,117.2z"/>
<path class="st3" d="M79.5,119.6c1.1-2.8,4.1-4.3,5.2-7.1c0.2-0.6,0.5-1.2,0.8-1.7c0.7-0.8,2.1-0.9,3.1-0.5c1,0.5,1.8,1.2,2.3,2.2
	c2.1,3.3,2.6,7.4,1.3,11.2c-0.4,1.4-1.2,2.6-2.3,3.4c-1.2,0.7-2.5,1.1-3.9,1.2"/>
<path class="st3" d="M79.6,119.7c0.9-2.1,2.7-3.5,4.1-5.3c0.4-0.6,0.8-1.2,1.1-1.8c0.4-0.8,0.8-2.1,1.8-2.3c1.5-0.3,2.9,0.7,3.7,1.7
	c1.7,2.4,2.5,5.2,2.3,8.1c-0.3,4.2-2.1,7.4-6.6,7.8c-0.3,0-0.3,0.4,0,0.4c3.6-0.4,5.7-2,6.6-5.5c1-3.6,0.4-7.4-1.6-10.6
	c-1.1-1.7-3.5-3.6-5.5-1.9c-0.4,0.4-0.7,0.9-0.9,1.4c-0.5,1.2-1.2,2.3-2.1,3.3c-1.3,1.4-2.5,2.6-3.3,4.3
	C79.1,119.7,79.5,120,79.6,119.7L79.6,119.7z"/>
<path class="st4" d="M50.8,119.7c4.1-5.2,11.6-6.9,18.3-6.2c1.7,0.2,3.5,0.5,5.1,1.1c6,2.1,10.4,7.6,11.8,13.7
	c0.8,3.4,1.4,7.5,4.2,9.9c-0.2,0.6-1.2,0.6-1.4,1.2c-0.2,0.5,0.4,1,0.4,1.5c0,0.5-0.5,1-0.9,1.4c-0.3,0.4-0.5,0.9-0.7,1.3
	c-3.2,7.9-11.5,11.3-19.6,11.1c-4.9-0.2-9.8-1.5-14.4-3.1c-4.9-1.6-10-3.7-12.4-8.6l-0.8-1.7c-0.2-0.3-0.3-0.7-0.2-1.1
	c0.1-0.3,0.5-0.5,0.9-0.7s0.7-0.5,0.6-0.9c-0.1-0.1-0.1-0.3-0.3-0.4l-1.2-1.2c3.5-2.9,3.4-8.8,8.6-10.2"/>
<path class="st4" d="M50.9,119.9c6.3-7.5,19.7-8.4,27.5-2.8c4,2.9,6.4,7.2,7.5,11.9c0.5,2,0.8,4.1,1.7,6c0.3,0.6,0.6,1.3,1,1.8
	c-0.5-0.6,0.4,0.4,0.4,0.6c0.4,0.2,0.6,0.7,0.4,1.1c0,0.1-0.1,0.1-0.1,0.2l-0.4,0.2c-0.5,1.1-0.3,1.9-0.9,3.4
	c-0.8,2-1.8,3.8-3.1,5.4c-2.8,3.4-6.8,5.5-11.1,6.4c-5.3,1.1-10.7,0.3-15.9-1.2c-4.7-1.3-10-2.8-13.7-6c-1-0.9-1.9-2-2.6-3.2
	c-0.6-0.8-0.8-1.7-0.7-2.7c-0.3-0.6-0.2-1,0.1-1.2l0.4-0.4c0-0.2,0.2-0.5,0.2-0.7c-0.1-0.7-1.3-0.9-1.1-1.8c0.1-0.4,1.3-1.7,1.6-2.1
	c0.5-0.8,0.9-1.7,1.3-2.5c1.2-2.4,2.5-4.3,5.2-5.2c0.3-0.1,0.1-0.5-0.1-0.4c-5,1.5-5.2,7.1-8.7,10.2c-0.1,0.1-0.1,0.2,0,0.3
	c0.8,0.6,1,1.4,0.5,2.4c-0.2,0.1-0.3,0.3-0.4,0.4c0,0-0.1,0.1-0.1,0.1c0,1.2,0.8,2.5,1.4,3.6c1.4,2.5,3.7,4.3,6.2,5.6
	c6.3,3.3,13.3,5.2,20.5,5.5c5.3,0.2,10.9-1.2,15-4.7c2.2-1.8,3.5-4,4.8-6.5c0.6-1.1,1.2-1.8,1.6-2.9c0.4-1.3-1.5,0.7,0.3-1.9
	c-0.1,0.1,0.8-0.7,0.8-0.7c0-0.1,0-0.2,0-0.3c-3.8-3.6-3.4-9.3-5.5-13.8c-1.8-4-5-7.2-8.9-9.2c-7.9-3.8-19.5-2.5-25.3,4.5
	C50.4,119.8,50.7,120,50.9,119.9L50.9,119.9z"/>
<path class="st5" d="M50.3,120.5l-3.5-3.7c-0.4-0.4-1-0.9-1.5-0.8c-0.8,0.2-0.9,1.2-0.7,2c0.3,1.9,1,3.6,2.1,5.2
	c0.3,0.5,0.8,1,1.3,0.8c0.2-0.1,0.4-0.3,0.6-0.6l1.9-2.8"/>
<path class="st5" d="M50.7,120.1c-1.1-1.2-2.2-2.5-3.5-3.7c-0.5-0.5-1.1-1.1-1.9-0.9c-1.6,0.3-1.3,2.3-1.1,3.4
	c0.4,1.6,1.3,4.7,2.9,5.4c1.8,0.8,3-2.4,3.7-3.5c0.4-0.6-0.5-1.1-0.9-0.5c-0.4,0.6-1.7,3.4-2.7,2.9c-0.9-0.4-1.6-2.8-1.8-3.6
	c-0.3-0.6-0.4-1.3-0.5-2v-0.4c0.8-0.5,1.5-0.4,1.9,0.3c1.1,0.8,2.1,2.3,3,3.2C50.4,121.3,51.1,120.6,50.7,120.1L50.7,120.1z"/>
<path class="st5" d="M83.8,121.7c1.1-1.1,1.9-2.5,2.3-4.1c1.5,1.1,2.1,3,1.6,4.8c-0.3,0.8-0.9,1.5-1.7,1.3c-1.1-0.2-1-2-1.8-2.8"/>
<path class="st5" d="M84.1,122.1c1.2-1.2,2-2.7,2.4-4.3l-0.8,0.3c1.2,0.9,2.2,3.2,1.1,4.6c-1,1.3-1.5-0.1-1.8-0.8
	c-0.2-0.4-0.4-0.8-0.7-1.2c-0.4-0.5-1.2,0.2-0.7,0.7c0.6,0.8,0.6,2,1.5,2.6c0.9,0.6,2,0.2,2.5-0.6c1.4-2,0.4-4.8-1.4-6.2
	c-0.3-0.1-0.6-0.1-0.7,0.2c0,0,0,0.1,0,0.1c-0.4,1.4-1.1,2.8-2.2,3.8C82.9,121.8,83.7,122.5,84.1,122.1L84.1,122.1z"/>
<path class="st6" d="M57.8,149.4c-0.6-0.9-0.8-2-0.6-3.1c0.2-0.8,0.7-1.5,1.2-2c0.7-0.8,1.5-1.5,2.4-2c1.8-0.8,4-0.7,5.7,0.3
	c1.7,1,3,2.7,3.6,4.5c0.2,0.4,0.3,0.9,0.2,1.4c-0.1,0.9-0.8,1.6-1.6,2.2c-0.9,0.8-1.9,1.3-3,1.6c-2.2,0.4-4.4-1-6.6-1"/>
<path class="st6" d="M49.8,145.2c2.3,1.1,3.7,0.3,5.8,0.1c1.2-0.1,1.4-1.2,2.2,0.8c1.1,2.6,3.8,4.8,6.6,4.5c2.7-0.2,5.2-3.4,4-6
	c1.4-0.4,2.2,0.5,3.5,0.7c1.7,0.3,3.9-0.2,5.6-0.7c2.2-0.6,4.4-1.8,5.4-3.8s0.7-4.3,0.3-6.5c-0.4-2.2-1.3-3.9-3.2-5.1
	c-2.7-1.7-7.4-0.9-10,0.7c-2.2,1.3-4.2,3.9-7,3.4c-0.8-0.1-1.5-1-2.2-1.4c-2.7-1.4-5.4-3.6-8.6-3.8c-3.7-0.2-6.1,2.4-6.4,6
	c-0.2,2.2-0.3,4.4,0.1,6.6S47.9,144.3,49.8,145.2z"/>
<path class="st6" d="M65.6,142.7c0.2-2,0.6-3.9,1-5.8c0.2-0.8,0.3-1.5,0.3-2.3c-0.1-0.9-0.2-1.6,0.2-2.5c0.5-0.9,1.5-1.4,2.5-1.7
	c2.4-0.7,5.1-0.9,7.5-1.3c1.7-0.2,3.3,0.4,4.5,1.6c1.4,1.4,1.2,3.8,1.2,5.6c0.1,1.8,0.1,3.8-0.7,5.5c-1,2-3,3.4-5.2,3.9
	c-1.8,0.5-4.6,0.7-6.4-0.1c-1.8-0.8-3.4-1.7-5-2.8"/>
<path class="st6" d="M51.1,119c-0.3,0.4-0.7,1-0.4,1.4c0.3,0.4,0.9,0.3,1.4,0.1c5.2-2,10.7-3,16.2-3.1c1.9-0.1,3.7,0.1,5.5,0.6
	c3.2,1,5.8,3.6,9,4.8c0.2,0.1,0.4,0.1,0.6,0c0.3-0.1,0.3-0.6,0.2-0.9c-0.9-2.8-3.4-4.7-5.9-6.1c-6.6-3.4-14.3-4.1-21.4-1.7
	c-2,0.7-4.1,1.7-4.8,3.7"/>
<path class="st7" d="M47.8,138.3c0.4,1.9,2.4,3.3,4.5,3.8c2.1,0.4,4.3,0.1,6.3-0.7c0.4-0.1,0.7-0.3,1-0.6c0.2-0.3,0.4-0.6,0.4-1
	c0.2-1.8-0.5-4.5-2-5.7c-1.3-1-2.9-1.8-4.5-2.3c-1.8-0.5-3.1,0.1-4.3,1.5c-0.7,0.7-1.3,1.6-1.6,2.6c-0.3,1-0.2,2.1,0.4,2.9"/>
<path class="st7" d="M47.1,138.5c1.2,3.6,5.1,4.9,8.6,4.4c1.5-0.2,4.1-0.6,4.8-2.2c0.6-1.3,0.2-3.2-0.3-4.5c-1.1-3-5.4-5.8-8.7-5.2
	c-3.5,0.6-5.8,5.1-4.3,8.2c0.4,0.8,1.7,0.1,1.3-0.7c-1-1.9,0.2-4,1.7-5.2c1.3-1,2.4-0.9,3.9-0.5c2.4,0.7,4.4,2.3,5,4.7
	c0.2,0.8,0.4,2.3-0.3,3c-0.7,0.7-3.2,1-4.1,1c-2.5,0.1-5.3-0.8-6.2-3.4C48.2,137.2,46.8,137.6,47.1,138.5L47.1,138.5z"/>
<path class="st7" d="M67.1,139.8c1.4,1.2,2.9,2.2,4.7,2.7c0.6,0.2,1.2,0.4,1.9,0.4c0.6,0,1.2-0.2,1.7-0.4c1.6-0.6,3.2-1.3,4.3-2.4
	c2-2,1.2-4.3,0.1-6.5c-0.5-1-1-1.2-2-1.1c-1.5,0.2-3,0.3-4.5,0.5c-3.4,0.7-5.6,3.2-5.8,6.7"/>
<path class="st7" d="M66.5,140.3c3.2,2.8,6.5,4.1,10.5,2.3c3.8-1.7,5.4-4.6,3.7-8.5c-0.5-1.1-1-2.1-2.3-2.3
	c-1.8-0.3-4.6,0.2-6.4,0.8c-3.3,1.1-5.1,3.8-5.4,7.2c-0.1,0.9,1.4,0.9,1.5,0c0.2-2.4,1.4-4.4,3.6-5.5s6.9-2,7.9,0.8
	c1.2,3.3-0.9,5.3-3.8,6.4c-3.1,1.2-5.9-0.2-8.2-2.3C66.9,138.6,65.8,139.7,66.5,140.3L66.5,140.3z"/>
<path d="M53.1,135.8c-0.1,0.5,0.1,1,0.5,1.3c0.5,0.3,1,0.1,1.3-0.3c0.2-0.3,0.2-0.6,0.1-0.9c-0.1-0.5-0.6-0.8-1-0.8
	c-0.4,0-0.7,0.4-0.6,0.8c0,0.1,0,0.1,0.1,0.2"/>
<path d="M52.9,135.8c-0.2,0.7,0.2,1.5,0.9,1.7c0.6,0.2,1.3-0.2,1.4-0.8c0,0,0-0.1,0-0.1c0.1-0.7-0.4-1.4-1.1-1.6c0,0,0,0,0,0
	c-0.5,0-0.9,0.4-1,0.9c0,0.1,0,0.3,0.1,0.4c0.1,0.2,0.5,0,0.4-0.2c-0.2-0.5,0.5-0.8,0.8-0.6c0.4,0.3,0.6,0.8,0.3,1.3
	c-0.2,0.3-0.6,0.4-1,0.3c-0.4-0.2-0.6-0.7-0.5-1.1C53.4,135.6,53,135.5,52.9,135.8L52.9,135.8z"/>
<path d="M73.8,136c-0.5,0.2-0.7,0.6-0.6,1.1c0.1,0.5,0.6,0.8,1.1,0.7c0.5,0,0.9-0.4,1-0.8c0-0.1,0.1-0.3,0-0.4
	c-0.1-0.4-0.4-0.7-0.8-0.7C74.2,135.8,74.1,135.9,73.8,136"/>
<path d="M73.8,135.8c-0.6,0.2-0.9,0.9-0.7,1.5c0,0,0,0,0,0c0.3,0.6,1,0.9,1.7,0.7c0.7-0.3,1-1,0.7-1.7c-0.2-0.3-0.5-0.5-0.8-0.6
	C74.4,135.6,74,135.6,73.8,135.8c-0.2,0.1-0.1,0.5,0.1,0.4c0.3-0.1,0.6-0.2,0.9,0c0.3,0.3,0.4,0.7,0.2,1.1c-0.1,0.1-0.2,0.2-0.3,0.2
	c-0.4,0.3-0.9,0.2-1.2-0.1c-0.3-0.3-0.2-0.8,0.1-1c0.1-0.1,0.2-0.1,0.2-0.1C74.1,136.1,74,135.7,73.8,135.8L73.8,135.8z"/>
<path class="st8" d="M51.9,138.4c0.4,0.1,0.9,0,1.2-0.3c0.3-0.3,0.4-0.8,0.1-1.2c-0.4-0.4-1.1-0.2-1.5,0.2c-0.1,0.2-0.2,0.4-0.2,0.6
	c0,0.2,0.2,0.4,0.4,0.4"/>
<path class="st8" d="M72.6,139c0.5-0.2,0.9-0.7,1-1.2c0-0.1,0-0.2,0-0.2c-0.1-0.1-0.1-0.1-0.2-0.1c-0.5-0.1-0.9,0.1-1.2,0.5
	c-0.2,0.4-0.1,0.9,0.3,1.1c0,0,0,0,0,0"/>
</svg>
