<?xml version="1.0" encoding="utf-8"?>
<!-- Generator: Adobe Illustrator 19.2.1, SVG Export Plug-In . SVG Version: 6.00 Build 0)  -->
<svg version="1.1" id="Layer_1" xmlns="http://www.w3.org/2000/svg" xmlns:xlink="http://www.w3.org/1999/xlink" x="0px" y="0px"
	 viewBox="0 0 300 36.1" style="enable-background:new 0 0 300 36.1;" xml:space="preserve">
<style type="text/css">
	.st0{opacity:0.6;}
	.st1{fill:#EAEAEA;}
</style>
<g class="st0">
	<path class="st1" d="M54.9,27.5c-1.2-0.8-1.9-2.2-3.1-3c-2.3-1.5-5.4-1.2-8.1-0.7c-2.7,0.5-5.7,1-8.2,0C33,22.6,31.3,19,33.2,17
		c1.2-1.4,3.4-1.5,5.2-2c1.8-0.5,3.7-2.3,2.9-4c-0.4-0.9-1.4-1.3-2.4-1.6C26.7,5.5,12.4,10.2,1,4.3c0.2-1.7,2.3-2.2,4-2.4
		c24.9-2.4,50.1-0.8,74.5,4.5c10.5,2.3,21.4,5.3,31.8,2.9c3.3-0.8,6.6-2.1,10-2.2c8.7-0.4,16.3,6.7,25,7.1
		c8.3,0.3,15.6-5.5,23.6-7.6c4.1-1.1,8.4-1.2,12.7-1.2c26-0.5,52-1.1,78-1.1c11.7,0,23.3,0,35,0.2c1.3,0,2.7,0.1,3.6,1
		c1.4,1.3,0.8,3.9-0.8,5.1c-1.5,1.2-3.6,1.4-5.6,1.5c-35,2.8-70,5.6-105.1,8.4c-8.6,0.7-17.5,1.4-25.5,4.7c2.1,0.1,4.3,0.3,6,1.4
		c1.8,1.1,2.9,3.5,2,5.3c-1.1,2.1-3.8,2.3-6.2,2.3c-14.1,0-26.6-3.5-40.7-3.5c-15.5,0-29.4,1.8-40.9,4.1
		C77.4,35.9,68.4,36.5,54.9,27.5z"/>
</g>
</svg>
