<?xml version="1.0" encoding="utf-8"?>
<!-- Generator: Adobe Illustrator 19.2.1, SVG Export Plug-In . SVG Version: 6.00 Build 0)  -->
<svg version="1.1" id="Layer_1" xmlns="http://www.w3.org/2000/svg" xmlns:xlink="http://www.w3.org/1999/xlink" x="0px" y="0px"
	 viewBox="0 0 300 29.8" style="enable-background:new 0 0 300 29.8;" xml:space="preserve">
<style type="text/css">
	.st0{opacity:0.6;}
	.st1{fill:#EAEAEA;}
</style>
<g class="st0">
	<path class="st1" d="M71.7,27.3c16.2,3,33.3,2.1,49.9,0.9c34.7-2.6,69.3-6.8,104.1-6.2c7,0.1,14.8,0.2,19.8-3.5
		c-8-2.1-16.5-3.1-24.9-3.2c7.4-3.2,16.1-4.1,24.5-4.9c13-1.3,26-2.6,39-3.8c5.7-0.6,12-1.3,15.8-4.7c-10.3-3.2-21.9-0.1-33,1.2
		c-14.7,1.6-29.9-0.2-44.6,1.4c-11,1.2-21.7,4.3-32.8,4.8c-13.9,0.6-28.1-2.8-41.8-0.8c-5.7,0.8-11.2,2.6-17,3.2
		c-8.4,0.8-16.8-0.9-25.1-2c-26.9-3.7-54.6-1-81.8,1.7c-7.7,0.8-15.5,1.5-23.1,2.6c5.5,5.5,16.4,4.5,25.5,4.2
		c13.4-0.4,26.8,2.2,38.3,7.3L71.7,27.3z"/>
</g>
</svg>
