<?xml version="1.0" encoding="utf-8"?>
<!-- Generator: Adobe Illustrator 19.2.1, SVG Export Plug-In . SVG Version: 6.00 Build 0)  -->
<svg version="1.1" id="Layer_1" xmlns="http://www.w3.org/2000/svg" xmlns:xlink="http://www.w3.org/1999/xlink" x="0px" y="0px"
	 viewBox="0 0 300 30.2" style="enable-background:new 0 0 300 30.2;" xml:space="preserve">
<style type="text/css">
	.st0{opacity:0.6;}
	.st1{fill:#EAEAEA;}
</style>
<g class="st0">
	<path class="st1" d="M229.2,2.6c-16.3,0.6-32.8-1-49,0c-6.3,0.4-12.5,1.2-18.7,1.8c-19,1.9-38.6,2.6-58.1,2
		C88.4,5.9,71.6,4.9,60.1,9.2c13.7,1.1,27.7,1.6,41.7,1.5c2.1,0,4.2-0.1,6,0.4c1.8,0.4,3.1,1.5,2,2.3c-33.5,0.7-67,1.5-100.5,2.2
		c-3.4,0.1-7.7,0.5-8.3,2c-0.8,2,5.7,2.8,10.3,2.7c24.6-0.6,49.2-0.7,73.8-0.2c6.9,0.1,13.9,0.3,20.2,1.6c-1.3,2-6.9,2.7-11.6,2.9
		c-17,0.6-36.3-1-49.5,3.8c12.2,1.4,25,1.1,37.5,0.8c12-0.3,23.9-0.6,35.9-0.8c3.1-0.1,6.2-0.2,9-0.7c4.1-0.8,7-2.5,10.5-3.7
		c5-1.9,11.4-2.9,17.9-3c5.5-0.1,11.4,0.5,16.3-0.6c2.7-0.7,4.7-1.8,7.2-2.6c6.1-2.1,14.4-2.1,22.1-2.1c23.6,0.1,47.2,0.2,70.8,0.3
		c8.9,0,18.1,0,26.1-1.6c0.8-0.2,1.7-0.4,2.1-0.8c0.6-0.7-1-1.4-2.6-1.8c-9.6-2.3-21.2-1.7-32.1-1.7c-4.7,0-11-1-10.2-3
		c0.6-1.5,4.8-2.1,8.2-2.4c3.4-0.4,7.5-1.4,6.7-2.9c-11.2-1.1-23.3-0.3-33.5,2L229.2,2.6z"/>
</g>
</svg>
