<?xml version="1.0" encoding="utf-8"?>
<!-- Generator: Adobe Illustrator 21.1.0, SVG Export Plug-In . SVG Version: 6.00 Build 0)  -->
<svg version="1.1" id="Layer_1" xmlns="http://www.w3.org/2000/svg" xmlns:xlink="http://www.w3.org/1999/xlink" x="0px" y="0px"
	 viewBox="0 0 300 227.1" style="enable-background:new 0 0 300 227.1;" xml:space="preserve">
<style type="text/css">
	.st0{opacity:0.4;}
	.st1{fill:#006868;}
	.st2{fill:#F1F1F1;}
	.st3{fill:#F78E63;}
	.st4{fill:#88A9D9;}
	.st5{fill:#E6E3E4;}
	.st6{fill:#406085;}
	.st7{fill:#F9F3F4;}
	.st8{fill:#816568;}
	.st9{fill:#EFEDEE;}
	.st10{fill:url(#SVGID_1_);}
	.st11{fill:#EEEEEE;}
	.st12{fill:url(#SVGID_2_);}
	.st13{fill:#C47759;}
	.st14{fill:#9E5B44;}
	.st15{fill:#5B393E;}
</style>
<g class="st0">
	<path class="st1" d="M247.2,195.8c0,0-31.9,8-52.8,4.5c-13.7-2.4-27.1-6.5-39.8-12l19.8-13.6C174.3,174.7,239.3,186.6,247.2,195.8z
		"/>
	<polygon class="st1" points="86.1,100.8 76.3,151.4 53.9,140 50.1,83.5 	"/>
	<path class="st1" d="M48.6,80.9l1.5,2.6l3.8,56.5L43.5,131l-3.4-48.5C43,82.3,45.9,81.8,48.6,80.9z"/>
	<path class="st1" d="M205.5,137.6l41.7,58.1l-72.9-21.1l-88.2-73.9L50.1,83.5l-1.5-2.6c5.7-1.8,10.9-4.8,15.4-8.7
		C110.9,91.9,205.5,137.6,205.5,137.6z"/>
	<path class="st1" d="M79.4,55.1c21.9,10.8,50.8,20.6,89.3,42.5c44.2,25.1,76.1,71.2,76.1,71.2c-1.2,9.3,2.4,27,2.4,27
		c-52.2-61.4-82.7-73.5-82.7-73.5s-57.2-26.3-69-33c-6-3.4-20.4-10-33.3-15.6C68.9,68.3,74.6,62.1,79.4,55.1z"/>
	<path class="st1" d="M149.1,105.1c6.1,1.8,22.8,8,45.5,25.4c23.6,18.1,49,48.6,50.2,50l1.5,11c-0.3-0.3-32.3-38.6-55.4-56.3
		c-22.5-17.3-39-23.1-43.5-24.4c-3.5-1-49.9-23.2-82.1-39.8c1.5-1.4,3-2.8,4.5-4.3C101.2,83,146.1,104.1,149.1,105.1z"/>
	<path class="st1" d="M50.1,83.5l3.8,56.5l22.4,11.3l18.3,2.5l5.8-40.8l-14.3-12.2L50.1,83.5z M57.3,137.7l-3.2-48.3l30.1,14.4
		l12.4,10.6l-5.1,35.4l-14.2-1.9L57.3,137.7z"/>
	<path class="st1" d="M150.9,132.5c11,7.1,23.9,25.6,23.5,42.2c-0.5,16.6-15.2,14.4-15.2,14.4l-33.1-4.8l-52-65.8l12.1-17.8
		C86.2,100.7,139.8,125.4,150.9,132.5z"/>
	<polygon class="st1" points="174.5,172.9 174.3,176.5 137.1,173.2 137.3,169.7 	"/>
	<polygon class="st1" points="147.3,130.4 128.8,148.2 126.3,145.6 144,128.6 	"/>
	<polygon class="st1" points="115,114.3 103.2,131.9 99.9,130.4 111.7,112.7 	"/>
	<polygon class="st1" points="89.2,102.2 77.2,120 74,118.5 86.1,100.8 	"/>
	<path class="st1" d="M111.4,135.6c9.9,4,28.6,16.9,26.2,35.9c-2.4,19-18.5,11.2-18.5,11.2L77,162.1l-2.9-43.5L111.4,135.6z"/>
	<path class="st1" d="M108.1,148.6c3,2,5.4,4.8,7,8.1c0,0,4.2,8-0.5,11.8l-7.6,5.2l-14.2-20.7l7.6-5.2
		C100.5,147.7,103.3,145.5,108.1,148.6z"/>
	<path class="st1" d="M99.3,153c5.5,3,9.2,8.4,10,14.7c0.4,5.6-3.4,8.2-8.5,5.8c-5.5-3-9.2-8.4-10-14.7
		C90.3,153.2,94.1,150.6,99.3,153z"/>
	<path class="st1" d="M99.7,156.6c2.3,1.5,4.1,3.6,5.3,6.1c0,0,3.1,6-0.3,8.8l-5.7,3.9l-10.7-15.6l5.7-3.9
		C94,155.9,96.1,154.3,99.7,156.6z"/>
	<path class="st1" d="M93,160c4.1,2.3,6.9,6.4,7.5,11c0.3,4.2-2.5,6.2-6.4,4.4c-4.1-2.3-6.9-6.4-7.5-11
		C86.3,160.1,89.1,158.2,93,160z"/>
	<path class="st1" d="M93.6,167.6c0.8,1.3-1.5,3.2-1.5,3.2s-31.6,19.7-31.7,19.4s29.8-22.3,29.8-22.3S92.7,166.4,93.6,167.6z"/>
</g>
<path class="st2" d="M237,108.5c16.4,13.5,31.3,42.8,31.3,42.8c-12.2,0-63.8-41-63.8-41l-2.7-23.9C214.4,92.4,226.2,99.8,237,108.5z
	"/>
<polygon class="st3" points="122.4,51.8 90.8,92.5 54.1,76.7 99.1,42.4 "/>
<polygon class="st4" points="99.1,42.4 54.1,76.7 31.6,81.3 85.4,40.5 "/>
<path class="st5" d="M90.8,92.4l113.7,17.8l63.8,41.2l-71.2,6.8c0,0-163.1-69.4-165.5-76.8l22.5-4.5L90.8,92.4z"/>
<path class="st6" d="M88.4,107.2c12.8,4.5,70.3,30.2,70.3,30.2s29.2,15.1,109.7,13.9c0,0-15.9,8.9-22,15.9c0,0-55.7,6.3-103.7-10.4
	s-75.7-34.5-100.6-43.1c0,0,0.4-11.6-10.5-32.4C31.6,81.3,75.6,102.7,88.4,107.2z"/>
<path class="st7" d="M185.9,148.8c28.6,5.7,78.4,4.7,78.8,4.7l-9.3,6.1c-1.9,0-41.5,0.9-70.7-4.9c-28-5.6-43.7-14.1-49.1-17.5
	c-3.3-2-66-29.4-97.3-40.7l-3-7.5c30.6,11,99.8,40.8,103.5,43.1C142.5,134.3,158,143.2,185.9,148.8z"/>
<path class="st7" d="M99.1,42.4l-45,34.3l36.7,15.9l18.6,2.7L136.3,64l-13.9-12.2L99.1,42.4z M61.2,75.8l38.6-29.4l20.8,8.4
	l10.8,9.4L108,91.4l-16.1-2.3L61.2,75.8z"/>
<path class="st8" d="M179.9,67.6l25.4,21.8c0,0,11.3,9.6-0.8,20.9s-34.6,13.7-47.2,10.1c-12.6-3.7-66.5-27.9-66.5-27.9l5.4-20.8
	L179.9,67.6z"/>
<polygon class="st7" points="205.9,109.1 203.3,111.6 176.4,85.7 178.9,83.1 "/>
<polygon class="st7" points="154.6,93.4 153.4,119 149.8,117.7 151,93.3 "/>
<polygon class="st7" points="125.5,84.9 120,105.3 116.7,103.9 122.2,83.4 "/>
<polygon class="st7" points="99.4,73.1 93.9,93.9 90.8,92.5 96.3,71.7 "/>
<path class="st9" d="M174.1,63.4c0,0,16.4,7,3.8,21.3s-34.7,8.7-44.3,3.9L96.2,71.7L131,45.2L174.1,63.4z"/>
<linearGradient id="SVGID_1_" gradientUnits="userSpaceOnUse" x1="-1600.0886" y1="367.9984" x2="-1574.9612" y2="367.9984" gradientTransform="matrix(-0.99 0.12 -0.12 -0.99 -1390.0363 626.077)">
	<stop  offset="0" style="stop-color:#F2EDEC"/>
	<stop  offset="0.19" style="stop-color:#EFE9E8"/>
	<stop  offset="0.41" style="stop-color:#E5DBDA"/>
	<stop  offset="0.63" style="stop-color:#D4C5C5"/>
	<stop  offset="0.86" style="stop-color:#BDA7A6"/>
	<stop  offset="1" style="stop-color:#AC9090"/>
</linearGradient>
<path class="st10" d="M160.5,69.5c0.2,6-8.5,8.1-8.5,8.1c-3.5,1-7.2,1-10.7,0c-5.5-1.6-5.7-5.2-5.7-5.2l-1.1-9.1l24.9-3L160.5,69.5z
	"/>
<path class="st11" d="M137.6,57.7c5.2-3.5,11.7-4.3,17.6-2.1c5.2,2.3,5.8,6.8,1.2,10.2c-5.2,3.5-11.7,4.3-17.6,2.1
	C133.6,65.7,133,61.1,137.6,57.7z"/>
<linearGradient id="SVGID_2_" gradientUnits="userSpaceOnUse" x1="-1596.9814" y1="377.8521" x2="-1578.0911" y2="377.8521" gradientTransform="matrix(-0.99 0.12 -0.12 -0.99 -1390.0363 626.077)">
	<stop  offset="0" style="stop-color:#F2EDEC"/>
	<stop  offset="0.19" style="stop-color:#EFE9E8"/>
	<stop  offset="0.41" style="stop-color:#E5DBDA"/>
	<stop  offset="0.63" style="stop-color:#D4C5C5"/>
	<stop  offset="0.86" style="stop-color:#BDA7A6"/>
	<stop  offset="1" style="stop-color:#AC9090"/>
</linearGradient>
<path class="st12" d="M156.3,59.8c0.2,4.5-6.4,6.1-6.4,6.1c-2.6,0.7-5.4,0.7-8.1,0c-4.1-1.2-4.3-3.9-4.3-3.9l-0.8-6.8l18.8-2.3
	L156.3,59.8z"/>
<path class="st11" d="M139,51c3.9-2.6,8.8-3.2,13.2-1.6c3.9,1.7,4.3,5.1,0.9,7.7c-3.9,2.6-8.8,3.2-13.2,1.6
	C136,57,135.5,53.6,139,51z"/>
<path class="st7" d="M147.5,50.8c0,0,0.2,3-1.4,3.3c-1.5,0.2-2.1-2.9-2.1-2.9s-3.2-37.1-2.9-37.1S147.5,50.8,147.5,50.8z"/>
<polygon class="st13" points="100.3,51.9 66.2,78 61.2,75.8 99.7,46.5 "/>
<polygon class="st14" points="119.1,54.3 115.6,57 114.8,57.6 114.4,57.8 100.3,51.9 99.7,46.5 "/>
<path class="st15" d="M135.2,89.3c5,2.3,10.4,3.7,15.9,4.3l-1.2,24.1c-6.4-1.9-29.9-12.4-29.9-12.4l5.5-20.4L135.2,89.3z"/>
<polygon class="st15" points="122.2,83.4 116.7,103.9 93.9,93.9 99.4,73.1 "/>
<polygon class="st13" points="101.1,58.7 72.7,80.8 64.9,77.3 100.3,51.9 "/>
<polygon class="st14" points="109.1,61.9 101.1,58.7 100.3,51.9 117,55.9 "/>
</svg>
