<?xml version="1.0" encoding="utf-8"?>
<!-- Generator: Adobe Illustrator 21.1.0, SVG Export Plug-In . SVG Version: 6.00 Build 0)  -->
<svg version="1.1" id="Layer_1" xmlns="http://www.w3.org/2000/svg" xmlns:xlink="http://www.w3.org/1999/xlink" x="0px" y="0px"
	 viewBox="0 0 300 227.1" style="enable-background:new 0 0 300 227.1;" xml:space="preserve">
<style type="text/css">
	.st0{fill:#F2881D;}
	.st1{fill:#FFBBA2;}
	.st2{fill:#F99B4E;}
	.st3{fill:url(#SVGID_1_);}
	.st4{fill:url(#SVGID_2_);}
	.st5{fill:#886458;}
	.st6{fill:#79B5AA;}
	.st7{fill:#A3C9C3;}
	.st8{fill:#D6701D;}
	.st9{fill:#5A824D;}
	.st10{fill:#B24E04;}
	.st11{fill:#437554;}
	.st12{fill:#603813;}
	.st13{fill:#006837;}
	.st14{fill:#DFE0EB;}
	.st15{fill:#515C64;}
	.st16{fill:#BCBFCE;}
	.st17{fill:#390B07;}
	.st18{fill:#FFFFFF;}
	.st19{fill:#42210B;}
</style>
<path class="st0" d="M134,153.3c72.3,21.9,100.6,55.6,100.6,55.6c-83.9,20.6-204.3-36.6-204.3-36.6l34.5-34.1L134,153.3z"/>
<path class="st1" d="M55.5,160.4l40.9,12.7C82.3,170.4,68.6,166.2,55.5,160.4z"/>
<path class="st1" d="M57.4,169.5l22.7,7.9C72.3,175.6,64.7,173,57.4,169.5z"/>
<path class="st2" d="M234.7,209l-14.2,14.4c0,0-61.3,5.7-103.6-4.5c-26.8-6.6-53.1-14.6-79-24l-13.7-24.4l77.6,25.3
	C101.8,195.7,157.1,216.8,234.7,209z"/>
<linearGradient id="SVGID_1_" gradientUnits="userSpaceOnUse" x1="-855.0031" y1="944.926" x2="-756.6965" y2="944.926" gradientTransform="matrix(-0.97 0.24 0.24 0.97 -885.4526 -545.3453)">
	<stop  offset="0" style="stop-color:#F2EDEC"/>
	<stop  offset="8.000000e-02" style="stop-color:#E8E0DF"/>
	<stop  offset="0.35" style="stop-color:#CEBEBD"/>
	<stop  offset="0.59" style="stop-color:#BBA4A4"/>
	<stop  offset="0.82" style="stop-color:#B09595"/>
	<stop  offset="1" style="stop-color:#AC9090"/>
</linearGradient>
<path class="st3" d="M93.8,168.3l17.4-16.8l53.6,15.3c0,0,21.9,6.7,4.1,23l0,0c-16.3,16.7-38.9,10.7-38.9,10.7l-53.6-15.3
	L93.8,168.3L93.8,168.3z"/>
<linearGradient id="SVGID_2_" gradientUnits="userSpaceOnUse" x1="-770.6284" y1="936.297" x2="-756.6965" y2="936.297" gradientTransform="matrix(-0.97 0.24 0.24 0.97 -885.4526 -545.3453)">
	<stop  offset="0" style="stop-color:#F2EDEC"/>
	<stop  offset="8.000000e-02" style="stop-color:#E8E0DF"/>
	<stop  offset="0.35" style="stop-color:#CEBEBD"/>
	<stop  offset="0.59" style="stop-color:#BBA4A4"/>
	<stop  offset="0.82" style="stop-color:#B09595"/>
	<stop  offset="1" style="stop-color:#AC9090"/>
</linearGradient>
<polygon class="st4" points="76.6,185.1 74.4,176.3 89.9,180.8 "/>
<polygon class="st5" points="175.9,177 172.1,174.6 173.2,166.4 "/>
<path class="st6" d="M174.2,182.3c-3.5,5.1-8,9.4-13.3,12.6l-2.1-7c5.5-2.8,10.2-7,13.7-12.1L174.2,182.3z"/>
<path class="st6" d="M175.7,176.3c0.3,1.9-0.1,3.8-1.1,5.4l-1.6-6.4c0.8-1.7,1.1-3.6,0.9-5.5L175.7,176.3z"/>
<path class="st6" d="M157.7,189.1l1.6,6.5c-9.2,6.6-25.4,4.8-25.4,4.8l-1.9-7.5C140.8,194.4,149.7,193,157.7,189.1z"/>
<path class="st7" d="M132.6,200.2l-15.1-4.1l-1.8-7.1c0,0,13.6,4.1,15,3.8L132.6,200.2z"/>
<polygon class="st7" points="115.9,195.6 100.6,191.2 98.8,183.9 114.1,188.4 "/>
<polygon class="st7" points="99,190.5 77.5,184.8 75.7,177.4 97.2,183.4 "/>
<path class="st8" d="M94.4,157l-1.1,1.1c0,0-23.3-9.4-37.3-11.5l-2.3-9.3c15.7,3.5,30.9,8.7,45.5,15.5L94.4,157z"/>
<path class="st9" d="M91.7,159.6l17.4-16.8l53.6,15.3c0,0,21.9,6.7,4.1,23l0,0c-16.3,16.7-38.9,10.7-38.9,10.7l-53.6-15.3
	L91.7,159.6L91.7,159.6z"/>
<path class="st1" d="M31.7,167.2l40.9,12.7C58.5,177.3,44.8,173,31.7,167.2z"/>
<path class="st1" d="M43.1,145.9L84,158.7C69.9,156,56.2,151.7,43.1,145.9z"/>
<path class="st1" d="M32.1,158.1l22.7,7.9C47,164.2,39.4,161.6,32.1,158.1z"/>
<path class="st1" d="M47.8,153.1l22.7,7.9C62.6,159.2,55,156.5,47.8,153.1z"/>
<polygon class="st10" points="56,146.7 33.6,170.3 32.3,169.6 24.2,166.8 53.8,137.8 "/>
<path class="st11" d="M189.5,176.9c12.8,6.7,24.9,14.6,36.2,23.6c2.4,1.7,4.4,3.8,6.2,6.1c0.4,0.6,0.9,1.3,1.6,1.4
	c0.7,0.1,1.8-0.7,2.2-1.6c0.3-0.9,0.8-1.8,1.5-2.4L201,180.6c-3.2-2.1-6.9-4.2-10.6-3.4"/>
<path class="st11" d="M189.3,177.2c13.2,7,27.4,15.1,38.3,25.4c5.9,5.6,4.7,7.6,9.6,1.7c0.2-0.1,0.2-0.3,0.1-0.5c0,0,0,0-0.1-0.1
	l-27.1-17.6c-6.2-3.9-12.2-9.6-19.8-9.3c-0.5,0-0.5,0.7,0,0.7c10.1-0.4,22,10.9,30,16.1c4.1,2.4,8.2,5,12,7.8
	c1.2,0.9,7.1,7.5-0.3,4.9c-2.3-0.8-6.5-6.4-8.7-8.2c-2.6-2.1-5.3-4.1-8.1-6c-8.2-5.7-16.7-11-25.5-15.6c-0.4-0.2-0.8,0.4-0.4,0.6
	V177.2z"/>
<path class="st12" d="M96,30.7c0.1,0,0.2-0.1,0.2-0.2s-0.1-0.2-0.2-0.2s-0.2,0.1-0.2,0.2C95.7,30.6,95.8,30.7,96,30.7z"/>
<path class="st13" d="M-412.5-45.6c-1.8,1.1-4.1,1.2-6,0.1c-0.5,0.5-0.4,1.3,0.1,1.8l0.1,0.1c0.6,0.4,1.3,0.5,2.1,0.5
	c1.1,0,2.1-0.1,3.2-0.4c0.8-0.2,1.8-0.8,1.6-1.7c-0.1-0.4-0.3-0.7-0.7-0.9c-2-1.4-4.6-1-6.2,0.8"/>
<path class="st13" d="M-412.6-45.8c-1.7,1.1-3.9,1.1-5.7,0.1c-0.1-0.1-0.2-0.1-0.3,0c-1,1.3,0.2,2.5,1.5,2.7s4.7,0.2,5.7-1.3
	s-1-2.5-2.1-2.8c-1.8-0.4-3.6,0.2-4.8,1.6c-0.2,0.2,0.1,0.6,0.4,0.4c1.1-1.3,2.9-1.8,4.5-1.4c0.3,0,1.4,0.5,1.5,0.8l-0.5,1.7
	l-0.6,0.2c-1.1,0.3-2.2,0.4-3.3,0.4c-0.2,0-0.4,0-0.6,0c-0.8,0-1.2-0.5-1.2-1.6c0.2,0.1,0.4,0.2,0.6,0.3c0.6,0.2,1.1,0.3,1.7,0.3
	c1.2,0.1,2.5-0.3,3.5-0.9c0.1-0.1,0.2-0.2,0.1-0.3s-0.2-0.2-0.3-0.1l0,0L-412.6-45.8z"/>
<path class="st13" d="M95.5,31.6c-1.9,2.1-4.6,3.1-7.4,2.7c-0.2-0.4-0.3-0.9-0.2-1.4c2.6,0,5.5-0.2,7.3-2.1c0.1-0.1,0.2-0.2,0.4-0.3
	c0.2,0,0.4,0,0.3,0.2c0,0.2-0.4,0-0.3,0"/>
<path class="st13" d="M95.4,31.4c-1.1,1.2-2.5,2.1-4.1,2.5c-0.7,0.3-1.5,0.3-2.3,0.2c-0.3,0-0.9-0.6-0.6-0.9s0.8-0.1,1.1-0.1
	c1.1,0,2.2-0.2,3.3-0.5c0.4-0.1,3.4-1.5,3.3-2.1s-0.6-0.2-0.5,0.1v0.1c0,0.1,0.1,0.1,0.2,0.2c0.2,0.1,0.4,0,0.5-0.1s0.1-0.2,0-0.3
	c-0.5-1-1.6,0.5-2.1,0.8c-1.9,1-4.1,1.4-6.2,1.2c-0.1,0-0.2,0.1-0.2,0.2c-0.1,0.5,0,1,0.2,1.5c0,0.1,0.1,0.2,0.2,0.2
	c2.8,0.3,5.6-0.7,7.6-2.8C95.9,31.5,95.5,31.1,95.4,31.4L95.4,31.4z"/>
<path class="st13" d="M102.6,55.9c-1.4,1.5-3.2,2.5-5.2,2.8C96.7,59,96,59,95.3,58.8c-0.6-0.2-1.1-1.2-0.6-1.7
	c1.4,0.2,2.8,0.2,4.1,0c1.3-0.3,2.5-1.3,2.9-2.6c0.3,0.6,0.1,1.4-0.5,1.8"/>
<path class="st13" d="M102.4,55.8c-1,1.1-2.3,2-3.8,2.3c-0.6,0.3-1.2,0.5-1.9,0.5l-1.5-1.2h0.6c0.5,0,1,0,1.5,0c2,0.1,3.9-1,4.7-2.8
	h-0.5l-0.4,1.5c-0.2,0.2,0.1,0.6,0.4,0.4c0.7-0.5,0.9-1.3,0.5-2.1c0-0.1-0.2-0.2-0.3-0.2c-0.1,0-0.1,0.1-0.2,0.2
	c-1.1,2.8-4.3,2.7-6.8,2.5c-0.1,0-0.2,0-0.2,0.1c-0.7,1.3,0.7,2.3,1.9,2.1c2.4-0.2,4.7-1.3,6.4-3.1
	C103.1,55.8,102.7,55.5,102.4,55.8L102.4,55.8z"/>
<path class="st13" d="M106.2,78.6c-1.7,1.3-3.8,2.7-5.9,2.1c-0.2-0.6,0.1-1.2,0.6-1.5s1.1-0.4,1.7-0.5c1.7-0.3,3.3-0.9,4.7-1.9
	c0,0.4-0.1,0.7-0.3,1"/>
<path class="st13" d="M105.9,78.4c-0.9,0.7-1.8,1.3-2.8,1.8c-0.5,0.2-1.6,0.8-2.1,0.5l-0.4-1c0.4-0.3,0.9-0.5,1.4-0.5
	c1.8-0.4,3.6-1.1,5.2-2.1l-0.4-0.2l-0.3,0.9c-0.2,0.2,0.2,0.5,0.4,0.2c0.2-0.3,0.4-0.7,0.4-1.1c0-0.1-0.1-0.2-0.3-0.2h-0.1
	c-0.9,0.6-1.8,1.1-2.8,1.4c-0.9,0.3-1.9,0.4-2.9,0.7c-0.9,0.2-1.6,1-1.4,2v0.1c0,0.1,0.1,0.1,0.2,0.2c2.2,0.3,4.5-0.5,6-2.1
	C106.4,78.6,106.2,78.2,105.9,78.4L105.9,78.4z"/>
<path class="st13" d="M113.2,97.4c-1.5,2.4-4.3,3.6-7,3.1c-0.8-0.1-1.6-0.8-1.3-1.5c1.8,0.1,3.7-0.2,5.4-0.9
	c0.7-0.4,1.6-0.7,2.4-0.7"/>
<path class="st13" d="M113,97.2c-0.8,1.3-2.1,2.3-3.6,2.8c-0.8,0.3-4,0.8-3.9-0.4c-0.2-0.4,0-0.6,0.6-0.4c0.4,0,0.8,0,1.2,0
	c0.4-0.1,0.9-0.1,1.3-0.2c1.3-0.5,2.7-1,4.1-1.3c0.3,0,0.3-0.5,0-0.5c-1.1,0.2-2.1,0.5-3,1c-1.5,0.5-3.1,0.8-4.8,0.6
	c-0.1,0-0.2,0.1-0.2,0.2c-0.4,1.8,2.2,2.1,3.5,1.9c2.2-0.3,4.2-1.5,5.3-3.3c0.2-0.3-0.2-0.5-0.4-0.2L113,97.2z"/>
<path class="st13" d="M118,120.5c-1,0.9-2.1,1.7-3.3,2.2c-1.2,0.6-2.7,0.5-3.9-0.2c-0.3-0.2-0.5-0.5-0.4-0.8
	c0.1-0.2,0.3-0.3,0.5-0.3c2.6-0.6,5.5-0.7,7.6-2.4c-0.1,0.5-0.4,0.9-0.9,1.1"/>
<path class="st13" d="M117.8,120.4c-1,1-2.3,1.8-3.7,2.3c-0.9,0.2-2.2,0.5-2.7-0.5c-0.5-0.4-0.5-0.6,0.1-0.6l1-0.2
	c2.2-0.2,4.3-0.9,6.2-2.1l-0.4-0.3l-0.7,0.9C117.4,120.1,117.6,120.5,117.8,120.4c0.5-0.4,0.8-0.8,1-1.3c0-0.1-0.1-0.3-0.2-0.3
	s-0.1,0-0.2,0c-1.8,1.2-3.9,1.9-6,2.1c-0.7,0.1-2.6,0.1-2.1,1.3c0.5,1.2,2.6,1.2,3.5,1c1.7-0.5,3.2-1.4,4.4-2.6
	c0.2-0.2-0.1-0.6-0.4-0.4L117.8,120.4z"/>
<path class="st13" d="M123.5,139.6c-1.1,2.7-4.1,4.2-6.9,3.4c-0.6-0.2-1.2-0.7-0.9-1.3c2.2,0.3,4.4-0.3,6.2-1.6
	c0.5-0.4,1.2-0.9,1.8-0.6"/>
<path class="st13" d="M123.3,139.5c-0.5,1.3-1.5,2.3-2.7,2.9c-0.7,0.4-1.5,0.6-2.3,0.6c-0.2,0-2.8-0.2-2.1-0.9c0.5,0,1,0,1.6,0
	c0.7-0.1,1.4-0.2,2.1-0.5c1.2-0.4,2.7-1.9,4-1.8c0.3,0,0.3-0.5,0-0.5c-1.2-0.1-2.1,0.8-3,1.3c-1.5,0.8-3.3,1.1-5,0.9
	c-0.1,0-0.2,0.1-0.2,0.2c-0.4,1.7,2.2,1.9,3.3,1.8c2.2-0.2,4.1-1.7,5-3.7c0.1-0.3-0.3-0.5-0.4-0.2L123.3,139.5z"/>
<path class="st11" d="M25.2,172l-0.5-5.6c8.1,0.5,15.4,4.6,22.7,7.9c10.7,4.5,21.8,8.3,33.1,11.1c36.9,10.3,74.5,19.7,112.9,20.3
	c9.6,0.1,19.1-0.2,28.7-0.6l14.1-0.6c-3.2,5.6-10.7,6.6-17.1,6.9c-38.6,1.3-77.1-3.5-114.2-14.1c-26.8-7.7-52.8-18.5-80-25"/>
<path class="st11" d="M25.6,172c-0.9-9.9,20,1.9,25.2,4.1c7.2,2.9,14.6,5.4,22.2,7.5c17.7,5.2,35.6,9.9,53.6,13.9
	c15.5,3.5,31.2,6.1,47.1,7.6c9.3,0.8,18.6,1.2,28,1.1c8,0,19.8-2.8,27.5-0.9c5.6-1,5,0.6-1.7,4.8l-5.5,0.8
	c-4.7,0.5-9.6,0.4-14.4,0.4c-8.3,0-16.7-0.3-25-0.8c-18.6-1.2-37-3.8-55.2-7.8C92.5,195.1,59.7,180.6,25,172
	c-0.4-0.1-0.6,0.6-0.2,0.7c39.7,9.8,77.1,26.5,117.5,33.7c19,3.3,38.2,5.2,57.5,5.6c11.2,0.2,28.9,3.2,36.7-7.2
	c0.1-0.2,0.1-0.4-0.1-0.5c-0.1,0-0.1-0.1-0.2-0.1c-38.7,1.6-75.3,0.4-113.2-8.2c-18-4.1-35.9-8.8-53.6-14.1
	c-14.8-4.5-29.1-13.8-44.6-15.9c-0.2,0-0.4,0.2-0.4,0.4l0.5,5.6C24.9,172.4,25.6,172.4,25.6,172L25.6,172z"/>
<path class="st11" d="M53.7,137.6l0.2-4.1c-10.1,8-19.3,17.2-27.4,27.3c-1.5,1.4-2.2,3.4-1.9,5.4l29.6-28.7"/>
<path class="st11" d="M54.1,137.6l0.2-4.1c0-0.3-0.4-0.4-0.6-0.2c-6.8,5.4-13.3,11.4-19.2,17.8c-3.6,4-10.3,9.4-10.2,15.2
	c0,0.2,0.2,0.3,0.4,0.3c0.1,0,0.2,0,0.2-0.1l29.6-28.7c0.3-0.3-0.2-0.8-0.5-0.5l-15.7,15.2l-7.4,7.2c-0.8,0.8-2.6,3.3-3.7,3.6
	c-0.7,1.2-1.1,1.2-1.2,0.1c-0.8-1.6-0.1-3,2.3-4.1c3.8-4.7,8-9.2,12.4-13.5c2.4-2.4,4.9-4.7,7.5-7c1.8-1.6,5.6-6.2,5.3-1.2
	C53.5,138.1,54.2,138.1,54.1,137.6L54.1,137.6z"/>
<path class="st11" d="M53.8,135.1c0,0.9,0.3,1.8,0.8,2.5c0.5,0.4,1,0.7,1.6,0.8c3.2,1,6.6,1.8,9.9,2.5c0.6,0.2,1.2,0.2,1.8,0.2
	c0.8,0,1.5-0.7,1.5-1.5c0-0.4-0.2-0.9-0.5-1.1c-0.4-0.4-0.9-0.7-1.5-0.9c-4.3-1.9-8.8-3.3-13.4-4.1l2.7,1.4"/>
<path class="st11" d="M53.4,135.1c0.4,3.5,2.8,3.7,6,4.6c2.3,0.7,4.7,1.3,7,1.7c0.8,0.3,1.7,0.1,2.5-0.3c4.5-3.8-13.3-7.6-15-7.9
	c-0.4,0-0.6,0.4-0.3,0.6l2.7,1.4c0.4,0.2,0.8-0.4,0.4-0.6l-2.7-1.4l-0.3,0.6c2.1,0.4,4.2,0.8,6.3,1.4c2.1,0.6,5.5,1.2,7,2.6l0.8,0.4
	c-0.4,2.1-1.4,2.7-2.8,2.1c-1.1-0.1-2.2-0.4-3.3-0.8c-2.6-0.6-7.2-1.1-7.6-4.5C54.1,134.6,53.4,134.6,53.4,135.1L53.4,135.1z"/>
<path class="st14" d="M236.3,204.5c-27.7-23.5-64.2-33.8-100.1-28.4C139,41.8,89.5,6.4,89.5,6.4C234.2,56.6,236.3,204.5,236.3,204.5
	z"/>
<polygon class="st14" points="120.2,156.8 60.4,139.6 82.9,8 "/>
<polygon class="st15" points="120.4,156.9 121.2,160.3 60.4,139.6 120.2,156.8 "/>
<rect x="102.7" y="4.8" transform="matrix(0.97 -0.2429 0.2429 0.97 -17.7263 28.3242)" class="st11" width="6.6" height="162.5"/>
<path class="st11" d="M123.1,163.9c1.3-1.1,2.9-1.5,4.6-1.1c0.8,0,1.4,0.7,1.3,1.5c0,0.5-0.3,0.9-0.7,1.1c-1.3,1.1-2.9,1.5-4.6,1.1
	c-0.8,0-1.4-0.7-1.3-1.5C122.5,164.6,122.7,164.2,123.1,163.9z"/>
<path class="st11" d="M-417.5-45.3c1.3-1.1,2.9-1.5,4.6-1.1c0.8,0,1.4,0.7,1.3,1.5c0,0.5-0.3,0.9-0.7,1.1c-1.3,1.1-2.9,1.5-4.6,1.1
	c-0.8,0-1.4-0.7-1.3-1.5C-418.2-44.7-417.9-45.1-417.5-45.3z"/>
<path class="st14" d="M172.7,65.7c2-3.6,5.4-6.1,9.5-6.9c4-0.7,8-1.1,12.1-1.2c6.7-0.5,13.2-2,19.4-4.6c2.3-0.9,5.2-1.9,6.9-0.1
	c0.5,0.6,0.9,1.3,1.1,2.1c6.3,17.5-2.8,36.8-20.3,43.1c-6.4,2.3-13.4,2.6-20,0.9"/>
<path class="st14" d="M77.5,57.9L58.3,36c-4.1,9.2-4.9,19.6-2.4,29.3c2.7,9.8,9.8,17.8,19.3,21.5"/>
<path class="st16" d="M63.3,51.7c1.5,2.1,3.1,4.1,4.7,6c0.9,1,1.8,2,2.7,3.1c1.1,1.7,0.5,3.1,0,4.8c0,0.2,0.1,0.3,0.2,0.4
	c0.2,0,0.3-0.1,0.4-0.2c0.6-2.1,1.4-3.4,0.1-5.1c-2.4-3.2-5.2-6.2-7.6-9.4C63.5,51,63,51.3,63.3,51.7L63.3,51.7z"/>
<path class="st16" d="M187.4,72.9c-0.7-2.1-1.2-3.1,1.3-4.6c2.5-1.6,6.5-1.7,9-2.1c5.8-0.7,11.5-1.9,17.1-3.4
	c0.4-0.1,0.2-0.7-0.2-0.6c-8.2,2.6-16.9,2.7-25.1,5.3c-5.4,1.7-4.1,1.6-2.7,5.7C186.9,73.5,187.5,73.3,187.4,72.9L187.4,72.9z"/>
<path class="st16" d="M139.6,124.1c22.9,14.7,52.2,26.1,77.1,9c0.3-0.2,0-0.8-0.3-0.5c-24.7,17-53.7,5.6-76.5-9
	C139.6,123.3,139.3,123.9,139.6,124.1L139.6,124.1z"/>
<path class="st16" d="M170.2,60.9c-13.9-7-30.8-2.6-39.5,10.3c-0.2,0.3,0.3,0.6,0.5,0.3c8.5-12.6,25.1-16.9,38.6-10
	C170.2,61.6,170.5,61.1,170.2,60.9L170.2,60.9z"/>
<path class="st16" d="M78.1,55.2c2.1-3.3,6.8-2.9,9.4-0.6c2.2,2.3,3.8,5.2,4.7,8.2c0.1,0.4,0.7,0.2,0.6-0.2
	c-1.4-3.7-3.1-8.1-6.9-9.9c-2.9-1.5-6.5-0.6-8.4,2.1C77.3,55.3,77.9,55.6,78.1,55.2L78.1,55.2z"/>
<path class="st16" d="M73.9,96.7c5.7,12.5,17.9,20.7,31.6,21.2c0.4,0,0.4-0.6,0-0.6c-13.5-0.5-25.5-8.6-31-20.9
	C74.3,96,73.7,96.4,73.9,96.7L73.9,96.7z"/>
<path class="st17" d="M43.3,182c2.2,0.8,3.9,2.5,4.6,4.7c0.5,2.1-0.7,3.2-2.7,2.6c-2.2-0.8-3.9-2.5-4.6-4.7
	C40.1,182.6,41.3,181.4,43.3,182z"/>
<path class="st18" d="M39.8,184.4c0.8,2.7,2.9,4.8,5.6,5.7c2.5,0.7,3.9-0.7,3.3-3.2c-0.8-2.7-2.9-4.8-5.6-5.7
	C40.6,180.4,39.2,181.9,39.8,184.4z M40.6,184.6c-0.5-2.1,0.7-3.2,2.7-2.6c2.2,0.8,3.9,2.5,4.6,4.7c0.5,2.1-0.7,3.2-2.7,2.6
	C42.9,188.6,41.2,186.8,40.6,184.6L40.6,184.6z"/>
<path class="st17" d="M63.1,188.9c2.2,0.8,3.9,2.5,4.6,4.7c0.5,2.1-0.7,3.2-2.7,2.6c-2.2-0.8-3.9-2.5-4.6-4.7
	C59.8,189.5,61,188.3,63.1,188.9z"/>
<path class="st18" d="M59.5,191.3c0.8,2.7,2.9,4.8,5.6,5.7c2.5,0.7,3.9-0.7,3.3-3.2c-0.8-2.7-2.9-4.8-5.6-5.7
	C60.4,187.4,58.9,188.8,59.5,191.3z M60.3,191.5c-0.5-2.1,0.7-3.2,2.7-2.6c2.2,0.8,3.9,2.5,4.6,4.7c0.5,2.1-0.7,3.2-2.7,2.6
	C62.7,195.5,61,193.7,60.3,191.5L60.3,191.5z"/>
<path class="st19" d="M85.3,195.3c2.2,0.8,3.9,2.5,4.6,4.7c0.5,2.1-0.7,3.2-2.7,2.6c-2.2-0.8-3.9-2.5-4.6-4.7
	C82.1,195.9,83.3,194.7,85.3,195.3z"/>
<path class="st18" d="M81.8,197.7c0.8,2.7,2.9,4.8,5.6,5.7c2.5,0.7,3.9-0.7,3.3-3.2c-0.8-2.7-2.9-4.8-5.6-5.7
	C82.7,193.8,81.2,195.2,81.8,197.7z M82.6,197.9c-0.5-2.1,0.7-3.2,2.7-2.6c2.2,0.8,3.9,2.5,4.6,4.7c0.5,2.1-0.7,3.2-2.7,2.6
	C84.9,201.9,83.3,200.1,82.6,197.9L82.6,197.9z"/>
</svg>
