<?xml version="1.0" encoding="utf-8"?>
<!-- Generator: Adobe Illustrator 19.2.1, SVG Export Plug-In . SVG Version: 6.00 Build 0)  -->
<svg version="1.1" id="Layer_1" xmlns="http://www.w3.org/2000/svg" xmlns:xlink="http://www.w3.org/1999/xlink" x="0px" y="0px"
	 viewBox="0 0 300 40.5" style="enable-background:new 0 0 300 40.5;" xml:space="preserve">
<style type="text/css">
	.st0{opacity:0.15;}
</style>
<path class="st0" d="M298.3,30.2c-1.2-0.4-3-0.9-5.4-1.7h0c-1.5-0.5-3.2-1-5.3-1.7h0c-1.7-0.6-3.5-1.2-5.5-1.9
	c-8.7-3.2-32.3-3.5-43.7-3.5H71.8L45.9,10.7L36.8,7l0,0L22.3,1H3.8l21.3,20.4H6v2.9H0.4V25l10.7,0.6C28.7,28,88.2,35.7,134,36.1v0.6
	h1.4v1.1c-0.8,0.1-1.4,0.4-1.4,0.7c0,0.4,0.8,0.7,1.9,0.7c1,0,1.9-0.3,1.9-0.7c0-0.3-0.6-0.6-1.4-0.7v-1.1h1.4v-0.6h1.8v0.6h1.4v1.1
	c-0.8,0.1-1.4,0.4-1.4,0.7c0,0.4,0.8,0.7,1.9,0.7c1,0,1.9-0.3,1.9-0.7c0-0.3-0.6-0.6-1.4-0.7v-1.1h1.4v-0.6h1.5v1.1
	c0.6,0.1,1.2,0.1,1.7,0.2v0.3c-0.8,0.1-1.4,0.4-1.4,0.7c0,0.4,0.8,0.7,1.9,0.7c1,0,1.9-0.3,1.9-0.7c0-0.3-0.6-0.6-1.4-0.7v-0.2
	c12.2,1.2,22.6,1.4,22.6,1.4h2.8v-2.8h3.4v0.1c11.8,1.2,22.3,1.4,22.3,1.4h2.8v-1.5h37.2c8.2,0,15.2,0,21.3-0.1v0.6h1.4v1.1
	c-0.8,0.1-1.4,0.4-1.4,0.7c0,0.4,0.8,0.7,1.9,0.7s1.9-0.3,1.9-0.7c0-0.3-0.6-0.6-1.4-0.7v-1.1h1.4V36c31.2-0.4,33.2-1.5,34.9-2.2
	C300.4,33.1,300.8,31.1,298.3,30.2z"/>
</svg>
