<?xml version="1.0" encoding="utf-8"?>
<!-- Generator: Adobe Illustrator 21.1.0, SVG Export Plug-In . SVG Version: 6.00 Build 0)  -->
<svg version="1.1" id="Layer_1" xmlns="http://www.w3.org/2000/svg" xmlns:xlink="http://www.w3.org/1999/xlink" x="0px" y="0px"
	 viewBox="0 0 300 101.8" style="enable-background:new 0 0 300 101.8;" xml:space="preserve">
<style type="text/css">
	.st0{fill:#AF2F12;}
	.st1{fill:#F2BF30;}
	.st2{fill:#B77F02;}
	.st3{fill:#D8A105;}
	.st4{fill:#FFE75C;}
	.st5{fill:#E0A410;}
	.st6{fill:#8C1906;}
	.st7{fill:#822F12;}
	.st8{fill:#7F5903;}
	.st9{fill:#E8AF1F;}
	.st10{fill:#56A5C1;}
	.st11{fill:#67BFD6;}
	.st12{fill:#CC8E06;}
	.st13{fill:#EFEBEA;}
	.st14{opacity:0.69;}
	.st15{fill:#FFFFFF;}
	.st16{fill:#6BBFD6;}
	.st17{fill:#42210B;}
	.st18{opacity:0.74;}
</style>
<path class="st0" d="M159.1,40.2c-0.1-0.8,0.3-1.5,0.9-2c0.6-0.3,1.2-0.5,1.9-0.4l15.3-0.8c0.3-0.1,0.7,0,1,0.2
	c0.4,0.4,0.7,0.8,0.8,1.4c0.5,1.6,1,3.6,0.1,4.9c-0.6,0.7-1.4,1.2-2.2,1.3c-4.4,1.1-9,1.5-13.6,1.2c-0.8,0-1.6-0.2-2.2-0.7
	c-1.3-1.1-1.4-3.3-1.1-5.2"/>
<path class="st0" d="M159.2,40.2c0.2-3.4,9.7-2.7,11.9-2.8c1.6-0.1,3.5-0.4,5.1-0.3c1.3,0.1,2.1,0.2,2.8,1.8
	c0.3,0.8,0.5,1.7,0.5,2.5c-0.2,1.1-1.7,2.8-2.7,3.2c-0.9,0.3-1.9,0.5-2.9,0.6c-1.8,0.3-3.5,0.5-5.3,0.6c-1.6,0.2-3.2,0.2-4.9,0
	c-3.8-0.6-4.1-3-3.7-5.8c0-0.1-0.1-0.1-0.2,0c-0.2,1.7-0.3,4.1,1.1,5.3s4.4,0.8,6.2,0.8c3.3,0,6.5-0.5,9.7-1.3
	c1.5-0.4,2.5-1,2.8-2.6c0.2-1.3-0.1-4.3-1.3-5.1c-0.3-0.2-0.7-0.2-1-0.2c-1.8-0.2-3.8,0.2-5.6,0.3c-3.4,0.2-7,0-10.4,0.5
	c-1.4,0.3-2.1,1-2.2,2.4C159,40.2,159.2,40.2,159.2,40.2L159.2,40.2z"/>
<path class="st1" d="M131.9,24.1c-3.6-4.5-6.6-9.4-8.9-14.7c-0.3-0.7-0.7-1.5-1.4-1.5c-1,0-1.1,1.6-0.9,2.7l2.4,11.2
	c0.1,0.7,0.3,1.4,0.6,2.1c1,2,3.2,2.8,5.1,3.4c0.5-1.6,1.8-2.7,3.4-3.1"/>
<path class="st2" d="M154.3,40.9l-17.9-14c-1.8-1.4-3.7-2.9-5.8-3.6s-4.4-0.6-6.2,1c0.7,2.8,2.4,5.1,4,7.2c2.7,3.6,5.6,7,8.5,10.3
	c1.1,1.3,2.3,2.5,3.7,3.1c1.4,0.5,3,0.3,4.4-0.1c3-0.8,6-2.1,8.9-3.4C154.1,41.4,154.2,41.2,154.3,40.9c0-0.1-0.3-0.2-0.3,0"/>
<path class="st1" d="M242.9,48.2c1.8,0,3.7-0.1,5.4,1c1.9,1.2,2.8,3.4,2.4,5.6c-0.4,1.7-1.8,2.8-3,3.7c-12,8.1-26.1,9.4-39.6,10.4
	c-14.8,1.1-29.7,1.9-44.6,2.7c-24.4,1.2-49.4,1.7-72.7-7.4c-5.1-2-10.2-4.5-15.5-6c-3.1-0.9-6.4-1.4-9.2-3.4s-5-6-4.3-10
	c2.7-1.1,5.6,0,8.3,0.7c9.6,2.5,19.5,1,29.2-0.2c40.7-5.2,81.6-6.1,122.5-6.9c4.2-0.1,8.5-0.2,12.5,1.3c4.5,1.6,8,5.2,9.5,9.7"/>
<path class="st3" d="M62,44.7c4.6,4.2,10.5,5.3,16.1,6c9.1,1,18.3,1,27.5,0.8c22.9-0.5,45.7-2,68.5-4.5c12.8-1.4,25.7-3.2,38.6-2.7
	s25.9,3.4,37.4,10.9c-5-6.7-10.3-13.6-17.2-16.6c-5.3-2.3-11.1-2.1-16.8-1.8L80.9,44c-5.7,0.3-11.4,0.6-17.1-0.3
	c-0.7-0.1-1.6-0.2-2.1,0.5c-0.5,0.7,0.3,2.2,0.8,1.5"/>
<path class="st4" d="M249.4,56.2c-26.2,8.8-53.9,1.9-80.9,4.3c-14.1,1.3-28.1,5.1-42.3,5.6c-16.1,0.5-32-3.2-47.8-7.1
	c12.7,8.4,27,12.5,41.2,14.1s28.6,0.9,42.9,0c18.2-1.1,36.4-2.4,54.5-4.1c6.2-0.6,12.4-1.2,18.4-3c5.6-1.7,11.3-4.8,14.6-10.7"/>
<path class="st5" d="M149,66c-1.4,6.5-5.8,11.1-10.4,14.5c-4.6,3.4-9.5,6.1-13.3,10.9c-0.5,0.5-0.8,1.2-0.8,2c0,0.6,0.3,1.1,0.6,1.6
	c1.9,2.7,5,3.3,7.8,2.7s5.2-2.6,7.6-4.4c15-11.3,31.2-20.9,48.3-28.5c-5.6-2.5-11.8-2.2-17.7-1.7c-7.1,0.5-14.2,1.3-21.3,2.2
	C149.5,65.2,149.5,65.2,149,66"/>
<path class="st1" d="M188.9,64.7c-11.1,0.8-21.4,7.5-31.3,14.1c-5.9,3.9-11.8,7.9-17.6,12.1c-3,2.1-5.8,4.3-8.6,6.7
	c-3.4,3.1,1.4,1.2,3.2,0.3C136.7,97,155,84,162.1,79.3c4.1-2.7,8.7-5.3,12.7-8.2c4.6-3.3,8.8-4.2,13.7-6.6"/>
<path class="st6" d="M166.6,84c-3.2-0.6-6.1-2.2-8.2-4.6c1.5-2.2,3.6-4,6.1-5c0.5-0.3,1.1-0.3,1.6-0.1c0.6,0.3,1,1.2,1.2,2.1
	c0.5,2.5-0.4,5.3-2,6.8"/>
<path class="st7" d="M166.6,84c-1.8-0.3-3.6-1-5.1-2c-0.7-0.5-2-1.1-2.4-1.9c-0.6-1.1,0.6-2.2,1.4-3c0.7-0.7,1.6-1.3,2.4-1.8
	c0.4-0.2,1.1-0.7,1.6-0.7c0.8,0,2.4,1.2,2.7,1.9c0.8,2.2-0.5,5.2-2,6.7c0,0,0,0.1,0,0.1c0,0,0.1,0,0.1,0c1.2-1.2,1.9-2.8,2.1-4.5
	c0.1-1.2,0.1-3.3-0.9-4.2c-1-0.9-2.7,0-3.7,0.6c-1.8,1.1-3.4,2.5-4.6,4.2c0,0,0,0.1,0,0.1c2.2,2.4,5.1,4,8.3,4.7
	C166.7,84.1,166.7,84,166.6,84L166.6,84z"/>
<path class="st4" d="M132.7,99.3c-1.2,0-2.1-1.5-2.8-2.8l-7.2-13.4c-0.7-1.4-1.5-2.7-2.5-3.8c-1-1.1-2.3-1.8-3.6-1.5
	c-0.8,0.1-1.5,0.7-1.7,1.5c-0.1,0.5-0.2,1.1-0.1,1.7c0.4,5,2,9.7,3.6,14.3c0.2,0.7,0.5,1.4,1,2.1c0.5,0.6,1.2,1,2,1.2
	c3.8,1.3,7.9,1.5,11.8,0.3"/>
<path class="st8" d="M108.3,42.6c-6.9-3.9-15-4.2-21.4-9.1c-3.7-2.8-6.6-7-9.5-11l-12-17.2c-0.7-1.1-1.5-2.1-2.6-2.9
	c-1.6-1.1-3.5-0.9-5.3-0.7c-1.2,0.1-2.4,0.3-3.3,1.1c-1,0.8-1.5,2.6-0.9,3.8s2.1,1.3,2.9,2.2c0.5,0.7,0.9,1.5,1.1,2.4
	c3.1,10.2,5.9,20.5,8.5,30.8c0.3,1.2,0.6,2.5,1.4,3.2c0.9,0.9,2,1,3.1,1c7.3,0.3,14.7,0.2,22-0.3C98,45.8,103.4,46,108.3,42.6"/>
<path class="st9" d="M87.6,56.9c-1.1,1.6-2.7,2.1-4.3,2.6c-5.6,1.7-11.3,3.3-16.9,4.7c-2.3,0.6-4.6,1.2-6.9,1.1
	c-3.4-0.1-6.7-1.7-9.8-3.3c0.5-0.3,1.1-0.5,1.6-0.6c12.2-2.7,24.4-5.4,36.8-5.5"/>
<path class="st10" d="M240.9,45.5c0.6,1.1,1.1,2.2,1.5,3.4c0.1,0.2,0.1,0.4,0.1,0.7c-0.1,0.2-0.2,0.4-0.4,0.5
	c-2.5,1.7-5.3,2.2-8.1,2.6c-0.3,0.1-0.5,0-0.8-0.1c-0.2-0.1-0.4-0.3-0.5-0.6c-0.4-0.6-0.6-1.2-0.9-1.8c3.4-0.3,6.7-2.2,9.1-5.1
	c0.3,0.2,0.4,0.5,0.4,0.8"/>
<path class="st10" d="M240.8,45.6c0.9,1.5,1.7,3.2,0.5,4.9c-0.6,0.8-2.6,1.2-3.6,1.5c-0.9,0.3-1.8,0.5-2.8,0.5c-0.7,0-2-0.1-2.4-0.7
	c-0.2-0.3-0.3-1.3-0.1-1.5c0.3-0.3,2-0.5,2.5-0.7c0.6-0.2,1.2-0.5,1.8-0.8c0.7-0.4,1.4-0.8,2-1.4c0.2-0.2,2.3-2.4,2.5-1.5
	c0,0.1,0.2,0.1,0.2,0c-0.1-0.6,0-0.4-0.4-0.8c0,0-0.1,0-0.1,0c0,0,0,0,0,0c-2.4,2.8-5.4,4.7-9.1,5.1c0,0-0.1,0-0.1,0.1
	c0.4,0.9,0.7,2.3,1.8,2.6c0.5,0.1,1.4-0.2,1.8-0.2c1.2-0.2,2.3-0.4,3.5-0.8c1.1-0.3,3.1-0.9,3.6-2c0.5-1.1-0.9-3.4-1.4-4.3
	c0,0-0.1-0.1-0.1,0C240.8,45.5,240.8,45.5,240.8,45.6L240.8,45.6z"/>
<path class="st11" d="M213.9,50.1L214,54c0,0.2,0,0.5-0.1,0.7c-0.1,0.2-0.4,0.3-0.6,0.3l-4.3,0.5c-0.1,0-0.3,0-0.4-0.1
	c-0.2-0.2-0.2-0.5-0.2-0.7v-2c0-0.2,0-0.5,0.1-0.7c0.1-0.2,0.3-0.3,0.5-0.3l5.1-1.4"/>
<path class="st11" d="M213.9,50.1l0.1,2.2c0,0.7,0.3,2.3-0.4,2.7c-0.5,0.3-1.6,0.2-2.2,0.3s-1.6,0.4-2.2,0.2c-0.9-0.2-0.8-1.2-0.8-2
	c-0.1-0.5,0-0.9,0.3-1.3c0.4-0.6,0.6-0.6,1.2-0.7l4.2-1.1l0,0l-3.6,1c-0.5,0.1-1.6,0.2-2,0.7c-0.4,0.5-0.1,1.6-0.1,2.1
	c0,0.3-0.1,1.1,0.2,1.3c0.4,0.4,1.7-0.1,2.2-0.1l1.9-0.2c0.3,0,0.7,0,1-0.2c0.4-0.2,0.4-0.5,0.4-0.9
	C214.1,52.8,213.9,51.4,213.9,50.1L213.9,50.1L213.9,50.1z"/>
<path class="st11" d="M204.5,53.2c-0.3,0.8,0.3,2.1-0.3,2.7c-0.2,0.1-0.4,0.2-0.7,0.2l-4,0.2c-0.4-1-0.7-2.1-0.9-3.2l5.7-0.5"/>
<path class="st11" d="M204.5,53.2c-0.3,1.2,0.4,2.4-1.2,2.8c-0.7,0.1-1.3,0.1-2,0.1c-0.8,0-1.5,0.3-2-0.5c-0.2-0.5-0.4-1-0.5-1.6
	c-0.3-1,0.3-1.1,1.2-1.1l4.2-0.4l0,0l-5.7,0.5l0,0c0.2,1.1,0.6,2.1,0.9,3.2l0,0l2.7-0.1c0.5,0,1.4,0.1,1.9-0.2
	C204.8,55.4,204.3,53.9,204.5,53.2L204.5,53.2L204.5,53.2z"/>
<path class="st11" d="M190.6,52.9c0.9-0.4,1.9-0.5,2.9-0.4c1.1,0.3,1.9,1.2,2,2.3c0.1,0.4,0,0.8-0.3,1.2c-0.3,0.2-0.6,0.4-1,0.3
	l-3.7,0c-0.2,0-0.4,0-0.5-0.2c-0.1-0.1-0.1-0.3-0.1-0.5c0-0.9,0-1.8,0-2.7"/>
<path class="st11" d="M190.6,52.9c1.4-0.4,2.9-0.8,4.1,0.3c0.5,0.5,0.8,1.2,0.8,1.9c-0.2,1.3-1,1.1-1.9,1.2h-1.4
	c-0.4,0-1.3,0.2-1.6,0c-1-0.4-0.6-2.5-0.6-3.4l0,0c0,0.9-0.3,2.2,0,3c0.1,0.2,0.1,0.3,0.3,0.4c0.4,0.2,1.1,0,1.5,0h1.6
	c0.5,0,1.3,0.1,1.7-0.2c0.8-0.7,0.2-2.2-0.3-2.8C193.7,52,192.1,52.4,190.6,52.9L190.6,52.9L190.6,52.9z"/>
<path class="st11" d="M176,53l5.4-0.8c0.3,1.2,0.5,2.5,0.4,3.8c-1.4,0.3-2.8,0.6-4.2,0.6c-0.2,0-0.4,0-0.6-0.1
	c-1-0.5,0.2-2.9-0.6-3.7"/>
<path class="st11" d="M176,53l2.5-0.4c0.7-0.1,1.8-0.5,2.5-0.4c0.9,0.2,0.8,1.7,0.8,2.4c0,0.5,0.1,1-0.4,1.4
	c-0.3,0.1-0.7,0.2-1.1,0.2c-0.8,0.2-1.7,0.3-2.6,0.3c-1.2-0.1-1.2-0.7-1.2-1.7c0-0.7,0.2-1.5-0.3-2.1l0,0c0.8,1-0.4,2.8,0.5,3.6
	c0.4,0.4,1.1,0.2,1.6,0.1c1.1-0.1,2.3-0.3,3.4-0.6l0,0c0.1-1.3,0-2.6-0.4-3.8l0,0L176,53L176,53L176,53z"/>
<path class="st11" d="M159.4,53.9l3.3-0.5c0.3-0.1,0.6-0.1,0.9,0c1,0.4,1.2,2,1.1,3.3c-1.6,0.4-3.2,0.7-4.8,0.7
	c-0.2,0-0.4,0-0.6-0.1c-0.2-0.2-0.3-0.5-0.3-0.7c-0.1-0.8-0.2-1.7-0.1-2.5"/>
<path class="st11" d="M159.4,53.9c1.1-0.3,2.2-0.4,3.3-0.5c1.1,0,1.7,0.4,1.9,1.5c0.1,0.5,0.3,1.4-0.1,1.8c-0.4,0.4-1.2,0.4-1.7,0.5
	c-0.7,0.1-1.5,0.2-2.2,0.3c-0.9,0.1-1.5-0.3-1.6-1.3c-0.1-0.7-0.1-1.4-0.1-2.1l0,0c0,0.8-0.3,3,0.7,3.4c0.6,0.2,1.7-0.1,2.3-0.2
	c1-0.1,1.9-0.3,2.8-0.6l0,0c0-1,0-2.7-0.9-3.2c-0.4-0.2-0.8-0.2-1.2-0.1C161.6,53.5,160.5,53.7,159.4,53.9L159.4,53.9L159.4,53.9z"
	/>
<path class="st11" d="M148.1,54.7l6.4-0.4l0.2,2.8l-5.2,0.8c-0.4,0.1-0.8,0-1.1-0.3c-0.3-0.4-0.2-1-0.2-1.5c0-0.5-0.2-1.2-0.6-1.2"
	/>
<path class="st11" d="M148.1,54.7l4.8-0.3c0.5,0,0.9-0.2,1.4,0.1s0.3,0.6,0.4,1.2c0.1,1.1,0,1.4-1.2,1.6l-2.3,0.3
	c-0.3,0.1-0.7,0.1-1.1,0.1l-1.8-1.3c0-0.2,0-0.4,0-0.6c0-0.5-0.1-0.9-0.6-1.1l0,0c1.4,0.5-0.2,2.8,1.5,3.1c0.7,0,1.3-0.1,2-0.3
	l3.6-0.5l0,0l-0.2-2.8l0,0L148.1,54.7L148.1,54.7L148.1,54.7z"/>
<path class="st11" d="M140.2,55.2l3.4-0.1c0.2,0,0.3,0,0.5,0.1c0.2,0.2,0.3,0.5,0.4,0.7c0.2,0.9,0.4,1.9,0.4,2.9
	c-1.9,0-3.9,0.2-5.8,0.4c-0.3-1.1-0.5-2.2-0.5-3.4l2.1-0.5"/>
<path class="st11" d="M140.2,55.2l1.9-0.1c1.1,0,1.9-0.2,2.4,1c0.3,0.6,0.5,1.9,0.1,2.4c-0.5,0.5-1.5,0.3-2.2,0.3
	c-0.6,0-1.3,0.1-1.9,0.1c-0.8,0.1-1.3,0.2-1.7-0.7c-0.3-0.7-0.5-1.8-0.1-2.4c0.4-0.6,1.3-0.5,1.9-0.7l0,0l-2.1,0.5l0,0
	c0,1.2,0.2,2.3,0.5,3.4l0,0c1.9-0.2,3.9-0.4,5.8-0.4l0,0c0-0.8,0.1-3.1-0.8-3.6c-0.3-0.1-0.7-0.1-1-0.1
	C142.2,55.1,141.2,55.1,140.2,55.2L140.2,55.2L140.2,55.2z"/>
<path class="st11" d="M129,56.2l5.6-0.7c0.2-0.1,0.4,0,0.6,0.1c0.2,0.2,0.3,0.5,0.3,0.7l0.4,2.3l-5.1,0.5c-0.2,0-0.4,0-0.5-0.1
	c-0.6-0.4-0.1-1.7-0.5-2.4"/>
<path class="st11" d="M129,56.2l4-0.5c1-0.1,1.8-0.4,2.4,0.7c0.2,0.4,0.4,1.8,0.1,2.1c-0.6,0.7-3.1,0.5-4,0.6
	c-0.5,0-0.7,0.1-1.2-0.2c-0.5-0.3-0.4-0.5-0.5-1.1c0-0.4,0-0.8-0.2-1.2l0,0c0.2,0.7-0.2,2.1,0.6,2.5c0.5,0.2,1.6-0.1,2.2-0.1
	l3.3-0.3l0,0c-0.2-0.9,0-2.9-1-3.2c-0.6-0.2-2,0.2-2.6,0.3L129,56.2L129,56.2L129,56.2z"/>
<path class="st12" d="M73,53.5c5.6,0.3,7.4,0.9,13,1.3c0.9,0.1,2.1,0.8,1.7,1.8L58,61.6c-3,0.5-6.1,1-9-0.3
	c6.4-1.2,12.6-3.5,18.2-6.7C69.1,53.6,71.2,52.5,73,53.5"/>
<path class="st0" d="M174.9,71.1c3.2-0.6,6.5-1,9.8-1.2c0.3-0.1,0.6,0,0.8,0.2c0.3,0.4,0.4,0.8,0.4,1.2c0.2,4.4,1,8.2,0.6,12.5
	c0,0.6-0.5,1.2-1.1,1.3c-1,0.2-0.5,0.4-0.8,0.4c-7.1,1.1-14.3,0.3-20.9-2.5c0.7-3.3,0.3-7.3,2.3-9.5c1-1.1,2.3-1.4,3.5-1.7
	c2.9-0.6,5.9-0.9,8.9-0.9"/>
<path class="st0" d="M174.9,71.2c1.6-0.3,3.2-0.6,4.8-0.8c1.2-0.2,3.2-0.7,4.4-0.4c2.3,0.6,2,5.9,2.1,8c0.2,2.3,1,6.2-1.6,7.2
	c-2.3,0.9-5.4,0.8-7.8,0.7c-2.9-0.1-5.8-0.6-8.6-1.4c-1.2-0.3-3.3-0.7-4.1-1.8c-0.5-0.7-0.2-1.6-0.1-2.5c0.4-3.5,0.7-7.1,4.6-8.2
	c3.1-0.9,6.4-1.1,9.6-1.1c0,0,0.1,0,0.1-0.1s0-0.1-0.1-0.1c-3.4,0-9-0.1-11.9,2.1s-2.3,7-2.9,10.1c0,0,0,0.1,0.1,0.1
	c5.1,2.1,10.6,3.1,16.2,3c1.8-0.1,5.8,0.2,6.7-2c0.7-1.8,0.1-4.7-0.1-6.5c-0.1-1.4-0.3-2.9-0.4-4.3c-0.1-0.7,0.1-2-0.2-2.7
	c-0.5-1.2-1.5-0.8-2.6-0.7c-2.8,0.2-5.6,0.6-8.3,1.1C174.7,71.1,174.8,71.3,174.9,71.2L174.9,71.2z"/>
<path class="st13" d="M185,70.9c-0.8,3.4-0.3,6.9-0.3,10.5c0,1.5,0.4,3.3,1.5,3.6c1-4.9,0.8-9.9-0.4-14.7L185,70.9"/>
<path class="st13" d="M184.9,70.9c-0.7,3.3-0.4,6.6-0.3,10c0.1,1.5,0,3.4,1.5,4.2c0,0,0.1,0,0.1,0c0,0,0,0,0,0
	c0.9-4.9,0.8-9.9-0.5-14.7c0,0-0.1-0.1-0.1-0.1c0,0,0,0,0,0L184.9,70.9c-0.1,0,0.1,0.1,0.1,0.1c1.1-0.9,1.6,5.5,1.7,6.1
	c0,0.6,0.2,6.7-0.4,6.9c-2.5,0.7-1.5-12-1.2-13.1C185.1,70.8,185,70.8,184.9,70.9L184.9,70.9z"/>
<g class="st14">
	<path class="st15" d="M132.6,56.5l2.5,1.9c0.1,0.1,0.2-0.1,0.1-0.2l-2.5-1.9C132.5,56.2,132.4,56.4,132.6,56.5z"/>
	<path class="st15" d="M133.4,56.2c0.5,0.2,0.9,0.5,1.3,0.8c0.1,0.1,0.3-0.1,0.2-0.2c-0.4-0.3-0.9-0.6-1.3-0.8
		C133.4,55.9,133.3,56.1,133.4,56.2L133.4,56.2z"/>
	<path class="st15" d="M151.6,55l2.2,1.5c0.1,0.1,0.2-0.1,0.1-0.2l-2.2-1.5C151.6,54.7,151.5,54.9,151.6,55z"/>
	<path class="st15" d="M153.4,55.4l0.6,0.5c0,0,0.1,0,0.2,0c0,0,0-0.1,0-0.2c-0.2-0.3-0.5-0.5-0.9-0.7c-0.1-0.1-0.3,0.1-0.1,0.2
		c0.3,0.2,0.6,0.4,0.8,0.7l0.2-0.2l-0.6-0.5C153.5,55.2,153.3,55.3,153.4,55.4z"/>
	<path class="st15" d="M142,55.6l1.9,1.3c0.1,0.1,0.2-0.1,0.1-0.2l-1.9-1.3C142,55.3,141.9,55.5,142,55.6z"/>
	<path class="st15" d="M163.4,56l0.2,0.3c0.1,0.1,0.3,0,0.2-0.2l-0.2-0.3C163.5,55.7,163.3,55.9,163.4,56z"/>
	<path class="st15" d="M162.1,54.5l-0.7-0.3c-0.1-0.1-0.2,0.1-0.1,0.2l2.2,1.8c0.1,0.1,0.3-0.1,0.2-0.2l-2.2-1.8l-0.1,0.2l0.7,0.3
		C162.1,54.7,162.3,54.5,162.1,54.5L162.1,54.5z"/>
	<path class="st15" d="M162.6,54.5l0.7,0.6c0.1,0.1,0.3-0.1,0.2-0.2l-0.7-0.6C162.6,54.2,162.4,54.4,162.6,54.5z"/>
	<path class="st15" d="M179.5,53.6c0.4,0.4,0.9,0.9,1.3,1.2c0.1,0.1,0.3-0.1,0.2-0.2c-0.5-0.4-0.9-0.8-1.3-1.2
		C179.6,53.3,179.4,53.5,179.5,53.6z"/>
	<path class="st15" d="M180.6,53.7l0.9,0.9c0.1,0.1,0.3-0.1,0.2-0.2l-0.9-0.9C180.6,53.4,180.4,53.6,180.6,53.7z"/>
	<path class="st15" d="M192,53c0.8,0.7,1.6,1.4,2.5,2c0.1,0.1,0.2-0.1,0.1-0.2c-0.9-0.6-1.7-1.3-2.5-2C192,52.7,191.9,52.9,192,53z"
		/>
	<path class="st15" d="M202.1,53.8c0.5,0.4,1,0.8,1.5,1.3c0.1,0.1,0.3-0.1,0.2-0.2c-0.5-0.4-1-0.8-1.5-1.3
		C202.1,53.6,202,53.7,202.1,53.8z"/>
	<path class="st15" d="M202.9,53.5l1.1,1c0.1,0.1,0.3-0.1,0.2-0.2l-1.1-1C202.9,53.3,202.8,53.4,202.9,53.5z"/>
	<path class="st15" d="M211.3,52l2,1.7c0.1,0.1,0.3-0.1,0.2-0.2l-2-1.7C211.4,51.8,211.2,51.9,211.3,52z"/>
	<path class="st15" d="M212.1,51.8l1.5,1.5c0.1,0.1,0.3-0.1,0.2-0.2l-1.5-1.5C212.2,51.6,212,51.7,212.1,51.8z"/>
</g>
<path class="st16" d="M241.6,50.8l-4.9-1.8c-0.2-0.1-0.3-0.1-0.5-0.1c-0.3,0-0.6,0.1-0.8,0.3c-1.4,0.7-2.9,1.1-4.5,1.1l1.2,2.4
	c0.1,0.2,0.2,0.4,0.3,0.5c0.2,0.1,0.4,0.2,0.7,0.2c1.8,0,3.6-0.2,5.3-0.6c1.2-0.3,2.4-0.6,3.2-1.7"/>
<path class="st17" d="M244.6,48.3c1,0,2.1,0.2,3,0.6c1,0.4,1.9,1.1,2.5,2.1c0.3,0.5,0.5,1,0.6,1.6c0.1,0.7,0,1.4-0.2,2
	c-0.5,1.4-1.3,2.7-2.4,3.8c-0.4,0.4-1.7,2.3-2.2,1.6c-0.4-0.5-0.6-1.3-1-1.7c-0.3-0.2-0.6-0.4-0.9-0.6c-0.1,0-0.1-0.1-0.1-0.1
	c0-0.1,0-0.1,0-0.2c-0.1-1.1-0.2-2.1-0.3-3.1c-0.2-1-0.4-1.7,0.1-2.7c0.5-1,0.8-2.1,0.9-3.1"/>
<path class="st17" d="M244.6,48.5c3.2,0.3,6.8,2.1,5.7,5.9c-0.3,1.1-2.4,5-3.9,4.8c-1.3-0.1-2.3-2.9-2.4-3.9
	c-0.1-1.2-0.4-2.3-0.1-3.5s0.7-2.2,0.9-3.4c0.1-0.3-0.5-0.5-0.5-0.1c-0.3,1.8-1.3,3.4-1.1,5.2c0.1,1.2,0,3,0.5,4.1
	c0.3,0.7,1.2,1.2,1.7,1.8c0.2,0.3,0.3,0.7,0.6,0.8c0.6,0.2,1.1-0.4,1.4-0.8c1.8-1.8,3.9-4.4,3.6-7.1c-0.5-3.1-3.7-4.2-6.4-4.4
	C244.2,47.9,244.2,48.5,244.6,48.5L244.6,48.5z"/>
<g class="st18">
	<path class="st15" d="M235.1,50.5l2.8,0.9c0.1,0,0.2-0.2,0.1-0.2l-2.8-0.9C235,50.2,234.9,50.5,235.1,50.5z"/>
</g>
<g class="st18">
	<path class="st15" d="M234.4,51c0.5,0.1,1,0.3,1.5,0.5c0.1,0.1,0.3-0.1,0.1-0.2c-0.5-0.3-1-0.5-1.6-0.6
		C234.3,50.8,234.2,51,234.4,51L234.4,51z"/>
</g>
</svg>
